NotoSansMalayalam-Regular.ufo
<glyph name="quotedbl.mlym" format="2">
  <advance width="426"/>
  <unicode hex="0022"/>
  <outline>
    <contour>
      <point x="95" y="542" type="line"/>
      <point x="156" y="542" type="line"/>
      <point x="181" y="800" type="line"/>
      <point x="70" y="800" type="line"/>
    </contour>
    <contour>
      <point x="270" y="542" type="line"/>
      <point x="331" y="542" type="line"/>
      <point x="356" y="800" type="line"/>
      <point x="245" y="800" type="line"/>
    </contour>
  </outline>
</glyph>
<glyph name="numbersign.mlym" format="2">
  <advance width="646"/>
  <unicode hex="0023"/>
  <outline>
    <contour>
      <point x="112" y="0" type="line"/>
      <point x="184" y="0" type="line"/>
      <point x="224" y="209" type="line"/>
      <point x="366" y="209" type="line"/>
      <point x="326" y="0" type="line"/>
      <point x="398" y="0" type="line"/>
      <point x="438" y="209" type="line"/>
      <point x="586" y="209" type="line"/>
      <point x="586" y="276" type="line"/>
      <point x="451" y="276" type="line"/>
      <point x="481" y="436" type="line"/>
      <point x="621" y="436" type="line"/>
      <point x="621" y="503" type="line"/>
      <point x="494" y="503" type="line"/>
      <point x="534" y="714" type="line"/>
      <point x="462" y="714" type="line"/>
      <point x="422" y="503" type="line"/>
      <point x="280" y="503" type="line"/>
      <point x="320" y="714" type="line"/>
      <point x="248" y="714" type="line"/>
      <point x="208" y="503" type="line"/>
      <point x="62" y="503" type="line"/>
      <point x="62" y="436" type="line"/>
      <point x="196" y="436" type="line"/>
      <point x="165" y="276" type="line"/>
      <point x="25" y="276" type="line"/>
      <point x="25" y="209" type="line"/>
      <point x="152" y="209" type="line"/>
    </contour>
    <contour>
      <point x="236" y="276" type="line"/>
      <point x="267" y="436" type="line"/>
      <point x="409" y="436" type="line"/>
      <point x="379" y="276" type="line"/>
    </contour>
  </outline>
</glyph>
<glyph name="quotesingle.mlym" format="2">
  <advance width="250"/>
  <unicode hex="0027"/>
  <outline>
    <contour>
      <point x="95" y="542" type="line"/>
      <point x="156" y="542" type="line"/>
      <point x="181" y="800" type="line"/>
      <point x="70" y="800" type="line"/>
    </contour>
  </outline>
</glyph>
<glyph name="parenleft.mlym" format="2">
  <advance width="301"/>
  <unicode hex="0028"/>
  <outline>
    <contour>
      <point x="41" y="283" type="curve" smooth="yes"/>
      <point x="41" y="88"/>
      <point x="89" y="-100"/>
      <point x="188" y="-244" type="curve"/>
      <point x="270" y="-244" type="line"/>
      <point x="175" y="-90"/>
      <point x="130" y="95"/>
      <point x="130" y="282" type="curve" smooth="yes"/>
      <point x="130" y="468"/>
      <point x="178" y="653"/>
      <point x="270" y="800" type="curve"/>
      <point x="188" y="800" type="line"/>
      <point x="89" y="659"/>
      <point x="41" y="475"/>
    </contour>
  </outline>
</glyph>
<glyph name="parenright.mlym" format="2">
  <advance width="301"/>
  <unicode hex="0029"/>
  <outline>
    <contour>
      <point x="260" y="273" type="curve" smooth="yes"/>
      <point x="260" y="468"/>
      <point x="212" y="656"/>
      <point x="113" y="800" type="curve"/>
      <point x="31" y="800" type="line"/>
      <point x="126" y="646"/>
      <point x="171" y="460"/>
      <point x="171" y="274" type="curve" smooth="yes"/>
      <point x="171" y="88"/>
      <point x="123" y="-97"/>
      <point x="31" y="-244" type="curve"/>
      <point x="113" y="-244" type="line"/>
      <point x="212" y="-103"/>
      <point x="260" y="81"/>
    </contour>
  </outline>
</glyph>
<glyph name="asterisk.mlym" format="2">
  <advance width="551"/>
  <unicode hex="002A"/>
  <outline>
    <contour>
      <point x="325" y="800" type="line"/>
      <point x="225" y="800" type="line"/>
      <point x="246" y="608" type="line"/>
      <point x="54" y="662" type="line"/>
      <point x="40" y="568" type="line"/>
      <point x="226" y="554" type="line"/>
      <point x="105" y="395" type="line"/>
      <point x="193" y="348" type="line"/>
      <point x="275" y="528" type="line"/>
      <point x="358" y="348" type="line"/>
      <point x="445" y="395" type="line"/>
      <point x="323" y="554" type="line"/>
      <point x="510" y="568" type="line"/>
      <point x="496" y="662" type="line"/>
      <point x="304" y="608" type="line"/>
    </contour>
  </outline>
</glyph>
<glyph name="hyphen.mlym" format="2">
  <advance width="322"/>
  <unicode hex="002D"/>
  <outline>
    <contour>
      <point x="40" y="227" type="line"/>
      <point x="282" y="227" type="line"/>
      <point x="282" y="309" type="line"/>
      <point x="40" y="309" type="line"/>
    </contour>
  </outline>
</glyph>
<glyph name="period.mlym" format="2">
  <advance width="268"/>
  <unicode hex="002E"/>
  <outline>
    <contour>
      <point x="134" y="-12" type="curve" smooth="yes"/>
      <point x="168" y="-12"/>
      <point x="196" y="8"/>
      <point x="196" y="56" type="curve" smooth="yes"/>
      <point x="196" y="106"/>
      <point x="168" y="124"/>
      <point x="134" y="124" type="curve" smooth="yes"/>
      <point x="99" y="124"/>
      <point x="72" y="106"/>
      <point x="72" y="56" type="curve" smooth="yes"/>
      <point x="72" y="8"/>
      <point x="99" y="-12"/>
    </contour>
  </outline>
</glyph>
<glyph name="slash.mlym" format="2">
  <advance width="393"/>
  <unicode hex="002F"/>
  <outline>
    <contour>
      <point x="21" y="-244" type="line"/>
      <point x="106" y="-244" type="line"/>
      <point x="372" y="800" type="line"/>
      <point x="287" y="800" type="line"/>
    </contour>
  </outline>
</glyph>
<glyph name="one.mlym" format="2">
  <advance width="572"/>
  <unicode hex="0031"/>
  <outline>
    <contour>
      <point x="356" y="0" type="line"/>
      <point x="356" y="714" type="line"/>
      <point x="283" y="714" type="line"/>
      <point x="90" y="564" type="line"/>
      <point x="136" y="505" type="line"/>
      <point x="235" y="587" type="line" smooth="yes"/>
      <point x="251" y="600"/>
      <point x="264" y="612"/>
      <point x="273" y="622" type="curve"/>
      <point x="271" y="594"/>
      <point x="270" y="553"/>
      <point x="270" y="499" type="curve" smooth="yes"/>
      <point x="270" y="0" type="line"/>
    </contour>
  </outline>
</glyph>
<glyph name="two.mlym" format="2">
  <advance width="572"/>
  <unicode hex="0032"/>
  <outline>
    <contour>
      <point x="49" y="0" type="line"/>
      <point x="521" y="0" type="line"/>
      <point x="521" y="80" type="line"/>
      <point x="160" y="80" type="line"/>
      <point x="160" y="84" type="line"/>
      <point x="309" y="231" type="line" smooth="yes"/>
      <point x="415" y="335"/>
      <point x="491" y="421"/>
      <point x="491" y="534" type="curve" smooth="yes"/>
      <point x="491" y="659"/>
      <point x="400" y="725"/>
      <point x="275" y="725" type="curve" smooth="yes"/>
      <point x="197" y="725"/>
      <point x="124" y="697"/>
      <point x="57" y="641" type="curve"/>
      <point x="104" y="582" type="line"/>
      <point x="163" y="626"/>
      <point x="204" y="650"/>
      <point x="275" y="650" type="curve" smooth="yes"/>
      <point x="351" y="650"/>
      <point x="401" y="605"/>
      <point x="401" y="529" type="curve" smooth="yes"/>
      <point x="401" y="433"/>
      <point x="341" y="369"/>
      <point x="236" y="262" type="curve" smooth="yes"/>
      <point x="49" y="73" type="line"/>
    </contour>
  </outline>
</glyph>
<glyph name="three.mlym" format="2">
  <advance width="572"/>
  <unicode hex="0033"/>
  <outline>
    <contour>
      <point x="242" y="-12" type="curve" smooth="yes"/>
      <point x="392" y="-12"/>
      <point x="516" y="48"/>
      <point x="516" y="202" type="curve" smooth="yes"/>
      <point x="516" y="298"/>
      <point x="457" y="358"/>
      <point x="346" y="372" type="curve"/>
      <point x="346" y="376" type="line"/>
      <point x="441" y="396"/>
      <point x="494" y="457"/>
      <point x="494" y="547" type="curve" smooth="yes"/>
      <point x="494" y="671"/>
      <point x="393" y="725"/>
      <point x="272" y="725" type="curve" smooth="yes"/>
      <point x="188" y="725"/>
      <point x="114" y="699"/>
      <point x="50" y="651" type="curve"/>
      <point x="94" y="591" type="line"/>
      <point x="157" y="632"/>
      <point x="202" y="651"/>
      <point x="273" y="651" type="curve" smooth="yes"/>
      <point x="354" y="651"/>
      <point x="404" y="609"/>
      <point x="404" y="541" type="curve" smooth="yes"/>
      <point x="404" y="458"/>
      <point x="338" y="406"/>
      <point x="225" y="406" type="curve" smooth="yes"/>
      <point x="155" y="406" type="line"/>
      <point x="155" y="331" type="line"/>
      <point x="224" y="331" type="line" smooth="yes"/>
      <point x="357" y="331"/>
      <point x="424" y="288"/>
      <point x="424" y="204" type="curve" smooth="yes"/>
      <point x="424" y="110"/>
      <point x="363" y="62"/>
      <point x="243" y="62" type="curve" smooth="yes"/>
      <point x="179" y="62"/>
      <point x="106" y="79"/>
      <point x="45" y="109" type="curve"/>
      <point x="45" y="27" type="line"/>
      <point x="97" y="1"/>
      <point x="163" y="-12"/>
    </contour>
  </outline>
</glyph>
<glyph name="four.mlym" format="2">
  <advance width="572"/>
  <unicode hex="0034"/>
  <outline>
    <contour>
      <point x="364" y="0" type="line"/>
      <point x="449" y="0" type="line"/>
      <point x="449" y="162" type="line"/>
      <point x="553" y="162" type="line"/>
      <point x="553" y="241" type="line"/>
      <point x="449" y="241" type="line"/>
      <point x="449" y="718" type="line"/>
      <point x="357" y="718" type="line"/>
      <point x="21" y="237" type="line"/>
      <point x="21" y="162" type="line"/>
      <point x="364" y="162" type="line"/>
    </contour>
    <contour>
      <point x="107" y="241" type="line"/>
      <point x="322" y="546" type="line" smooth="yes"/>
      <point x="340" y="572"/>
      <point x="354" y="599"/>
      <point x="365" y="624" type="curve"/>
      <point x="369" y="624" type="line"/>
      <point x="365" y="559"/>
      <point x="364" y="506"/>
      <point x="364" y="466" type="curve" smooth="yes"/>
      <point x="364" y="241" type="line"/>
    </contour>
  </outline>
</glyph>
<glyph name="six.mlym" format="2">
  <advance width="572"/>
  <unicode hex="0036"/>
  <outline>
    <contour>
      <point x="297" y="-12" type="curve" smooth="yes"/>
      <point x="441" y="-12"/>
      <point x="524" y="87"/>
      <point x="524" y="229" type="curve" smooth="yes"/>
      <point x="524" y="358"/>
      <point x="448" y="447"/>
      <point x="317" y="447" type="curve" smooth="yes"/>
      <point x="243" y="447"/>
      <point x="184" y="418"/>
      <point x="148" y="363" type="curve"/>
      <point x="142" y="363" type="line"/>
      <point x="150" y="562"/>
      <point x="229" y="653"/>
      <point x="383" y="653" type="curve" smooth="yes"/>
      <point x="416" y="653"/>
      <point x="445" y="649"/>
      <point x="469" y="641" type="curve"/>
      <point x="469" y="716" type="line"/>
      <point x="445" y="722"/>
      <point x="416" y="725"/>
      <point x="381" y="725" type="curve" smooth="yes"/>
      <point x="163" y="725"/>
      <point x="54" y="585"/>
      <point x="54" y="305" type="curve" smooth="yes"/>
      <point x="54" y="137"/>
      <point x="125" y="-12"/>
    </contour>
    <contour>
      <point x="296" y="62" type="curve" smooth="yes"/>
      <point x="200" y="62"/>
      <point x="143" y="154"/>
      <point x="143" y="247" type="curve" smooth="yes"/>
      <point x="143" y="312"/>
      <point x="207" y="378"/>
      <point x="299" y="378" type="curve" smooth="yes"/>
      <point x="389" y="378"/>
      <point x="437" y="323"/>
      <point x="437" y="229" type="curve" smooth="yes"/>
      <point x="437" y="123"/>
      <point x="386" y="62"/>
    </contour>
  </outline>
</glyph>
<glyph name="seven.mlym" format="2">
  <advance width="572"/>
  <unicode hex="0037"/>
  <outline>
    <contour>
      <point x="137" y="0" type="line"/>
      <point x="233" y="0" type="line"/>
      <point x="523" y="646" type="line"/>
      <point x="523" y="714" type="line"/>
      <point x="44" y="714" type="line"/>
      <point x="44" y="634" type="line"/>
      <point x="430" y="634" type="line"/>
    </contour>
  </outline>
</glyph>
<glyph name="colon.mlym" format="2">
  <advance width="268"/>
  <unicode hex="003A"/>
  <outline>
    <contour>
      <point x="134" y="-12" type="curve" smooth="yes"/>
      <point x="168" y="-12"/>
      <point x="196" y="8"/>
      <point x="196" y="56" type="curve" smooth="yes"/>
      <point x="196" y="106"/>
      <point x="168" y="124"/>
      <point x="134" y="124" type="curve" smooth="yes"/>
      <point x="99" y="124"/>
      <point x="72" y="106"/>
      <point x="72" y="56" type="curve" smooth="yes"/>
      <point x="72" y="8"/>
      <point x="99" y="-12"/>
    </contour>
    <contour>
      <point x="134" y="414" type="curve" smooth="yes"/>
      <point x="168" y="414"/>
      <point x="196" y="434"/>
      <point x="196" y="482" type="curve" smooth="yes"/>
      <point x="196" y="533"/>
      <point x="168" y="550"/>
      <point x="134" y="550" type="curve" smooth="yes"/>
      <point x="99" y="550"/>
      <point x="72" y="533"/>
      <point x="72" y="482" type="curve" smooth="yes"/>
      <point x="72" y="434"/>
      <point x="99" y="414"/>
    </contour>
  </outline>
</glyph>
<glyph name="semicolon.mlym" format="2">
  <advance width="268"/>
  <unicode hex="003B"/>
  <outline>
    <contour>
      <point x="177" y="116" type="line"/>
      <point x="80" y="116" type="line"/>
      <point x="70" y="47"/>
      <point x="50" y="-50"/>
      <point x="31" y="-129" type="curve"/>
      <point x="98" y="-129" type="line"/>
      <point x="131" y="-56"/>
      <point x="166" y="34"/>
      <point x="184" y="105" type="curve"/>
    </contour>
    <contour>
      <point x="134" y="414" type="curve" smooth="yes"/>
      <point x="168" y="414"/>
      <point x="196" y="434"/>
      <point x="196" y="482" type="curve" smooth="yes"/>
      <point x="196" y="533"/>
      <point x="168" y="550"/>
      <point x="134" y="550" type="curve" smooth="yes"/>
      <point x="99" y="550"/>
      <point x="72" y="533"/>
      <point x="72" y="482" type="curve" smooth="yes"/>
      <point x="72" y="434"/>
      <point x="99" y="414"/>
    </contour>
  </outline>
</glyph>
<glyph name="question.mlym" format="2">
  <advance width="445"/>
  <unicode hex="003F"/>
  <outline>
    <contour>
      <point x="216" y="725" type="curve" smooth="yes"/>
      <point x="153" y="725"/>
      <point x="90" y="703"/>
      <point x="38" y="676" type="curve"/>
      <point x="68" y="605" type="line"/>
      <point x="114" y="627"/>
      <point x="162" y="647"/>
      <point x="216" y="647" type="curve" smooth="yes"/>
      <point x="289" y="647"/>
      <point x="328" y="604"/>
      <point x="328" y="541" type="curve" smooth="yes"/>
      <point x="328" y="472"/>
      <point x="302" y="443"/>
      <point x="240" y="390" type="curve" smooth="yes"/>
      <point x="173" y="333"/>
      <point x="157" y="295"/>
      <point x="157" y="220" type="curve" smooth="yes"/>
      <point x="157" y="202" type="line"/>
      <point x="225" y="202" type="line"/>
      <point x="225" y="211" type="line" smooth="yes"/>
      <point x="225" y="268"/>
      <point x="240" y="292"/>
      <point x="304" y="347" type="curve" smooth="yes"/>
      <point x="377" y="411"/>
      <point x="413" y="455"/>
      <point x="413" y="542" type="curve" smooth="yes"/>
      <point x="413" y="657"/>
      <point x="337" y="725"/>
    </contour>
    <contour>
      <point x="195" y="-12" type="curve" smooth="yes"/>
      <point x="229" y="-12"/>
      <point x="257" y="8"/>
      <point x="257" y="56" type="curve" smooth="yes"/>
      <point x="257" y="106"/>
      <point x="229" y="124"/>
      <point x="195" y="124" type="curve" smooth="yes"/>
      <point x="161" y="124"/>
      <point x="133" y="106"/>
      <point x="133" y="56" type="curve" smooth="yes"/>
      <point x="133" y="8"/>
      <point x="161" y="-12"/>
    </contour>
  </outline>
</glyph>
<glyph name="backslash.mlym" format="2">
  <advance width="393"/>
  <unicode hex="005C"/>
  <outline>
    <contour>
      <point x="287" y="-244" type="line"/>
      <point x="372" y="-244" type="line"/>
      <point x="106" y="800" type="line"/>
      <point x="21" y="800" type="line"/>
    </contour>
  </outline>
</glyph>
<glyph name="bracketright.mlym" format="2">
  <advance width="323"/>
  <unicode hex="005D"/>
  <outline>
    <contour>
      <point x="40" y="-244" type="line"/>
      <point x="238" y="-244" type="line"/>
      <point x="238" y="800" type="line"/>
      <point x="40" y="800" type="line"/>
      <point x="40" y="732" type="line"/>
      <point x="151" y="732" type="line"/>
      <point x="151" y="-176" type="line"/>
      <point x="40" y="-176" type="line"/>
    </contour>
  </outline>
</glyph>
<glyph name="asciicircum.mlym" format="2">
  <advance width="572"/>
  <unicode hex="005E"/>
  <outline>
    <contour>
      <point x="39" y="268" type="line"/>
      <point x="118" y="268" type="line"/>
      <point x="289" y="627" type="line"/>
      <point x="453" y="268" type="line"/>
      <point x="532" y="268" type="line"/>
      <point x="314" y="719" type="line"/>
      <point x="264" y="719" type="line"/>
    </contour>
  </outline>
</glyph>
<glyph name="braceleft.mlym" format="2">
  <advance width="369"/>
  <unicode hex="007B"/>
  <outline>
    <contour>
      <point x="330" y="-244" type="curve"/>
      <point x="330" y="-171" type="line"/>
      <point x="277" y="-170"/>
      <point x="245" y="-154"/>
      <point x="245" y="-76" type="curve" smooth="yes"/>
      <point x="245" y="125" type="line" smooth="yes"/>
      <point x="245" y="209"/>
      <point x="205" y="259"/>
      <point x="130" y="275" type="curve"/>
      <point x="130" y="281" type="line"/>
      <point x="205" y="297"/>
      <point x="245" y="345"/>
      <point x="245" y="431" type="curve" smooth="yes"/>
      <point x="245" y="631" type="line" smooth="yes"/>
      <point x="245" y="709"/>
      <point x="277" y="725"/>
      <point x="330" y="727" type="curve"/>
      <point x="330" y="800" type="line"/>
      <point x="229" y="798"/>
      <point x="156" y="749"/>
      <point x="156" y="626" type="curve" smooth="yes"/>
      <point x="156" y="428" type="line" smooth="yes"/>
      <point x="156" y="346"/>
      <point x="112" y="315"/>
      <point x="30" y="315" type="curve"/>
      <point x="30" y="240" type="line"/>
      <point x="111" y="240"/>
      <point x="156" y="210"/>
      <point x="156" y="127" type="curve" smooth="yes"/>
      <point x="156" y="-70" type="line" smooth="yes"/>
      <point x="156" y="-193"/>
      <point x="229" y="-243"/>
    </contour>
  </outline>
</glyph>
<glyph name="bar.mlym" format="2">
  <advance width="551"/>
  <unicode hex="007C"/>
  <outline>
    <contour>
      <point x="239" y="-244" type="line"/>
      <point x="312" y="-244" type="line"/>
      <point x="312" y="800" type="line"/>
      <point x="239" y="800" type="line"/>
    </contour>
  </outline>
</glyph>
<glyph name="uni0307" format="2">
  <unicode hex="0307"/>
  <outline>
    <contour>
      <point x="-330" y="701" type="curve" smooth="yes"/>
      <point x="-330" y="663"/>
      <point x="-307" y="645"/>
      <point x="-278" y="645" type="curve" smooth="yes"/>
      <point x="-250" y="645"/>
      <point x="-226" y="663"/>
      <point x="-226" y="701" type="curve" smooth="yes"/>
      <point x="-226" y="740"/>
      <point x="-250" y="757"/>
      <point x="-278" y="757" type="curve" smooth="yes"/>
      <point x="-307" y="757"/>
      <point x="-330" y="740"/>
    </contour>
  </outline>
</glyph>
<glyph name="uni0323" format="2">
  <unicode hex="0323"/>
  <outline>
    <contour>
      <point x="-330" y="-136" type="curve" smooth="yes"/>
      <point x="-330" y="-174"/>
      <point x="-307" y="-191"/>
      <point x="-278" y="-191" type="curve" smooth="yes"/>
      <point x="-250" y="-191"/>
      <point x="-226" y="-174"/>
      <point x="-226" y="-136" type="curve" smooth="yes"/>
      <point x="-226" y="-97"/>
      <point x="-250" y="-80"/>
      <point x="-278" y="-80" type="curve" smooth="yes"/>
      <point x="-307" y="-80"/>
      <point x="-330" y="-97"/>
    </contour>
  </outline>
</glyph>
<glyph name="uni0952" format="2">
  <unicode hex="0952"/>
  <outline>
    <contour>
      <point x="-65" y="-182" type="line"/>
      <point x="-65" y="-111" type="line"/>
      <point x="-491" y="-111" type="line"/>
      <point x="-491" y="-182" type="line"/>
    </contour>
  </outline>
</glyph>
<glyph name="danda.mlym" format="2">
  <advance width="350"/>
  <unicode hex="0964"/>
  <outline>
    <contour>
      <point x="176" y="-49" type="line"/>
      <point x="262" y="-49" type="line"/>
      <point x="262" y="603" type="line"/>
      <point x="176" y="603" type="line"/>
    </contour>
  </outline>
</glyph>
<glyph name="dbldanda.mlym" format="2">
  <advance width="570"/>
  <unicode hex="0965"/>
  <outline>
    <contour>
      <point x="396" y="-49" type="line"/>
      <point x="482" y="-49" type="line"/>
      <point x="482" y="603" type="line"/>
      <point x="396" y="603" type="line"/>
    </contour>
    <contour>
      <point x="176" y="-49" type="line"/>
      <point x="262" y="-49" type="line"/>
      <point x="262" y="603" type="line"/>
      <point x="176" y="603" type="line"/>
    </contour>
  </outline>
</glyph>
<glyph name="candrabindumlym" format="2">
  <unicode hex="0D01"/>
  <outline>
    <contour>
      <point x="-278" y="652" type="curve" smooth="yes"/>
      <point x="-170" y="652"/>
      <point x="-104" y="710"/>
      <point x="-104" y="807" type="curve" smooth="yes"/>
      <point x="-104" y="824"/>
      <point x="-107" y="846"/>
      <point x="-111" y="862" type="curve"/>
      <point x="-180" y="848" type="line"/>
      <point x="-176" y="834"/>
      <point x="-175" y="821"/>
      <point x="-175" y="811" type="curve" smooth="yes"/>
      <point x="-175" y="741"/>
      <point x="-223" y="717"/>
      <point x="-278" y="717" type="curve" smooth="yes"/>
      <point x="-331" y="717"/>
      <point x="-381" y="737"/>
      <point x="-381" y="809" type="curve" smooth="yes"/>
      <point x="-381" y="820"/>
      <point x="-380" y="834"/>
      <point x="-376" y="848" type="curve"/>
      <point x="-444" y="862" type="line"/>
      <point x="-449" y="846"/>
      <point x="-452" y="826"/>
      <point x="-452" y="807" type="curve" smooth="yes"/>
      <point x="-452" y="708"/>
      <point x="-390" y="652"/>
    </contour>
    <contour>
      <point x="-279" y="759" type="curve" smooth="yes"/>
      <point x="-250" y="759"/>
      <point x="-228" y="779"/>
      <point x="-228" y="810" type="curve" smooth="yes"/>
      <point x="-228" y="838"/>
      <point x="-250" y="860"/>
      <point x="-279" y="860" type="curve" smooth="yes"/>
      <point x="-308" y="860"/>
      <point x="-329" y="838"/>
      <point x="-329" y="810" type="curve" smooth="yes"/>
      <point x="-329" y="779"/>
      <point x="-308" y="759"/>
    </contour>
  </outline>
</glyph>
<glyph name="anusvaramlym" format="2">
  <advance width="453"/>
  <unicode hex="0D02"/>
  <outline>
    <contour>
      <point x="226" y="-12" type="curve" smooth="yes"/>
      <point x="341" y="-12"/>
      <point x="421" y="62"/>
      <point x="421" y="176" type="curve" smooth="yes"/>
      <point x="421" y="291"/>
      <point x="341" y="363"/>
      <point x="226" y="363" type="curve" smooth="yes"/>
      <point x="112" y="363"/>
      <point x="32" y="288"/>
      <point x="32" y="176" type="curve" smooth="yes"/>
      <point x="32" y="65"/>
      <point x="106" y="-12"/>
    </contour>
    <contour>
      <point x="226" y="295" type="curve" smooth="yes"/>
      <point x="290" y="295"/>
      <point x="337" y="256"/>
      <point x="337" y="176" type="curve" smooth="yes"/>
      <point x="337" y="95"/>
      <point x="289" y="56"/>
      <point x="226" y="56" type="curve" smooth="yes"/>
      <point x="164" y="56"/>
      <point x="116" y="95"/>
      <point x="116" y="175" type="curve" smooth="yes"/>
      <point x="116" y="256"/>
      <point x="163" y="295"/>
    </contour>
  </outline>
</glyph>
<glyph name="visargamlym" format="2">
  <advance width="336"/>
  <unicode hex="0D03"/>
  <outline>
    <contour>
      <point x="33" y="436" type="curve" smooth="yes"/>
      <point x="33" y="363"/>
      <point x="85" y="306"/>
      <point x="168" y="306" type="curve" smooth="yes"/>
      <point x="251" y="306"/>
      <point x="304" y="362"/>
      <point x="304" y="436" type="curve" smooth="yes"/>
      <point x="304" y="510"/>
      <point x="251" y="566"/>
      <point x="168" y="566" type="curve" smooth="yes"/>
      <point x="86" y="566"/>
      <point x="33" y="509"/>
    </contour>
    <contour>
      <point x="104" y="437" type="curve" smooth="yes"/>
      <point x="104" y="473"/>
      <point x="127" y="501"/>
      <point x="168" y="501" type="curve" smooth="yes"/>
      <point x="210" y="501"/>
      <point x="233" y="473"/>
      <point x="233" y="437" type="curve" smooth="yes"/>
      <point x="233" y="400"/>
      <point x="211" y="371"/>
      <point x="168" y="371" type="curve" smooth="yes"/>
      <point x="126" y="371"/>
      <point x="104" y="400"/>
    </contour>
    <contour>
      <point x="33" y="118" type="curve" smooth="yes"/>
      <point x="33" y="45"/>
      <point x="85" y="-12"/>
      <point x="168" y="-12" type="curve" smooth="yes"/>
      <point x="251" y="-12"/>
      <point x="304" y="44"/>
      <point x="304" y="118" type="curve" smooth="yes"/>
      <point x="304" y="192"/>
      <point x="251" y="248"/>
      <point x="168" y="248" type="curve" smooth="yes"/>
      <point x="86" y="248"/>
      <point x="33" y="191"/>
    </contour>
    <contour>
      <point x="104" y="119" type="curve" smooth="yes"/>
      <point x="104" y="155"/>
      <point x="127" y="183"/>
      <point x="168" y="183" type="curve" smooth="yes"/>
      <point x="210" y="183"/>
      <point x="233" y="155"/>
      <point x="233" y="119" type="curve" smooth="yes"/>
      <point x="233" y="82"/>
      <point x="211" y="53"/>
      <point x="168" y="53" type="curve" smooth="yes"/>
      <point x="126" y="53"/>
      <point x="104" y="82"/>
    </contour>
  </outline>
</glyph>
<glyph name="amlym" format="2">
  <advance width="1495"/>
  <unicode hex="0D05"/>
  <outline>
    <contour>
      <point x="367" y="566" type="curve" smooth="yes"/>
      <point x="146" y="566"/>
      <point x="39" y="441"/>
      <point x="39" y="277" type="curve" smooth="yes"/>
      <point x="39" y="135"/>
      <point x="114" y="40"/>
      <point x="200" y="-9" type="curve"/>
      <point x="250" y="54" type="line"/>
      <point x="175" y="100"/>
      <point x="128" y="169"/>
      <point x="128" y="273" type="curve" smooth="yes"/>
      <point x="128" y="400"/>
      <point x="208" y="497"/>
      <point x="374" y="497" type="curve" smooth="yes"/>
      <point x="406" y="497"/>
      <point x="445" y="497"/>
      <point x="497" y="484" type="curve"/>
      <point x="582" y="469"/>
      <point x="626" y="431"/>
      <point x="626" y="369" type="curve" smooth="yes"/>
      <point x="626" y="320"/>
      <point x="596" y="288"/>
      <point x="514" y="288" type="curve" smooth="yes"/>
      <point x="500" y="288" type="line"/>
      <point x="500" y="218" type="line"/>
      <point x="519" y="218" type="line" smooth="yes"/>
      <point x="600" y="218"/>
      <point x="637" y="187"/>
      <point x="637" y="138" type="curve" smooth="yes"/>
      <point x="637" y="83"/>
      <point x="603" y="55"/>
      <point x="534" y="55" type="curve" smooth="yes"/>
      <point x="441" y="55"/>
      <point x="390" y="122"/>
      <point x="390" y="239" type="curve" smooth="yes"/>
      <point x="390" y="323"/>
      <point x="435" y="449"/>
      <point x="561" y="486" type="curve" smooth="yes"/>
      <point x="587" y="494"/>
      <point x="621" y="499"/>
      <point x="657" y="499" type="curve" smooth="yes"/>
      <point x="733" y="499"/>
      <point x="771" y="481"/>
      <point x="800" y="454" type="curve" smooth="yes"/>
      <point x="833" y="423"/>
      <point x="849" y="379"/>
      <point x="849" y="281" type="curve" smooth="yes"/>
      <point x="849" y="0" type="line"/>
      <point x="936" y="0" type="line"/>
      <point x="936" y="247" type="line"/>
      <point x="910" y="444" type="line"/>
      <point x="866" y="510"/>
      <point x="804" y="566"/>
      <point x="669" y="566" type="curve" smooth="yes"/>
      <point x="593" y="566"/>
      <point x="536" y="551"/>
      <point x="488" y="527" type="curve" smooth="yes"/>
      <point x="481" y="523"/>
      <point x="474" y="519"/>
      <point x="468" y="515" type="curve" smooth="yes"/>
      <point x="354" y="446"/>
      <point x="306" y="347"/>
      <point x="306" y="235" type="curve" smooth="yes"/>
      <point x="306" y="96"/>
      <point x="381" y="-12"/>
      <point x="533" y="-12" type="curve" smooth="yes"/>
      <point x="666" y="-12"/>
      <point x="721" y="57"/>
      <point x="721" y="136" type="curve" smooth="yes"/>
      <point x="721" y="194"/>
      <point x="685" y="237"/>
      <point x="626" y="256" type="curve"/>
      <point x="622" y="253" type="line"/>
      <point x="688" y="282"/>
      <point x="710" y="319"/>
      <point x="710" y="368" type="curve" smooth="yes"/>
      <point x="710" y="429"/>
      <point x="679" y="489"/>
      <point x="570" y="518" type="curve"/>
      <point x="563" y="520"/>
      <point x="553" y="530"/>
      <point x="546" y="533" type="curve" smooth="yes"/>
      <point x="492" y="556"/>
      <point x="426" y="566"/>
    </contour>
    <contour>
      <point x="1243" y="-12" type="curve" smooth="yes"/>
      <point x="1364" y="-12"/>
      <point x="1456" y="63"/>
      <point x="1456" y="242" type="curve" smooth="yes"/>
      <point x="1456" y="430"/>
      <point x="1345" y="566"/>
      <point x="1127" y="566" type="curve" smooth="yes"/>
      <point x="999" y="566"/>
      <point x="934" y="518"/>
      <point x="884" y="454" type="curve"/>
      <point x="936" y="204" type="line"/>
      <point x="936" y="289" type="line" smooth="yes"/>
      <point x="936" y="381"/>
      <point x="957" y="420"/>
      <point x="989" y="451" type="curve" smooth="yes"/>
      <point x="1023" y="482"/>
      <point x="1070" y="494"/>
      <point x="1127" y="494" type="curve" smooth="yes"/>
      <point x="1276" y="494"/>
      <point x="1347" y="411"/>
      <point x="1363" y="335" type="curve" smooth="yes"/>
      <point x="1366" y="323"/>
      <point x="1366" y="309"/>
      <point x="1368" y="298" type="curve" smooth="yes"/>
      <point x="1371" y="279"/>
      <point x="1373" y="262"/>
      <point x="1373" y="248" type="curve" smooth="yes"/>
      <point x="1373" y="112"/>
      <point x="1325" y="58"/>
      <point x="1244" y="58" type="curve" smooth="yes"/>
      <point x="1166" y="58"/>
      <point x="1134" y="115"/>
      <point x="1134" y="198" type="curve" smooth="yes"/>
      <point x="1134" y="279"/>
      <point x="1171" y="334"/>
      <point x="1255" y="334" type="curve" smooth="yes"/>
      <point x="1335" y="334"/>
      <point x="1387" y="270"/>
      <point x="1402" y="209" type="curve"/>
      <point x="1427" y="206" type="line"/>
      <point x="1422" y="305"/>
      <point x="1349" y="404"/>
      <point x="1238" y="404" type="curve" smooth="yes"/>
      <point x="1123" y="404"/>
      <point x="1050" y="322"/>
      <point x="1050" y="196" type="curve" smooth="yes"/>
      <point x="1050" y="86"/>
      <point x="1114" y="-12"/>
    </contour>
  </outline>
</glyph>
<glyph name="aamlym" format="2">
  <advance width="1647"/>
  <unicode hex="0D06"/>
  <outline>
    <contour>
      <point x="367" y="566" type="curve" smooth="yes"/>
      <point x="146" y="566"/>
      <point x="39" y="441"/>
      <point x="39" y="277" type="curve" smooth="yes"/>
      <point x="39" y="135"/>
      <point x="114" y="40"/>
      <point x="200" y="-9" type="curve"/>
      <point x="250" y="54" type="line"/>
      <point x="175" y="100"/>
      <point x="128" y="169"/>
      <point x="128" y="273" type="curve" smooth="yes"/>
      <point x="128" y="400"/>
      <point x="208" y="497"/>
      <point x="374" y="497" type="curve" smooth="yes"/>
      <point x="406" y="497"/>
      <point x="445" y="497"/>
      <point x="497" y="484" type="curve"/>
      <point x="582" y="469"/>
      <point x="626" y="431"/>
      <point x="626" y="369" type="curve" smooth="yes"/>
      <point x="626" y="320"/>
      <point x="596" y="288"/>
      <point x="514" y="288" type="curve" smooth="yes"/>
      <point x="500" y="288" type="line"/>
      <point x="500" y="218" type="line"/>
      <point x="519" y="218" type="line" smooth="yes"/>
      <point x="600" y="218"/>
      <point x="637" y="187"/>
      <point x="637" y="138" type="curve" smooth="yes"/>
      <point x="637" y="83"/>
      <point x="603" y="55"/>
      <point x="534" y="55" type="curve" smooth="yes"/>
      <point x="441" y="55"/>
      <point x="390" y="122"/>
      <point x="390" y="239" type="curve" smooth="yes"/>
      <point x="390" y="323"/>
      <point x="435" y="449"/>
      <point x="561" y="486" type="curve" smooth="yes"/>
      <point x="587" y="494"/>
      <point x="621" y="499"/>
      <point x="657" y="499" type="curve" smooth="yes"/>
      <point x="733" y="499"/>
      <point x="771" y="481"/>
      <point x="800" y="454" type="curve" smooth="yes"/>
      <point x="833" y="423"/>
      <point x="849" y="379"/>
      <point x="849" y="281" type="curve" smooth="yes"/>
      <point x="849" y="0" type="line"/>
      <point x="936" y="0" type="line"/>
      <point x="936" y="247" type="line"/>
      <point x="910" y="444" type="line"/>
      <point x="866" y="510"/>
      <point x="804" y="566"/>
      <point x="669" y="566" type="curve" smooth="yes"/>
      <point x="593" y="566"/>
      <point x="536" y="551"/>
      <point x="488" y="527" type="curve" smooth="yes"/>
      <point x="481" y="523"/>
      <point x="474" y="519"/>
      <point x="468" y="515" type="curve" smooth="yes"/>
      <point x="354" y="446"/>
      <point x="306" y="347"/>
      <point x="306" y="235" type="curve" smooth="yes"/>
      <point x="306" y="96"/>
      <point x="381" y="-12"/>
      <point x="533" y="-12" type="curve" smooth="yes"/>
      <point x="666" y="-12"/>
      <point x="721" y="57"/>
      <point x="721" y="136" type="curve" smooth="yes"/>
      <point x="721" y="194"/>
      <point x="685" y="237"/>
      <point x="626" y="256" type="curve"/>
      <point x="622" y="253" type="line"/>
      <point x="688" y="282"/>
      <point x="710" y="319"/>
      <point x="710" y="368" type="curve" smooth="yes"/>
      <point x="710" y="429"/>
      <point x="679" y="489"/>
      <point x="570" y="518" type="curve" smooth="yes"/>
      <point x="563" y="520"/>
      <point x="553" y="530"/>
      <point x="546" y="533" type="curve" smooth="yes"/>
      <point x="492" y="556"/>
      <point x="426" y="566"/>
    </contour>
    <contour>
      <point x="1117" y="566" type="curve" smooth="yes"/>
      <point x="1010" y="566"/>
      <point x="934" y="524"/>
      <point x="880" y="450" type="curve"/>
      <point x="936" y="204" type="line"/>
      <point x="936" y="288" type="line" smooth="yes"/>
      <point x="936" y="380"/>
      <point x="956" y="420"/>
      <point x="988" y="451" type="curve" smooth="yes"/>
      <point x="1022" y="482"/>
      <point x="1071" y="494"/>
      <point x="1118" y="494" type="curve" smooth="yes"/>
      <point x="1243" y="494"/>
      <point x="1307" y="433"/>
      <point x="1335" y="354" type="curve"/>
      <point x="1340" y="332" type="line"/>
      <point x="1349" y="298"/>
      <point x="1353" y="261"/>
      <point x="1353" y="225" type="curve" smooth="yes"/>
      <point x="1353" y="114"/>
      <point x="1310" y="58"/>
      <point x="1227" y="58" type="curve" smooth="yes"/>
      <point x="1150" y="58"/>
      <point x="1122" y="116"/>
      <point x="1122" y="171" type="curve" smooth="yes"/>
      <point x="1122" y="268"/>
      <point x="1186" y="313"/>
      <point x="1301" y="313" type="curve" smooth="yes"/>
      <point x="1324" y="313"/>
      <point x="1350" y="310"/>
      <point x="1374" y="302" type="curve"/>
      <point x="1412" y="296" type="line"/>
      <point x="1492" y="260"/>
      <point x="1533" y="195"/>
      <point x="1533" y="92" type="curve" smooth="yes"/>
      <point x="1533" y="-33"/>
      <point x="1472" y="-128"/>
      <point x="1308" y="-128" type="curve" smooth="yes"/>
      <point x="1250" y="-128"/>
      <point x="1203" y="-118"/>
      <point x="1166" y="-102" type="curve"/>
      <point x="1138" y="-172" type="line"/>
      <point x="1178" y="-187"/>
      <point x="1237" y="-201"/>
      <point x="1306" y="-201" type="curve" smooth="yes"/>
      <point x="1507" y="-201"/>
      <point x="1619" y="-91"/>
      <point x="1619" y="91" type="curve" smooth="yes"/>
      <point x="1619" y="239"/>
      <point x="1526" y="353"/>
      <point x="1375" y="377" type="curve"/>
      <point x="1345" y="379" type="line"/>
      <point x="1329" y="381"/>
      <point x="1314" y="382"/>
      <point x="1304" y="382" type="curve" smooth="yes"/>
      <point x="1132" y="382"/>
      <point x="1036" y="301"/>
      <point x="1036" y="171" type="curve" smooth="yes"/>
      <point x="1036" y="82"/>
      <point x="1093" y="-12"/>
      <point x="1223" y="-12" type="curve" smooth="yes"/>
      <point x="1352" y="-12"/>
      <point x="1436" y="61"/>
      <point x="1436" y="224" type="curve" smooth="yes"/>
      <point x="1436" y="261"/>
      <point x="1433" y="296"/>
      <point x="1425" y="329" type="curve"/>
      <point x="1392" y="472"/>
      <point x="1289" y="566"/>
    </contour>
  </outline>
</glyph>
<glyph name="imlym" format="2">
  <advance width="986"/>
  <unicode hex="0D07"/>
  <outline>
    <contour>
      <point x="331" y="566" type="curve" smooth="yes"/>
      <point x="146" y="566"/>
      <point x="40" y="451"/>
      <point x="40" y="311" type="curve" smooth="yes"/>
      <point x="40" y="186"/>
      <point x="107" y="115"/>
      <point x="210" y="115" type="curve" smooth="yes"/>
      <point x="326" y="115"/>
      <point x="378" y="189"/>
      <point x="378" y="270" type="curve" smooth="yes"/>
      <point x="378" y="347"/>
      <point x="333" y="416"/>
      <point x="229" y="416" type="curve" smooth="yes"/>
      <point x="153" y="416"/>
      <point x="97" y="368"/>
      <point x="66" y="329" type="curve"/>
      <point x="89" y="271" type="line"/>
      <point x="115" y="307"/>
      <point x="153" y="350"/>
      <point x="214" y="350" type="curve" smooth="yes"/>
      <point x="272" y="350"/>
      <point x="295" y="314"/>
      <point x="295" y="270" type="curve" smooth="yes"/>
      <point x="295" y="223"/>
      <point x="269" y="183"/>
      <point x="209" y="183" type="curve" smooth="yes"/>
      <point x="146" y="183"/>
      <point x="117" y="226"/>
      <point x="117" y="308" type="curve" smooth="yes"/>
      <point x="117" y="323"/>
      <point x="119" y="336"/>
      <point x="123" y="351" type="curve" smooth="yes"/>
      <point x="124" y="355"/>
      <point x="121" y="360"/>
      <point x="122" y="365" type="curve" smooth="yes"/>
      <point x="150" y="440"/>
      <point x="212" y="496"/>
      <point x="329" y="496" type="curve" smooth="yes"/>
      <point x="392" y="496"/>
      <point x="427" y="482"/>
      <point x="453" y="458" type="curve" smooth="yes"/>
      <point x="482" y="430"/>
      <point x="498" y="393"/>
      <point x="498" y="309" type="curve" smooth="yes"/>
      <point x="498" y="122" type="line"/>
      <point x="584" y="122" type="line"/>
      <point x="584" y="300" type="line" smooth="yes"/>
      <point x="584" y="389"/>
      <point x="592" y="425"/>
      <point x="615" y="455" type="curve" smooth="yes"/>
      <point x="636" y="481"/>
      <point x="665" y="494"/>
      <point x="709" y="494" type="curve" smooth="yes"/>
      <point x="813" y="494"/>
      <point x="859" y="399"/>
      <point x="859" y="301" type="curve" smooth="yes"/>
      <point x="859" y="240"/>
      <point x="849" y="183"/>
      <point x="813" y="141" type="curve" smooth="yes"/>
      <point x="774" y="97"/>
      <point x="723" y="70"/>
      <point x="572" y="70" type="curve" smooth="yes"/>
      <point x="238" y="70" type="line" smooth="yes"/>
      <point x="168" y="70"/>
      <point x="131" y="59"/>
      <point x="103" y="40" type="curve" smooth="yes"/>
      <point x="65" y="16"/>
      <point x="50" y="-22"/>
      <point x="50" y="-68" type="curve" smooth="yes"/>
      <point x="50" y="-112"/>
      <point x="69" y="-147"/>
      <point x="106" y="-170" type="curve" smooth="yes"/>
      <point x="139" y="-190"/>
      <point x="186" y="-201"/>
      <point x="255" y="-201" type="curve" smooth="yes"/>
      <point x="925" y="-201" type="line"/>
      <point x="925" y="-129" type="line"/>
      <point x="259" y="-129" type="line" smooth="yes"/>
      <point x="203" y="-129"/>
      <point x="176" y="-122"/>
      <point x="159" y="-110" type="curve" smooth="yes"/>
      <point x="142" y="-99"/>
      <point x="136" y="-82"/>
      <point x="136" y="-62" type="curve" smooth="yes"/>
      <point x="136" y="-41"/>
      <point x="145" y="-23"/>
      <point x="166" y="-13" type="curve" smooth="yes"/>
      <point x="182" y="-4"/>
      <point x="206" y="0"/>
      <point x="263" y="0" type="curve" smooth="yes"/>
      <point x="584" y="0" type="line" smooth="yes"/>
      <point x="720" y="0"/>
      <point x="791" y="19"/>
      <point x="847" y="61" type="curve" smooth="yes"/>
      <point x="911" y="109"/>
      <point x="947" y="188"/>
      <point x="947" y="304" type="curve" smooth="yes"/>
      <point x="947" y="435"/>
      <point x="873" y="566"/>
      <point x="711" y="566" type="curve" smooth="yes"/>
      <point x="634" y="566"/>
      <point x="579" y="542"/>
      <point x="534" y="470" type="curve"/>
      <point x="552" y="466" type="line"/>
      <point x="513" y="526"/>
      <point x="453" y="566"/>
    </contour>
  </outline>
</glyph>
<glyph name="umlym" format="2">
  <advance width="692"/>
  <unicode hex="0D09"/>
  <outline>
    <contour>
      <point x="347" y="566" type="curve" smooth="yes"/>
      <point x="146" y="566"/>
      <point x="40" y="451"/>
      <point x="40" y="311" type="curve" smooth="yes"/>
      <point x="40" y="186"/>
      <point x="107" y="115"/>
      <point x="210" y="115" type="curve" smooth="yes"/>
      <point x="326" y="115"/>
      <point x="378" y="189"/>
      <point x="378" y="270" type="curve" smooth="yes"/>
      <point x="378" y="347"/>
      <point x="333" y="416"/>
      <point x="229" y="416" type="curve" smooth="yes"/>
      <point x="153" y="416"/>
      <point x="97" y="368"/>
      <point x="66" y="329" type="curve"/>
      <point x="89" y="271" type="line"/>
      <point x="115" y="307"/>
      <point x="153" y="350"/>
      <point x="214" y="350" type="curve" smooth="yes"/>
      <point x="272" y="350"/>
      <point x="295" y="314"/>
      <point x="295" y="270" type="curve" smooth="yes"/>
      <point x="295" y="223"/>
      <point x="269" y="183"/>
      <point x="209" y="183" type="curve" smooth="yes"/>
      <point x="146" y="183"/>
      <point x="117" y="226"/>
      <point x="117" y="308" type="curve" smooth="yes"/>
      <point x="117" y="323"/>
      <point x="119" y="336"/>
      <point x="123" y="351" type="curve" smooth="yes"/>
      <point x="124" y="355"/>
      <point x="121" y="360"/>
      <point x="122" y="365" type="curve" smooth="yes"/>
      <point x="150" y="440"/>
      <point x="212" y="496"/>
      <point x="339" y="496" type="curve" smooth="yes"/>
      <point x="506" y="496"/>
      <point x="565" y="394"/>
      <point x="565" y="290" type="curve" smooth="yes"/>
      <point x="565" y="227"/>
      <point x="553" y="178"/>
      <point x="523" y="143" type="curve" smooth="yes"/>
      <point x="479" y="92"/>
      <point x="411" y="70"/>
      <point x="249" y="70" type="curve" smooth="yes"/>
      <point x="238" y="70" type="line" smooth="yes"/>
      <point x="168" y="70"/>
      <point x="131" y="59"/>
      <point x="103" y="40" type="curve" smooth="yes"/>
      <point x="65" y="16"/>
      <point x="50" y="-22"/>
      <point x="50" y="-68" type="curve" smooth="yes"/>
      <point x="50" y="-112"/>
      <point x="69" y="-147"/>
      <point x="106" y="-170" type="curve" smooth="yes"/>
      <point x="139" y="-190"/>
      <point x="186" y="-201"/>
      <point x="255" y="-201" type="curve" smooth="yes"/>
      <point x="633" y="-201" type="line"/>
      <point x="633" y="-129" type="line"/>
      <point x="259" y="-129" type="line" smooth="yes"/>
      <point x="203" y="-129"/>
      <point x="176" y="-122"/>
      <point x="159" y="-110" type="curve" smooth="yes"/>
      <point x="142" y="-99"/>
      <point x="136" y="-82"/>
      <point x="136" y="-62" type="curve" smooth="yes"/>
      <point x="136" y="-41"/>
      <point x="145" y="-23"/>
      <point x="166" y="-13" type="curve" smooth="yes"/>
      <point x="182" y="-4"/>
      <point x="206" y="0"/>
      <point x="261" y="0" type="curve" smooth="yes"/>
      <point x="263" y="0" type="line" smooth="yes"/>
      <point x="419" y="0"/>
      <point x="506" y="20"/>
      <point x="573" y="79" type="curve" smooth="yes"/>
      <point x="626" y="125"/>
      <point x="653" y="195"/>
      <point x="653" y="291" type="curve" smooth="yes"/>
      <point x="653" y="423"/>
      <point x="573" y="566"/>
    </contour>
  </outline>
</glyph>
<glyph name="rvocalicmlym" format="2">
  <advance width="871"/>
  <unicode hex="0D0B"/>
  <outline>
    <contour>
      <point x="656" y="566" type="curve" smooth="yes"/>
      <point x="531" y="566"/>
      <point x="476" y="489"/>
      <point x="476" y="405" type="curve" smooth="yes"/>
      <point x="476" y="324"/>
      <point x="524" y="251"/>
      <point x="633" y="251" type="curve" smooth="yes"/>
      <point x="724" y="251"/>
      <point x="773" y="298"/>
      <point x="806" y="338" type="curve"/>
      <point x="783" y="394" type="line"/>
      <point x="754" y="361"/>
      <point x="722" y="320"/>
      <point x="646" y="320" type="curve" smooth="yes"/>
      <point x="583" y="320"/>
      <point x="557" y="358"/>
      <point x="557" y="405" type="curve" smooth="yes"/>
      <point x="557" y="455"/>
      <point x="586" y="496"/>
      <point x="652" y="496" type="curve" smooth="yes"/>
      <point x="719" y="496"/>
      <point x="756" y="450"/>
      <point x="756" y="353" type="curve" smooth="yes"/>
      <point x="756" y="346"/>
      <point x="755" y="331"/>
      <point x="751" y="315" type="curve"/>
      <point x="756" y="301" type="line"/>
      <point x="714" y="187"/>
      <point x="641" y="156"/>
      <point x="444" y="156" type="curve" smooth="yes"/>
      <point x="420" y="156" type="line" smooth="yes"/>
      <point x="241" y="156"/>
      <point x="161" y="183"/>
      <point x="115" y="301" type="curve"/>
      <point x="120" y="315" type="line"/>
      <point x="116" y="331"/>
      <point x="115" y="346"/>
      <point x="115" y="362" type="curve" smooth="yes"/>
      <point x="115" y="443"/>
      <point x="149" y="496"/>
      <point x="224" y="496" type="curve" smooth="yes"/>
      <point x="285" y="496"/>
      <point x="314" y="455"/>
      <point x="314" y="405" type="curve" smooth="yes"/>
      <point x="314" y="358"/>
      <point x="289" y="320"/>
      <point x="225" y="320" type="curve" smooth="yes"/>
      <point x="147" y="320"/>
      <point x="117" y="364"/>
      <point x="88" y="400" type="curve"/>
      <point x="65" y="340" type="line"/>
      <point x="98" y="298"/>
      <point x="146" y="251"/>
      <point x="238" y="251" type="curve" smooth="yes"/>
      <point x="343" y="251"/>
      <point x="395" y="321"/>
      <point x="395" y="403" type="curve" smooth="yes"/>
      <point x="395" y="488"/>
      <point x="341" y="566"/>
      <point x="228" y="566" type="curve" smooth="yes"/>
      <point x="108" y="566"/>
      <point x="37" y="485"/>
      <point x="37" y="359" type="curve" smooth="yes"/>
      <point x="37" y="264"/>
      <point x="78" y="186"/>
      <point x="154" y="135" type="curve" smooth="yes"/>
      <point x="205" y="102"/>
      <point x="265" y="91"/>
      <point x="404" y="91" type="curve" smooth="yes"/>
      <point x="462" y="91" type="line" smooth="yes"/>
      <point x="610" y="91"/>
      <point x="685" y="108"/>
      <point x="739" y="152" type="curve" smooth="yes"/>
      <point x="802" y="203"/>
      <point x="834" y="270"/>
      <point x="834" y="362" type="curve" smooth="yes"/>
      <point x="834" y="488"/>
      <point x="764" y="566"/>
    </contour>
    <contour>
      <point x="439" y="-213" type="curve" smooth="yes"/>
      <point x="701" y="-213"/>
      <point x="801" y="-146"/>
      <point x="801" y="-28" type="curve" smooth="yes"/>
      <point x="801" y="93"/>
      <point x="653" y="134"/>
      <point x="493" y="134" type="curve" smooth="yes"/>
      <point x="373" y="134" type="line" smooth="yes"/>
      <point x="220" y="134"/>
      <point x="70" y="93"/>
      <point x="70" y="-25" type="curve" smooth="yes"/>
      <point x="70" y="-162"/>
      <point x="192" y="-213"/>
    </contour>
    <contour>
      <point x="438" y="-141" type="curve" smooth="yes"/>
      <point x="233" y="-141"/>
      <point x="157" y="-107"/>
      <point x="157" y="-27" type="curve" smooth="yes"/>
      <point x="157" y="63"/>
      <point x="277" y="84"/>
      <point x="429" y="84" type="curve" smooth="yes"/>
      <point x="437" y="84" type="line" smooth="yes"/>
      <point x="588" y="84"/>
      <point x="714" y="67"/>
      <point x="714" y="-28" type="curve" smooth="yes"/>
      <point x="714" y="-103"/>
      <point x="638" y="-141"/>
    </contour>
  </outline>
</glyph>
<glyph name="lvocalicmlym" format="2">
  <advance width="1167"/>
  <unicode hex="0D0C"/>
  <outline>
    <contour>
      <point x="358" y="566" type="curve" smooth="yes"/>
      <point x="182" y="566"/>
      <point x="42" y="452"/>
      <point x="42" y="241" type="curve" smooth="yes"/>
      <point x="42" y="63"/>
      <point x="135" y="-12"/>
      <point x="240" y="-12" type="curve" smooth="yes"/>
      <point x="343" y="-12"/>
      <point x="410" y="54"/>
      <point x="410" y="165" type="curve" smooth="yes"/>
      <point x="410" y="269"/>
      <point x="344" y="328"/>
      <point x="248" y="328" type="curve" smooth="yes"/>
      <point x="183" y="328"/>
      <point x="119" y="296"/>
      <point x="80" y="248" type="curve"/>
      <point x="95" y="186" type="line"/>
      <point x="134" y="229"/>
      <point x="181" y="258"/>
      <point x="233" y="258" type="curve" smooth="yes"/>
      <point x="289" y="258"/>
      <point x="327" y="223"/>
      <point x="327" y="157" type="curve" smooth="yes"/>
      <point x="327" y="93"/>
      <point x="292" y="58"/>
      <point x="242" y="58" type="curve" smooth="yes"/>
      <point x="170" y="58"/>
      <point x="123" y="115"/>
      <point x="123" y="228" type="curve" smooth="yes"/>
      <point x="123" y="239" type="line" smooth="yes"/>
      <point x="123" y="385"/>
      <point x="213" y="494"/>
      <point x="357" y="494" type="curve" smooth="yes"/>
      <point x="417" y="494"/>
      <point x="450" y="481"/>
      <point x="478" y="456" type="curve" smooth="yes"/>
      <point x="508" y="428"/>
      <point x="522" y="385"/>
      <point x="522" y="306" type="curve" smooth="yes"/>
      <point x="522" y="0" type="line"/>
      <point x="608" y="0" type="line"/>
      <point x="608" y="229" type="line"/>
      <point x="597" y="394" type="line"/>
      <point x="583" y="460" type="line"/>
      <point x="531" y="528"/>
      <point x="470" y="566"/>
    </contour>
    <contour>
      <point x="915" y="-12" type="curve" smooth="yes"/>
      <point x="1036" y="-12"/>
      <point x="1128" y="63"/>
      <point x="1128" y="242" type="curve" smooth="yes"/>
      <point x="1128" y="430"/>
      <point x="1017" y="566"/>
      <point x="799" y="566" type="curve" smooth="yes"/>
      <point x="671" y="566"/>
      <point x="606" y="518"/>
      <point x="556" y="454" type="curve"/>
      <point x="608" y="204" type="line"/>
      <point x="608" y="289" type="line" smooth="yes"/>
      <point x="608" y="381"/>
      <point x="629" y="420"/>
      <point x="661" y="451" type="curve" smooth="yes"/>
      <point x="695" y="482"/>
      <point x="742" y="494"/>
      <point x="799" y="494" type="curve" smooth="yes"/>
      <point x="948" y="494"/>
      <point x="1019" y="411"/>
      <point x="1035" y="335" type="curve" smooth="yes"/>
      <point x="1038" y="323"/>
      <point x="1038" y="309"/>
      <point x="1040" y="298" type="curve" smooth="yes"/>
      <point x="1043" y="279"/>
      <point x="1045" y="262"/>
      <point x="1045" y="248" type="curve" smooth="yes"/>
      <point x="1045" y="112"/>
      <point x="997" y="58"/>
      <point x="916" y="58" type="curve" smooth="yes"/>
      <point x="838" y="58"/>
      <point x="806" y="115"/>
      <point x="806" y="198" type="curve" smooth="yes"/>
      <point x="806" y="279"/>
      <point x="843" y="334"/>
      <point x="927" y="334" type="curve" smooth="yes"/>
      <point x="1007" y="334"/>
      <point x="1059" y="270"/>
      <point x="1074" y="209" type="curve"/>
      <point x="1099" y="206" type="line"/>
      <point x="1094" y="305"/>
      <point x="1021" y="404"/>
      <point x="910" y="404" type="curve" smooth="yes"/>
      <point x="795" y="404"/>
      <point x="722" y="322"/>
      <point x="722" y="196" type="curve" smooth="yes"/>
      <point x="722" y="86"/>
      <point x="786" y="-12"/>
    </contour>
  </outline>
</glyph>
<glyph name="emlym" format="2">
  <advance width="1273"/>
  <unicode hex="0D0E"/>
  <outline>
    <contour>
      <point x="229" y="346" type="curve" smooth="yes"/>
      <point x="110" y="346"/>
      <point x="32" y="271"/>
      <point x="32" y="166" type="curve" smooth="yes"/>
      <point x="32" y="90"/>
      <point x="72" y="33"/>
      <point x="129" y="-7" type="curve"/>
      <point x="175" y="51" type="line"/>
      <point x="133" y="80"/>
      <point x="116" y="118"/>
      <point x="116" y="164" type="curve" smooth="yes"/>
      <point x="116" y="226"/>
      <point x="158" y="276"/>
      <point x="229" y="276" type="curve" smooth="yes"/>
      <point x="304" y="276"/>
      <point x="343" y="230"/>
      <point x="343" y="158" type="curve" smooth="yes"/>
      <point x="343" y="109"/>
      <point x="326" y="78"/>
      <point x="299" y="52" type="curve"/>
      <point x="328" y="0" type="line"/>
      <point x="864" y="0" type="line"/>
      <point x="864" y="70" type="line"/>
      <point x="357" y="70" type="line"/>
      <point x="382" y="57" type="line"/>
      <point x="407" y="75"/>
      <point x="427" y="119"/>
      <point x="427" y="173" type="curve" smooth="yes"/>
      <point x="427" y="258"/>
      <point x="364" y="346"/>
    </contour>
    <contour>
      <point x="903" y="566" type="curve" smooth="yes"/>
      <point x="688" y="566"/>
      <point x="571" y="398"/>
      <point x="571" y="144" type="curve" smooth="yes"/>
      <point x="571" y="-107"/>
      <point x="665" y="-228"/>
      <point x="796" y="-228" type="curve" smooth="yes"/>
      <point x="844" y="-228"/>
      <point x="877" y="-213"/>
      <point x="900" y="-187" type="curve" smooth="yes"/>
      <point x="924" y="-159"/>
      <point x="935" y="-122"/>
      <point x="935" y="-56" type="curve" smooth="yes"/>
      <point x="935" y="406" type="line"/>
      <point x="848" y="406" type="line"/>
      <point x="848" y="-75" type="line" smooth="yes"/>
      <point x="848" y="-108"/>
      <point x="844" y="-127"/>
      <point x="836" y="-139" type="curve" smooth="yes"/>
      <point x="828" y="-151"/>
      <point x="814" y="-159"/>
      <point x="793" y="-159" type="curve" smooth="yes"/>
      <point x="735" y="-159"/>
      <point x="675" y="-107"/>
      <point x="665" y="32" type="curve"/>
      <point x="664" y="38"/>
      <point x="663" y="44"/>
      <point x="663" y="51" type="curve" smooth="yes"/>
      <point x="660" y="77"/>
      <point x="659" y="106"/>
      <point x="659" y="137" type="curve" smooth="yes"/>
      <point x="659" y="353"/>
      <point x="738" y="494"/>
      <point x="900" y="494" type="curve" smooth="yes"/>
      <point x="1083" y="494"/>
      <point x="1141" y="339"/>
      <point x="1141" y="178" type="curve" smooth="yes"/>
      <point x="1141" y="43"/>
      <point x="1103" y="-82"/>
      <point x="1014" y="-178" type="curve"/>
      <point x="1077" y="-228" type="line"/>
      <point x="1185" y="-116"/>
      <point x="1229" y="43"/>
      <point x="1229" y="176" type="curve" smooth="yes"/>
      <point x="1229" y="431"/>
      <point x="1107" y="566"/>
    </contour>
  </outline>
</glyph>
<glyph name="eemlym" format="2">
  <advance width="1272"/>
  <unicode hex="0D0F"/>
  <outline>
    <contour>
      <point x="229" y="346" type="curve" smooth="yes"/>
      <point x="110" y="346"/>
      <point x="32" y="271"/>
      <point x="32" y="166" type="curve" smooth="yes"/>
      <point x="32" y="90"/>
      <point x="72" y="33"/>
      <point x="129" y="-7" type="curve"/>
      <point x="175" y="51" type="line"/>
      <point x="133" y="81"/>
      <point x="116" y="119"/>
      <point x="116" y="164" type="curve" smooth="yes"/>
      <point x="116" y="225"/>
      <point x="158" y="276"/>
      <point x="229" y="276" type="curve" smooth="yes"/>
      <point x="304" y="276"/>
      <point x="343" y="230"/>
      <point x="343" y="158" type="curve" smooth="yes"/>
      <point x="343" y="109"/>
      <point x="326" y="78"/>
      <point x="299" y="52" type="curve"/>
      <point x="328" y="0" type="line"/>
      <point x="864" y="0" type="line"/>
      <point x="864" y="70" type="line"/>
      <point x="357" y="70" type="line"/>
      <point x="382" y="57" type="line"/>
      <point x="407" y="75"/>
      <point x="427" y="119"/>
      <point x="427" y="173" type="curve" smooth="yes"/>
      <point x="427" y="258"/>
      <point x="364" y="346"/>
    </contour>
    <contour>
      <point x="945" y="566" type="curve" smooth="yes"/>
      <point x="693" y="566"/>
      <point x="571" y="391"/>
      <point x="571" y="144" type="curve" smooth="yes"/>
      <point x="571" y="-107"/>
      <point x="665" y="-228"/>
      <point x="796" y="-228" type="curve" smooth="yes"/>
      <point x="844" y="-228"/>
      <point x="877" y="-213"/>
      <point x="900" y="-187" type="curve" smooth="yes"/>
      <point x="924" y="-159"/>
      <point x="935" y="-122"/>
      <point x="935" y="-56" type="curve" smooth="yes"/>
      <point x="935" y="406" type="line"/>
      <point x="848" y="406" type="line"/>
      <point x="848" y="-75" type="line" smooth="yes"/>
      <point x="848" y="-108"/>
      <point x="844" y="-127"/>
      <point x="836" y="-139" type="curve" smooth="yes"/>
      <point x="828" y="-151"/>
      <point x="814" y="-159"/>
      <point x="793" y="-159" type="curve" smooth="yes"/>
      <point x="735" y="-159"/>
      <point x="675" y="-107"/>
      <point x="665" y="32" type="curve"/>
      <point x="664" y="39"/>
      <point x="663" y="44"/>
      <point x="663" y="51" type="curve" smooth="yes"/>
      <point x="660" y="76"/>
      <point x="659" y="107"/>
      <point x="659" y="137" type="curve" smooth="yes"/>
      <point x="659" y="347"/>
      <point x="739" y="494"/>
      <point x="944" y="494" type="curve" smooth="yes"/>
      <point x="1090" y="494"/>
      <point x="1141" y="413"/>
      <point x="1141" y="332" type="curve" smooth="yes"/>
      <point x="1141" y="237"/>
      <point x="1091" y="192"/>
      <point x="1002" y="173" type="curve"/>
      <point x="1002" y="104" type="line"/>
      <point x="1103" y="104"/>
      <point x="1151" y="45"/>
      <point x="1151" y="-34" type="curve" smooth="yes"/>
      <point x="1151" y="-113"/>
      <point x="1111" y="-157"/>
      <point x="1037" y="-157" type="curve" smooth="yes"/>
      <point x="1024" y="-157"/>
      <point x="999" y="-155"/>
      <point x="982" y="-151" type="curve"/>
      <point x="965" y="-220" type="line"/>
      <point x="984" y="-225"/>
      <point x="1022" y="-228"/>
      <point x="1042" y="-228" type="curve" smooth="yes"/>
      <point x="1159" y="-228"/>
      <point x="1239" y="-166"/>
      <point x="1239" y="-36" type="curve" smooth="yes"/>
      <point x="1239" y="61"/>
      <point x="1187" y="118"/>
      <point x="1107" y="146" type="curve"/>
      <point x="1104" y="141" type="line"/>
      <point x="1175" y="175"/>
      <point x="1229" y="238"/>
      <point x="1229" y="332" type="curve" smooth="yes"/>
      <point x="1229" y="451"/>
      <point x="1151" y="566"/>
    </contour>
  </outline>
</glyph>
<glyph name="omlym" format="2">
  <advance width="757"/>
  <unicode hex="0D12"/>
  <outline>
    <contour>
      <point x="448" y="566" type="curve" smooth="yes"/>
      <point x="191" y="566"/>
      <point x="39" y="430"/>
      <point x="39" y="229" type="curve" smooth="yes"/>
      <point x="39" y="65"/>
      <point x="132" y="-12"/>
      <point x="237" y="-12" type="curve" smooth="yes"/>
      <point x="341" y="-12"/>
      <point x="408" y="54"/>
      <point x="408" y="165" type="curve" smooth="yes"/>
      <point x="408" y="269"/>
      <point x="342" y="328"/>
      <point x="245" y="328" type="curve" smooth="yes"/>
      <point x="198" y="328"/>
      <point x="150" y="310"/>
      <point x="113" y="283" type="curve"/>
      <point x="109" y="201" type="line"/>
      <point x="143" y="236"/>
      <point x="185" y="258"/>
      <point x="231" y="258" type="curve" smooth="yes"/>
      <point x="286" y="258"/>
      <point x="325" y="222"/>
      <point x="325" y="157" type="curve" smooth="yes"/>
      <point x="325" y="94"/>
      <point x="290" y="58"/>
      <point x="239" y="58" type="curve" smooth="yes"/>
      <point x="167" y="58"/>
      <point x="120" y="116"/>
      <point x="120" y="225" type="curve" smooth="yes"/>
      <point x="120" y="233" type="line" smooth="yes"/>
      <point x="120" y="381"/>
      <point x="244" y="494"/>
      <point x="445" y="494" type="curve" smooth="yes"/>
      <point x="571" y="494"/>
      <point x="620" y="455"/>
      <point x="620" y="399" type="curve" smooth="yes"/>
      <point x="620" y="374"/>
      <point x="613" y="356"/>
      <point x="597" y="341" type="curve" smooth="yes"/>
      <point x="574" y="319"/>
      <point x="533" y="310"/>
      <point x="492" y="310" type="curve" smooth="yes"/>
      <point x="468" y="310" type="line"/>
      <point x="468" y="240" type="line"/>
      <point x="490" y="240" type="line" smooth="yes"/>
      <point x="554" y="240"/>
      <point x="579" y="228"/>
      <point x="601" y="210" type="curve" smooth="yes"/>
      <point x="622" y="192"/>
      <point x="631" y="169"/>
      <point x="631" y="144" type="curve" smooth="yes"/>
      <point x="631" y="83"/>
      <point x="595" y="59"/>
      <point x="529" y="59" type="curve" smooth="yes"/>
      <point x="504" y="59"/>
      <point x="483" y="63"/>
      <point x="459" y="69" type="curve"/>
      <point x="441" y="0" type="line"/>
      <point x="466" y="-6"/>
      <point x="501" y="-11"/>
      <point x="539" y="-11" type="curve" smooth="yes"/>
      <point x="651" y="-11"/>
      <point x="718" y="45"/>
      <point x="718" y="140" type="curve" smooth="yes"/>
      <point x="718" y="206"/>
      <point x="677" y="259"/>
      <point x="601" y="280" type="curve"/>
      <point x="605" y="274" type="line"/>
      <point x="677" y="301"/>
      <point x="707" y="347"/>
      <point x="707" y="404" type="curve" smooth="yes"/>
      <point x="707" y="498"/>
      <point x="639" y="566"/>
    </contour>
  </outline>
</glyph>
<glyph name="kamlym" format="2">
  <advance width="1038"/>
  <unicode hex="0D15"/>
  <outline>
    <contour>
      <point x="216" y="-12" type="curve" smooth="yes"/>
      <point x="289" y="-12"/>
      <point x="342" y="9"/>
      <point x="402" y="52" type="curve"/>
      <point x="352" y="106" type="line"/>
      <point x="304" y="70"/>
      <point x="261" y="58"/>
      <point x="219" y="58" type="curve" smooth="yes"/>
      <point x="158" y="58"/>
      <point x="118" y="88"/>
      <point x="118" y="154" type="curve" smooth="yes"/>
      <point x="118" y="189"/>
      <point x="133" y="214"/>
      <point x="157" y="229" type="curve" smooth="yes"/>
      <point x="194" y="253"/>
      <point x="236" y="258"/>
      <point x="331" y="258" type="curve" smooth="yes"/>
      <point x="708" y="258" type="line" smooth="yes"/>
      <point x="792" y="258"/>
      <point x="843" y="253"/>
      <point x="880" y="229" type="curve" smooth="yes"/>
      <point x="904" y="213"/>
      <point x="920" y="189"/>
      <point x="920" y="151" type="curve" smooth="yes"/>
      <point x="920" y="89"/>
      <point x="887" y="58"/>
      <point x="819" y="58" type="curve" smooth="yes"/>
      <point x="797" y="58"/>
      <point x="769" y="62"/>
      <point x="750" y="67" type="curve"/>
      <point x="731" y="0" type="line"/>
      <point x="762" y="-9"/>
      <point x="799" y="-12"/>
      <point x="832" y="-12" type="curve" smooth="yes"/>
      <point x="944" y="-12"/>
      <point x="1006" y="50"/>
      <point x="1006" y="152" type="curve" smooth="yes"/>
      <point x="1006" y="214"/>
      <point x="980" y="255"/>
      <point x="942" y="282" type="curve" smooth="yes"/>
      <point x="893" y="317"/>
      <point x="830" y="328"/>
      <point x="716" y="328" type="curve" smooth="yes"/>
      <point x="333" y="328" type="line" smooth="yes"/>
      <point x="216" y="328"/>
      <point x="157" y="316"/>
      <point x="109" y="288" type="curve" smooth="yes"/>
      <point x="62" y="261"/>
      <point x="32" y="214"/>
      <point x="32" y="152" type="curve" smooth="yes"/>
      <point x="32" y="50"/>
      <point x="96" y="-12"/>
    </contour>
    <contour>
      <point x="523" y="566" type="curve" smooth="yes"/>
      <point x="377" y="566"/>
      <point x="288" y="457"/>
      <point x="288" y="279" type="curve" smooth="yes"/>
      <point x="288" y="184"/>
      <point x="311" y="111"/>
      <point x="352" y="62" type="curve" smooth="yes"/>
      <point x="393" y="13"/>
      <point x="452" y="-12"/>
      <point x="524" y="-12" type="curve" smooth="yes"/>
      <point x="667" y="-12"/>
      <point x="756" y="90"/>
      <point x="756" y="279" type="curve" smooth="yes"/>
      <point x="756" y="444"/>
      <point x="683" y="566"/>
    </contour>
    <contour>
      <point x="523" y="496" type="curve" smooth="yes"/>
      <point x="619" y="496"/>
      <point x="670" y="428"/>
      <point x="670" y="278" type="curve" smooth="yes"/>
      <point x="670" y="127"/>
      <point x="618" y="58"/>
      <point x="521" y="58" type="curve" smooth="yes"/>
      <point x="424" y="58"/>
      <point x="374" y="130"/>
      <point x="374" y="278" type="curve" smooth="yes"/>
      <point x="374" y="424"/>
      <point x="422" y="496"/>
    </contour>
  </outline>
</glyph>
<glyph name="khamlym" format="2">
  <advance width="1000"/>
  <unicode hex="0D16"/>
  <outline>
    <contour>
      <point x="374" y="566" type="curve" smooth="yes"/>
      <point x="185" y="566"/>
      <point x="39" y="439"/>
      <point x="39" y="232" type="curve" smooth="yes"/>
      <point x="39" y="65"/>
      <point x="132" y="-12"/>
      <point x="237" y="-12" type="curve" smooth="yes"/>
      <point x="341" y="-12"/>
      <point x="408" y="54"/>
      <point x="408" y="165" type="curve" smooth="yes"/>
      <point x="408" y="269"/>
      <point x="342" y="328"/>
      <point x="245" y="328" type="curve" smooth="yes"/>
      <point x="198" y="328"/>
      <point x="150" y="310"/>
      <point x="113" y="283" type="curve"/>
      <point x="109" y="201" type="line"/>
      <point x="143" y="236"/>
      <point x="185" y="258"/>
      <point x="231" y="258" type="curve" smooth="yes"/>
      <point x="286" y="258"/>
      <point x="325" y="222"/>
      <point x="325" y="158" type="curve" smooth="yes"/>
      <point x="325" y="94"/>
      <point x="290" y="58"/>
      <point x="239" y="58" type="curve" smooth="yes"/>
      <point x="167" y="58"/>
      <point x="120" y="116"/>
      <point x="120" y="225" type="curve" smooth="yes"/>
      <point x="120" y="237" type="line" smooth="yes"/>
      <point x="120" y="380"/>
      <point x="226" y="494"/>
      <point x="370" y="494" type="curve" smooth="yes"/>
      <point x="505" y="494"/>
      <point x="587" y="407"/>
      <point x="587" y="271" type="curve" smooth="yes"/>
      <point x="587" y="164"/>
      <point x="534" y="106"/>
      <point x="476" y="54" type="curve"/>
      <point x="512" y="0" type="line"/>
      <point x="585" y="0" type="line"/>
      <point x="592" y="64" type="line"/>
      <point x="641" y="117"/>
      <point x="676" y="183"/>
      <point x="676" y="281" type="curve" smooth="yes"/>
      <point x="676" y="439"/>
      <point x="582" y="566"/>
    </contour>
    <contour>
      <point x="929" y="554" type="line"/>
      <point x="843" y="554" type="line"/>
      <point x="843" y="70" type="line"/>
      <point x="558" y="70" type="line"/>
      <point x="546" y="0" type="line"/>
      <point x="929" y="0" type="line"/>
    </contour>
  </outline>
</glyph>
<glyph name="gamlym" format="2">
  <advance width="897"/>
  <unicode hex="0D17"/>
  <outline>
    <contour>
      <point x="622" y="566" type="curve" smooth="yes"/>
      <point x="541" y="566"/>
      <point x="492" y="543"/>
      <point x="454" y="499" type="curve" smooth="yes"/>
      <point x="420" y="459"/>
      <point x="404" y="404"/>
      <point x="404" y="313" type="curve" smooth="yes"/>
      <point x="404" y="300" type="line" smooth="yes"/>
      <point x="404" y="194"/>
      <point x="399" y="140"/>
      <point x="377" y="106" type="curve" smooth="yes"/>
      <point x="358" y="78"/>
      <point x="332" y="60"/>
      <point x="274" y="60" type="curve" smooth="yes"/>
      <point x="185" y="60"/>
      <point x="127" y="141"/>
      <point x="127" y="265" type="curve" smooth="yes"/>
      <point x="127" y="379"/>
      <point x="177" y="455"/>
      <point x="248" y="504" type="curve"/>
      <point x="194" y="566" type="line"/>
      <point x="93" y="487"/>
      <point x="39" y="398"/>
      <point x="39" y="263" type="curve" smooth="yes"/>
      <point x="39" y="90"/>
      <point x="131" y="-12"/>
      <point x="278" y="-12" type="curve" smooth="yes"/>
      <point x="354" y="-12"/>
      <point x="404" y="11"/>
      <point x="439" y="51" type="curve" smooth="yes"/>
      <point x="477" y="95"/>
      <point x="492" y="148"/>
      <point x="492" y="243" type="curve" smooth="yes"/>
      <point x="492" y="252" type="line" smooth="yes"/>
      <point x="492" y="366"/>
      <point x="499" y="414"/>
      <point x="521" y="447" type="curve" smooth="yes"/>
      <point x="539" y="473"/>
      <point x="568" y="494"/>
      <point x="620" y="494" type="curve" smooth="yes"/>
      <point x="712" y="494"/>
      <point x="770" y="412"/>
      <point x="770" y="290" type="curve" smooth="yes"/>
      <point x="770" y="175"/>
      <point x="720" y="103"/>
      <point x="649" y="53" type="curve"/>
      <point x="703" y="-8" type="line"/>
      <point x="804" y="70"/>
      <point x="858" y="160"/>
      <point x="858" y="293" type="curve" smooth="yes"/>
      <point x="858" y="458"/>
      <point x="766" y="566"/>
    </contour>
  </outline>
</glyph>
<glyph name="ghamlym" format="2">
  <advance width="1325"/>
  <unicode hex="0D18"/>
  <outline>
    <contour>
      <point x="229" y="566" type="curve" smooth="yes"/>
      <point x="110" y="566"/>
      <point x="32" y="492"/>
      <point x="32" y="387" type="curve" smooth="yes"/>
      <point x="32" y="312"/>
      <point x="72" y="255"/>
      <point x="129" y="215" type="curve"/>
      <point x="175" y="273" type="line"/>
      <point x="133" y="302"/>
      <point x="116" y="340"/>
      <point x="116" y="385" type="curve" smooth="yes"/>
      <point x="116" y="445"/>
      <point x="156" y="496"/>
      <point x="229" y="496" type="curve" smooth="yes"/>
      <point x="304" y="496"/>
      <point x="343" y="451"/>
      <point x="343" y="379" type="curve" smooth="yes"/>
      <point x="343" y="331"/>
      <point x="326" y="299"/>
      <point x="299" y="274" type="curve"/>
      <point x="328" y="222" type="line"/>
      <point x="573" y="222" type="line"/>
      <point x="556" y="292" type="line"/>
      <point x="357" y="292" type="line"/>
      <point x="382" y="279" type="line"/>
      <point x="407" y="297"/>
      <point x="427" y="341"/>
      <point x="427" y="392" type="curve" smooth="yes"/>
      <point x="427" y="479"/>
      <point x="364" y="566"/>
    </contour>
    <contour>
      <point x="1254" y="554" type="line"/>
      <point x="1168" y="554" type="line"/>
      <point x="1168" y="70" type="line"/>
      <point x="615" y="70" type="line"/>
      <point x="615" y="222" type="line"/>
      <point x="1010" y="222" type="line"/>
      <point x="1010" y="322" type="line" smooth="yes"/>
      <point x="1010" y="403"/>
      <point x="991" y="465"/>
      <point x="949" y="507" type="curve" smooth="yes"/>
      <point x="910" y="545"/>
      <point x="851" y="566"/>
      <point x="771" y="566" type="curve" smooth="yes"/>
      <point x="693" y="566"/>
      <point x="634" y="545"/>
      <point x="592" y="504" type="curve" smooth="yes"/>
      <point x="552" y="465"/>
      <point x="529" y="411"/>
      <point x="529" y="313" type="curve" smooth="yes"/>
      <point x="529" y="0" type="line"/>
      <point x="1254" y="0" type="line"/>
    </contour>
    <contour>
      <point x="770" y="496" type="curve" smooth="yes"/>
      <point x="877" y="496"/>
      <point x="924" y="446"/>
      <point x="924" y="320" type="curve" smooth="yes"/>
      <point x="924" y="292" type="line"/>
      <point x="615" y="292" type="line"/>
      <point x="615" y="321" type="line" smooth="yes"/>
      <point x="615" y="443"/>
      <point x="662" y="496"/>
    </contour>
  </outline>
</glyph>
<glyph name="ngamlym" format="2">
  <advance width="1065"/>
  <unicode hex="0D19"/>
  <outline>
    <contour>
      <point x="358" y="566" type="curve" smooth="yes"/>
      <point x="182" y="566"/>
      <point x="42" y="452"/>
      <point x="42" y="241" type="curve" smooth="yes"/>
      <point x="42" y="63"/>
      <point x="135" y="-12"/>
      <point x="240" y="-12" type="curve" smooth="yes"/>
      <point x="343" y="-12"/>
      <point x="410" y="54"/>
      <point x="410" y="165" type="curve" smooth="yes"/>
      <point x="410" y="269"/>
      <point x="344" y="328"/>
      <point x="248" y="328" type="curve" smooth="yes"/>
      <point x="183" y="328"/>
      <point x="119" y="296"/>
      <point x="80" y="248" type="curve"/>
      <point x="95" y="186" type="line"/>
      <point x="134" y="229"/>
      <point x="181" y="258"/>
      <point x="233" y="258" type="curve" smooth="yes"/>
      <point x="289" y="258"/>
      <point x="327" y="223"/>
      <point x="327" y="157" type="curve" smooth="yes"/>
      <point x="327" y="93"/>
      <point x="292" y="58"/>
      <point x="242" y="58" type="curve" smooth="yes"/>
      <point x="170" y="58"/>
      <point x="123" y="115"/>
      <point x="123" y="228" type="curve" smooth="yes"/>
      <point x="123" y="239" type="line" smooth="yes"/>
      <point x="123" y="385"/>
      <point x="213" y="494"/>
      <point x="357" y="494" type="curve" smooth="yes"/>
      <point x="417" y="494"/>
      <point x="450" y="481"/>
      <point x="478" y="456" type="curve" smooth="yes"/>
      <point x="508" y="428"/>
      <point x="522" y="385"/>
      <point x="522" y="306" type="curve" smooth="yes"/>
      <point x="522" y="0" type="line"/>
      <point x="608" y="0" type="line"/>
      <point x="608" y="229" type="line"/>
      <point x="595" y="386" type="line"/>
      <point x="583" y="460" type="line"/>
      <point x="531" y="528"/>
      <point x="470" y="566"/>
    </contour>
    <contour>
      <point x="803" y="566" type="curve" smooth="yes"/>
      <point x="688" y="566"/>
      <point x="602" y="512"/>
      <point x="564" y="438" type="curve"/>
      <point x="532" y="243" type="line"/>
      <point x="532" y="80" type="line"/>
      <point x="608" y="80" type="line"/>
      <point x="608" y="243" type="line" smooth="yes"/>
      <point x="608" y="361"/>
      <point x="629" y="405"/>
      <point x="661" y="440" type="curve" smooth="yes"/>
      <point x="692" y="473"/>
      <point x="739" y="494"/>
      <point x="803" y="494" type="curve" smooth="yes"/>
      <point x="879" y="494"/>
      <point x="928" y="463"/>
      <point x="928" y="403" type="curve" smooth="yes"/>
      <point x="928" y="376"/>
      <point x="920" y="355"/>
      <point x="904" y="341" type="curve"/>
      <point x="881" y="318"/>
      <point x="841" y="310"/>
      <point x="791" y="310" type="curve" smooth="yes"/>
      <point x="766" y="310" type="line"/>
      <point x="766" y="240" type="line"/>
      <point x="791" y="240" type="line" smooth="yes"/>
      <point x="862" y="240"/>
      <point x="887" y="228"/>
      <point x="909" y="210" type="curve" smooth="yes"/>
      <point x="930" y="192"/>
      <point x="939" y="169"/>
      <point x="939" y="144" type="curve" smooth="yes"/>
      <point x="939" y="83"/>
      <point x="903" y="59"/>
      <point x="837" y="59" type="curve" smooth="yes"/>
      <point x="812" y="59"/>
      <point x="793" y="63"/>
      <point x="767" y="69" type="curve"/>
      <point x="749" y="0" type="line"/>
      <point x="775" y="-6"/>
      <point x="806" y="-11"/>
      <point x="847" y="-11" type="curve" smooth="yes"/>
      <point x="959" y="-11"/>
      <point x="1026" y="46"/>
      <point x="1026" y="140" type="curve" smooth="yes"/>
      <point x="1026" y="207"/>
      <point x="986" y="258"/>
      <point x="909" y="280" type="curve"/>
      <point x="913" y="274" type="line"/>
      <point x="985" y="303"/>
      <point x="1015" y="347"/>
      <point x="1015" y="411" type="curve" smooth="yes"/>
      <point x="1015" y="498"/>
      <point x="940" y="566"/>
    </contour>
  </outline>
</glyph>
<glyph name="camlym" format="2">
  <advance width="933"/>
  <unicode hex="0D1A"/>
  <outline>
    <contour>
      <point x="862" y="554" type="line"/>
      <point x="776" y="554" type="line"/>
      <point x="776" y="70" type="line"/>
      <point x="460" y="70" type="line"/>
      <point x="485" y="54" type="line"/>
      <point x="513" y="82"/>
      <point x="539" y="127"/>
      <point x="539" y="185" type="curve" smooth="yes"/>
      <point x="539" y="275"/>
      <point x="487" y="365"/>
      <point x="354" y="365" type="curve" smooth="yes"/>
      <point x="236" y="365"/>
      <point x="161" y="296"/>
      <point x="161" y="194" type="curve" smooth="yes"/>
      <point x="161" y="172"/>
      <point x="164" y="148"/>
      <point x="167" y="135" type="curve"/>
      <point x="250" y="146" type="line"/>
      <point x="248" y="155"/>
      <point x="247" y="167"/>
      <point x="247" y="185" type="curve" smooth="yes"/>
      <point x="247" y="252"/>
      <point x="283" y="295"/>
      <point x="351" y="295" type="curve" smooth="yes"/>
      <point x="419" y="295"/>
      <point x="455" y="248"/>
      <point x="455" y="179" type="curve" smooth="yes"/>
      <point x="455" y="115"/>
      <point x="421" y="77"/>
      <point x="394" y="58" type="curve"/>
      <point x="448" y="70" type="line"/>
      <point x="17" y="70" type="line"/>
      <point x="17" y="0" type="line"/>
      <point x="862" y="0" type="line"/>
    </contour>
  </outline>
</glyph>
<glyph name="chamlym" format="2">
  <advance width="1349"/>
  <unicode hex="0D1B"/>
  <outline>
    <contour>
      <point x="354" y="365" type="curve" smooth="yes"/>
      <point x="236" y="365"/>
      <point x="161" y="296"/>
      <point x="161" y="194" type="curve" smooth="yes"/>
      <point x="161" y="172"/>
      <point x="164" y="148"/>
      <point x="167" y="135" type="curve"/>
      <point x="250" y="146" type="line"/>
      <point x="248" y="155"/>
      <point x="247" y="167"/>
      <point x="247" y="185" type="curve" smooth="yes"/>
      <point x="247" y="252"/>
      <point x="283" y="295"/>
      <point x="351" y="295" type="curve" smooth="yes"/>
      <point x="419" y="295"/>
      <point x="455" y="248"/>
      <point x="455" y="179" type="curve" smooth="yes"/>
      <point x="455" y="115"/>
      <point x="421" y="77"/>
      <point x="394" y="58" type="curve"/>
      <point x="448" y="70" type="line"/>
      <point x="17" y="70" type="line"/>
      <point x="17" y="0" type="line"/>
      <point x="790" y="0" type="line"/>
      <point x="775" y="70" type="line"/>
      <point x="460" y="70" type="line"/>
      <point x="485" y="54" type="line"/>
      <point x="513" y="82"/>
      <point x="539" y="127"/>
      <point x="539" y="185" type="curve" smooth="yes"/>
      <point x="539" y="275"/>
      <point x="487" y="365"/>
    </contour>
    <contour>
      <point x="977" y="566" type="curve" smooth="yes"/>
      <point x="750" y="566"/>
      <point x="652" y="427"/>
      <point x="652" y="277" type="curve" smooth="yes"/>
      <point x="652" y="172"/>
      <point x="705" y="90"/>
      <point x="758" y="43" type="curve"/>
      <point x="774" y="0" type="line"/>
      <point x="816" y="0" type="line"/>
      <point x="852" y="54" type="line"/>
      <point x="794" y="106"/>
      <point x="741" y="161"/>
      <point x="741" y="273" type="curve" smooth="yes"/>
      <point x="741" y="414"/>
      <point x="832" y="494"/>
      <point x="977" y="494" type="curve" smooth="yes"/>
      <point x="1118" y="494"/>
      <point x="1198" y="420"/>
      <point x="1217" y="335" type="curve"/>
      <point x="1220" y="330"/>
      <point x="1218" y="317"/>
      <point x="1220" y="310" type="curve" smooth="yes"/>
      <point x="1225" y="283"/>
      <point x="1227" y="251"/>
      <point x="1227" y="248" type="curve" smooth="yes"/>
      <point x="1227" y="112"/>
      <point x="1179" y="58"/>
      <point x="1098" y="58" type="curve" smooth="yes"/>
      <point x="1020" y="58"/>
      <point x="988" y="115"/>
      <point x="988" y="198" type="curve" smooth="yes"/>
      <point x="988" y="279"/>
      <point x="1025" y="334"/>
      <point x="1108" y="334" type="curve" smooth="yes"/>
      <point x="1188" y="334"/>
      <point x="1241" y="270"/>
      <point x="1256" y="209" type="curve"/>
      <point x="1281" y="206" type="line"/>
      <point x="1276" y="305"/>
      <point x="1203" y="404"/>
      <point x="1091" y="404" type="curve" smooth="yes"/>
      <point x="977" y="404"/>
      <point x="904" y="322"/>
      <point x="904" y="196" type="curve" smooth="yes"/>
      <point x="904" y="86"/>
      <point x="968" y="-12"/>
      <point x="1098" y="-12" type="curve" smooth="yes"/>
      <point x="1218" y="-12"/>
      <point x="1310" y="63"/>
      <point x="1310" y="242" type="curve" smooth="yes"/>
      <point x="1310" y="429"/>
      <point x="1199" y="566"/>
    </contour>
  </outline>
</glyph>
<glyph name="jamlym" format="2">
  <advance width="939"/>
  <unicode hex="0D1C"/>
  <outline>
    <contour>
      <point x="297" y="566" type="curve" smooth="yes"/>
      <point x="131" y="566"/>
      <point x="43" y="486"/>
      <point x="43" y="385" type="curve" smooth="yes"/>
      <point x="43" y="292"/>
      <point x="97" y="240"/>
      <point x="195" y="240" type="curve" smooth="yes"/>
      <point x="299" y="240"/>
      <point x="342" y="299"/>
      <point x="342" y="366" type="curve" smooth="yes"/>
      <point x="342" y="424"/>
      <point x="305" y="478"/>
      <point x="212" y="478" type="curve" smooth="yes"/>
      <point x="156" y="478"/>
      <point x="108" y="451"/>
      <point x="75" y="415" type="curve"/>
      <point x="71" y="373" type="line"/>
      <point x="96" y="401"/>
      <point x="137" y="430"/>
      <point x="192" y="430" type="curve" smooth="yes"/>
      <point x="242" y="430"/>
      <point x="266" y="407"/>
      <point x="266" y="367" type="curve" smooth="yes"/>
      <point x="266" y="335"/>
      <point x="250" y="300"/>
      <point x="194" y="300" type="curve" smooth="yes"/>
      <point x="147" y="300"/>
      <point x="115" y="322"/>
      <point x="115" y="381" type="curve" smooth="yes"/>
      <point x="115" y="398"/>
      <point x="117" y="409"/>
      <point x="124" y="430" type="curve"/>
      <point x="126" y="439"/>
      <point x="130" y="450"/>
      <point x="136" y="456" type="curve"/>
      <point x="172" y="489"/>
      <point x="219" y="499"/>
      <point x="294" y="499" type="curve" smooth="yes"/>
      <point x="360" y="499"/>
      <point x="393" y="486"/>
      <point x="417" y="467" type="curve" smooth="yes"/>
      <point x="458" y="433"/>
      <point x="467" y="381"/>
      <point x="467" y="323" type="curve" smooth="yes"/>
      <point x="467" y="259" type="line"/>
      <point x="550" y="259" type="line"/>
      <point x="550" y="310" type="line" smooth="yes"/>
      <point x="550" y="392"/>
      <point x="558" y="431"/>
      <point x="582" y="459" type="curve" smooth="yes"/>
      <point x="602" y="483"/>
      <point x="634" y="496"/>
      <point x="677" y="496" type="curve" smooth="yes"/>
      <point x="781" y="496"/>
      <point x="813" y="427"/>
      <point x="813" y="373" type="curve" smooth="yes"/>
      <point x="813" y="332"/>
      <point x="801" y="299"/>
      <point x="775" y="276" type="curve" smooth="yes"/>
      <point x="740" y="245"/>
      <point x="683" y="233"/>
      <point x="572" y="233" type="curve" smooth="yes"/>
      <point x="225" y="233" type="line" smooth="yes"/>
      <point x="152" y="233"/>
      <point x="116" y="223"/>
      <point x="89" y="206" type="curve" smooth="yes"/>
      <point x="53" y="184"/>
      <point x="38" y="149"/>
      <point x="38" y="113" type="curve" smooth="yes"/>
      <point x="38" y="18"/>
      <point x="117" y="-12"/>
      <point x="199" y="-12" type="curve" smooth="yes"/>
      <point x="304" y="-12"/>
      <point x="408" y="24"/>
      <point x="520" y="81" type="curve" smooth="yes"/>
      <point x="568" y="105"/>
      <point x="600" y="129"/>
      <point x="626" y="155" type="curve"/>
      <point x="632" y="146" type="line"/>
      <point x="661" y="168"/>
      <point x="687" y="181"/>
      <point x="722" y="181" type="curve" smooth="yes"/>
      <point x="758" y="181"/>
      <point x="797" y="166"/>
      <point x="797" y="115" type="curve" smooth="yes"/>
      <point x="797" y="80"/>
      <point x="778" y="50"/>
      <point x="725" y="50" type="curve" smooth="yes"/>
      <point x="678" y="50"/>
      <point x="645" y="72"/>
      <point x="645" y="124" type="curve" smooth="yes"/>
      <point x="645" y="176"/>
      <point x="669" y="204"/>
      <point x="690" y="217" type="curve"/>
      <point x="638" y="198" type="line"/>
      <point x="600" y="186"/>
      <point x="576" y="158"/>
      <point x="576" y="119" type="curve" smooth="yes"/>
      <point x="576" y="56"/>
      <point x="612" y="-12"/>
      <point x="726" y="-12" type="curve" smooth="yes"/>
      <point x="818" y="-12"/>
      <point x="873" y="33"/>
      <point x="873" y="115" type="curve" smooth="yes"/>
      <point x="873" y="197"/>
      <point x="809" y="229"/>
      <point x="735" y="229" type="curve" smooth="yes"/>
      <point x="690" y="229"/>
      <point x="681" y="209"/>
      <point x="621" y="188" type="curve"/>
      <point x="560" y="173"/>
      <point x="504" y="147"/>
      <point x="444" y="121" type="curve" smooth="yes"/>
      <point x="374" y="90"/>
      <point x="291" y="56"/>
      <point x="199" y="56" type="curve" smooth="yes"/>
      <point x="168" y="56"/>
      <point x="121" y="63"/>
      <point x="121" y="114" type="curve" smooth="yes"/>
      <point x="121" y="132"/>
      <point x="128" y="146"/>
      <point x="149" y="156" type="curve" smooth="yes"/>
      <point x="165" y="163"/>
      <point x="188" y="166"/>
      <point x="242" y="166" type="curve" smooth="yes"/>
      <point x="439" y="166" type="line" smooth="yes"/>
      <point x="477" y="166"/>
      <point x="537" y="168"/>
      <point x="574" y="173" type="curve"/>
      <point x="636" y="181" type="line"/>
      <point x="801" y="216" type="line"/>
      <point x="867" y="250"/>
      <point x="899" y="296"/>
      <point x="899" y="377" type="curve" smooth="yes"/>
      <point x="899" y="470"/>
      <point x="833" y="566"/>
      <point x="685" y="566" type="curve" smooth="yes"/>
      <point x="590" y="566"/>
      <point x="541" y="526"/>
      <point x="501" y="470" type="curve"/>
      <point x="531" y="458" type="line"/>
      <point x="476" y="535"/>
      <point x="407" y="566"/>
    </contour>
  </outline>
</glyph>
<glyph name="jhamlym" format="2">
  <advance width="1655"/>
  <unicode hex="0D1D"/>
  <outline>
    <contour>
      <point x="652" y="566" type="curve" smooth="yes"/>
      <point x="601" y="566"/>
      <point x="540" y="554"/>
      <point x="480" y="521" type="curve"/>
      <point x="462" y="503" type="line"/>
      <point x="368" y="445"/>
      <point x="303" y="350"/>
      <point x="303" y="219" type="curve" smooth="yes"/>
      <point x="303" y="77"/>
      <point x="376" y="-12"/>
      <point x="507" y="-12" type="curve" smooth="yes"/>
      <point x="638" y="-12"/>
      <point x="711" y="76"/>
      <point x="711" y="219" type="curve" smooth="yes"/>
      <point x="711" y="347"/>
      <point x="642" y="450"/>
      <point x="548" y="504" type="curve"/>
      <point x="524" y="524" type="line"/>
      <point x="469" y="554"/>
      <point x="416" y="566"/>
      <point x="351" y="566" type="curve" smooth="yes"/>
      <point x="151" y="566"/>
      <point x="39" y="441"/>
      <point x="39" y="277" type="curve" smooth="yes"/>
      <point x="39" y="135"/>
      <point x="114" y="40"/>
      <point x="200" y="-9" type="curve"/>
      <point x="250" y="54" type="line"/>
      <point x="175" y="100"/>
      <point x="128" y="169"/>
      <point x="128" y="273" type="curve" smooth="yes"/>
      <point x="128" y="400"/>
      <point x="208" y="497"/>
      <point x="359" y="497" type="curve" smooth="yes"/>
      <point x="396" y="497"/>
      <point x="423" y="494"/>
      <point x="454" y="483" type="curve"/>
      <point x="475" y="473" type="line"/>
      <point x="562" y="433"/>
      <point x="623" y="333"/>
      <point x="623" y="221" type="curve" smooth="yes"/>
      <point x="623" y="92"/>
      <point x="569" y="58"/>
      <point x="507" y="58" type="curve" smooth="yes"/>
      <point x="447" y="58"/>
      <point x="391" y="93"/>
      <point x="391" y="221" type="curve" smooth="yes"/>
      <point x="391" y="343"/>
      <point x="452" y="429"/>
      <point x="526" y="468" type="curve"/>
      <point x="558" y="484" type="line"/>
      <point x="592" y="497"/>
      <point x="628" y="498"/>
      <point x="646" y="498" type="curve" smooth="yes"/>
      <point x="698" y="498"/>
      <point x="741" y="485"/>
      <point x="770" y="462" type="curve" smooth="yes"/>
      <point x="815" y="425"/>
      <point x="836" y="366"/>
      <point x="836" y="263" type="curve" smooth="yes"/>
      <point x="836" y="252" type="line" smooth="yes"/>
      <point x="836" y="119"/>
      <point x="860" y="79"/>
      <point x="887" y="47" type="curve" smooth="yes"/>
      <point x="920" y="7"/>
      <point x="969" y="-12"/>
      <point x="1028" y="-12" type="curve" smooth="yes"/>
      <point x="1107" y="-12"/>
      <point x="1164" y="19"/>
      <point x="1201" y="82" type="curve"/>
      <point x="1196" y="83" type="line"/>
      <point x="1232" y="26"/>
      <point x="1280" y="-12"/>
      <point x="1367" y="-12" type="curve" smooth="yes"/>
      <point x="1526" y="-12"/>
      <point x="1616" y="110"/>
      <point x="1616" y="264" type="curve" smooth="yes"/>
      <point x="1616" y="410"/>
      <point x="1552" y="493"/>
      <point x="1466" y="563" type="curve"/>
      <point x="1408" y="500" type="line"/>
      <point x="1474" y="455"/>
      <point x="1528" y="384"/>
      <point x="1528" y="262" type="curve" smooth="yes"/>
      <point x="1528" y="148"/>
      <point x="1462" y="60"/>
      <point x="1371" y="60" type="curve" smooth="yes"/>
      <point x="1323" y="60"/>
      <point x="1288" y="79"/>
      <point x="1265" y="118" type="curve" smooth="yes"/>
      <point x="1248" y="148"/>
      <point x="1243" y="188"/>
      <point x="1243" y="264" type="curve" smooth="yes"/>
      <point x="1243" y="554" type="line"/>
      <point x="1157" y="554" type="line"/>
      <point x="1157" y="247" type="line" smooth="yes"/>
      <point x="1157" y="164"/>
      <point x="1146" y="126"/>
      <point x="1124" y="97" type="curve" smooth="yes"/>
      <point x="1105" y="74"/>
      <point x="1077" y="60"/>
      <point x="1040" y="60" type="curve" smooth="yes"/>
      <point x="1000" y="60"/>
      <point x="975" y="71"/>
      <point x="956" y="94" type="curve" smooth="yes"/>
      <point x="933" y="123"/>
      <point x="923" y="161"/>
      <point x="923" y="258" type="curve" smooth="yes"/>
      <point x="923" y="285" type="line" smooth="yes"/>
      <point x="923" y="404"/>
      <point x="895" y="467"/>
      <point x="840" y="512" type="curve" smooth="yes"/>
      <point x="795" y="548"/>
      <point x="737" y="566"/>
    </contour>
  </outline>
</glyph>
<glyph name="nyamlym" format="2">
  <advance width="1446"/>
  <unicode hex="0D1E"/>
  <outline>
    <contour>
      <point x="358" y="566" type="curve" smooth="yes"/>
      <point x="182" y="566"/>
      <point x="42" y="452"/>
      <point x="42" y="241" type="curve" smooth="yes"/>
      <point x="42" y="63"/>
      <point x="135" y="-12"/>
      <point x="240" y="-12" type="curve" smooth="yes"/>
      <point x="343" y="-12"/>
      <point x="410" y="54"/>
      <point x="410" y="165" type="curve" smooth="yes"/>
      <point x="410" y="269"/>
      <point x="344" y="328"/>
      <point x="248" y="328" type="curve" smooth="yes"/>
      <point x="183" y="328"/>
      <point x="119" y="296"/>
      <point x="80" y="248" type="curve"/>
      <point x="95" y="186" type="line"/>
      <point x="134" y="229"/>
      <point x="181" y="258"/>
      <point x="233" y="258" type="curve" smooth="yes"/>
      <point x="289" y="258"/>
      <point x="327" y="223"/>
      <point x="327" y="157" type="curve" smooth="yes"/>
      <point x="327" y="93"/>
      <point x="292" y="58"/>
      <point x="242" y="58" type="curve" smooth="yes"/>
      <point x="170" y="58"/>
      <point x="123" y="115"/>
      <point x="123" y="228" type="curve" smooth="yes"/>
      <point x="123" y="239" type="line" smooth="yes"/>
      <point x="123" y="385"/>
      <point x="213" y="494"/>
      <point x="357" y="494" type="curve" smooth="yes"/>
      <point x="419" y="494"/>
      <point x="450" y="481"/>
      <point x="478" y="456" type="curve" smooth="yes"/>
      <point x="508" y="428"/>
      <point x="522" y="386"/>
      <point x="522" y="306" type="curve" smooth="yes"/>
      <point x="522" y="0" type="line"/>
      <point x="608" y="0" type="line"/>
      <point x="608" y="252" type="line"/>
      <point x="596" y="428" type="line"/>
      <point x="583" y="460" type="line"/>
      <point x="531" y="528"/>
      <point x="470" y="566"/>
    </contour>
    <contour>
      <point x="791" y="566" type="curve" smooth="yes"/>
      <point x="671" y="566"/>
      <point x="606" y="518"/>
      <point x="556" y="454" type="curve"/>
      <point x="522" y="209" type="line"/>
      <point x="522" y="0" type="line"/>
      <point x="608" y="0" type="line"/>
      <point x="608" y="289" type="line" smooth="yes"/>
      <point x="608" y="373"/>
      <point x="626" y="416"/>
      <point x="659" y="450" type="curve" smooth="yes"/>
      <point x="686" y="478"/>
      <point x="728" y="497"/>
      <point x="799" y="497" type="curve" smooth="yes"/>
      <point x="843" y="497"/>
      <point x="868" y="491"/>
      <point x="895" y="482" type="curve"/>
      <point x="919" y="471" type="line"/>
      <point x="1001" y="428"/>
      <point x="1055" y="334"/>
      <point x="1055" y="221" type="curve" smooth="yes"/>
      <point x="1055" y="92"/>
      <point x="1000" y="58"/>
      <point x="939" y="58" type="curve" smooth="yes"/>
      <point x="878" y="58"/>
      <point x="823" y="93"/>
      <point x="823" y="221" type="curve" smooth="yes"/>
      <point x="823" y="343"/>
      <point x="887" y="430"/>
      <point x="963" y="467" type="curve" smooth="yes"/>
      <point x="994" y="482" type="line"/>
      <point x="1027" y="494"/>
      <point x="1060" y="497"/>
      <point x="1100" y="497" type="curve" smooth="yes"/>
      <point x="1243" y="497"/>
      <point x="1318" y="397"/>
      <point x="1318" y="271" type="curve" smooth="yes"/>
      <point x="1318" y="161"/>
      <point x="1261" y="93"/>
      <point x="1196" y="54" type="curve"/>
      <point x="1246" y="-9" type="line"/>
      <point x="1339" y="50"/>
      <point x="1407" y="141"/>
      <point x="1407" y="281" type="curve" smooth="yes"/>
      <point x="1407" y="439"/>
      <point x="1309" y="566"/>
      <point x="1110" y="566" type="curve" smooth="yes"/>
      <point x="1037" y="566"/>
      <point x="977" y="553"/>
      <point x="918" y="520" type="curve"/>
      <point x="903" y="504" type="line"/>
      <point x="806" y="446"/>
      <point x="735" y="350"/>
      <point x="735" y="219" type="curve" smooth="yes"/>
      <point x="735" y="77"/>
      <point x="808" y="-12"/>
      <point x="939" y="-12" type="curve" smooth="yes"/>
      <point x="1070" y="-12"/>
      <point x="1143" y="76"/>
      <point x="1143" y="219" type="curve" smooth="yes"/>
      <point x="1143" y="350"/>
      <point x="1076" y="449"/>
      <point x="988" y="504" type="curve"/>
      <point x="963" y="524" type="line"/>
      <point x="911" y="554"/>
      <point x="861" y="566"/>
    </contour>
  </outline>
</glyph>
<glyph name="ttamlym" format="2">
  <advance width="563"/>
  <unicode hex="0D1F"/>
  <outline>
    <contour>
      <point x="269" y="566" type="curve" smooth="yes"/>
      <point x="109" y="566"/>
      <point x="35" y="498"/>
      <point x="35" y="402" type="curve" smooth="yes"/>
      <point x="35" y="361"/>
      <point x="45" y="331"/>
      <point x="65" y="307" type="curve" smooth="yes"/>
      <point x="101" y="263"/>
      <point x="178" y="244"/>
      <point x="270" y="244" type="curve" smooth="yes"/>
      <point x="280" y="244" type="line" smooth="yes"/>
      <point x="355" y="244"/>
      <point x="390" y="236"/>
      <point x="412" y="220" type="curve" smooth="yes"/>
      <point x="433" y="205"/>
      <point x="441" y="182"/>
      <point x="441" y="153" type="curve" smooth="yes"/>
      <point x="441" y="99"/>
      <point x="398" y="60"/>
      <point x="293" y="60" type="curve" smooth="yes"/>
      <point x="199" y="60"/>
      <point x="125" y="88"/>
      <point x="66" y="125" type="curve"/>
      <point x="20" y="59" type="line"/>
      <point x="98" y="15"/>
      <point x="176" y="-12"/>
      <point x="289" y="-12" type="curve" smooth="yes"/>
      <point x="451" y="-12"/>
      <point x="528" y="57"/>
      <point x="528" y="158" type="curve" smooth="yes"/>
      <point x="528" y="194"/>
      <point x="520" y="229"/>
      <point x="500" y="253" type="curve" smooth="yes"/>
      <point x="466" y="295"/>
      <point x="412" y="317"/>
      <point x="307" y="317" type="curve" smooth="yes"/>
      <point x="299" y="317" type="line" smooth="yes"/>
      <point x="226" y="317"/>
      <point x="168" y="322"/>
      <point x="142" y="349" type="curve" smooth="yes"/>
      <point x="129" y="361"/>
      <point x="122" y="378"/>
      <point x="122" y="403" type="curve" smooth="yes"/>
      <point x="122" y="455"/>
      <point x="166" y="494"/>
      <point x="268" y="494" type="curve" smooth="yes"/>
      <point x="362" y="494"/>
      <point x="435" y="467"/>
      <point x="489" y="433" type="curve"/>
      <point x="536" y="500" type="line"/>
      <point x="471" y="536"/>
      <point x="387" y="566"/>
    </contour>
  </outline>
</glyph>
<glyph name="tthamlym" format="2">
  <advance width="655"/>
  <unicode hex="0D20"/>
  <outline>
    <contour>
      <point x="326" y="566" type="curve" smooth="yes"/>
      <point x="149" y="566"/>
      <point x="39" y="453"/>
      <point x="39" y="279" type="curve" smooth="yes"/>
      <point x="39" y="124"/>
      <point x="131" y="-12"/>
      <point x="327" y="-12" type="curve" smooth="yes"/>
      <point x="506" y="-12"/>
      <point x="616" y="102"/>
      <point x="616" y="276" type="curve" smooth="yes"/>
      <point x="616" y="456"/>
      <point x="506" y="566"/>
    </contour>
    <contour>
      <point x="327" y="60" type="curve" smooth="yes"/>
      <point x="199" y="60"/>
      <point x="128" y="147"/>
      <point x="128" y="278" type="curve" smooth="yes"/>
      <point x="128" y="410"/>
      <point x="201" y="494"/>
      <point x="328" y="494" type="curve" smooth="yes"/>
      <point x="459" y="494"/>
      <point x="527" y="402"/>
      <point x="527" y="278" type="curve" smooth="yes"/>
      <point x="527" y="152"/>
      <point x="460" y="60"/>
    </contour>
  </outline>
</glyph>
<glyph name="ddamlym" format="2">
  <advance width="1223"/>
  <unicode hex="0D21"/>
  <outline>
    <contour>
      <point x="596" y="-12" type="curve" smooth="yes"/>
      <point x="675" y="-12"/>
      <point x="732" y="18"/>
      <point x="769" y="81" type="curve"/>
      <point x="764" y="82" type="line"/>
      <point x="801" y="25"/>
      <point x="848" y="-12"/>
      <point x="935" y="-12" type="curve" smooth="yes"/>
      <point x="1095" y="-12"/>
      <point x="1184" y="110"/>
      <point x="1184" y="263" type="curve" smooth="yes"/>
      <point x="1184" y="409"/>
      <point x="1120" y="493"/>
      <point x="1034" y="563" type="curve"/>
      <point x="976" y="500" type="line"/>
      <point x="1042" y="455"/>
      <point x="1096" y="384"/>
      <point x="1096" y="263" type="curve" smooth="yes"/>
      <point x="1096" y="146"/>
      <point x="1031" y="60"/>
      <point x="939" y="60" type="curve" smooth="yes"/>
      <point x="891" y="60"/>
      <point x="856" y="79"/>
      <point x="833" y="118" type="curve" smooth="yes"/>
      <point x="815" y="148"/>
      <point x="811" y="187"/>
      <point x="811" y="262" type="curve" smooth="yes"/>
      <point x="811" y="554" type="line"/>
      <point x="725" y="554" type="line"/>
      <point x="725" y="245" type="line" smooth="yes"/>
      <point x="725" y="163"/>
      <point x="715" y="125"/>
      <point x="692" y="97" type="curve" smooth="yes"/>
      <point x="673" y="74"/>
      <point x="645" y="60"/>
      <point x="608" y="60" type="curve" smooth="yes"/>
      <point x="568" y="60"/>
      <point x="542" y="72"/>
      <point x="524" y="94" type="curve" smooth="yes"/>
      <point x="500" y="122"/>
      <point x="491" y="166"/>
      <point x="491" y="259" type="curve" smooth="yes"/>
      <point x="491" y="308" type="line" smooth="yes"/>
      <point x="491" y="407"/>
      <point x="477" y="459"/>
      <point x="439" y="503" type="curve" smooth="yes"/>
      <point x="404" y="543"/>
      <point x="354" y="566"/>
      <point x="278" y="566" type="curve" smooth="yes"/>
      <point x="131" y="566"/>
      <point x="39" y="464"/>
      <point x="39" y="292" type="curve" smooth="yes"/>
      <point x="39" y="157"/>
      <point x="93" y="68"/>
      <point x="194" y="-11" type="curve"/>
      <point x="247" y="51" type="line"/>
      <point x="177" y="100"/>
      <point x="127" y="176"/>
      <point x="127" y="289" type="curve" smooth="yes"/>
      <point x="127" y="413"/>
      <point x="185" y="494"/>
      <point x="274" y="494" type="curve" smooth="yes"/>
      <point x="332" y="494"/>
      <point x="359" y="476"/>
      <point x="377" y="448" type="curve" smooth="yes"/>
      <point x="399" y="414"/>
      <point x="404" y="358"/>
      <point x="404" y="285" type="curve" smooth="yes"/>
      <point x="404" y="251" type="line" smooth="yes"/>
      <point x="404" y="119"/>
      <point x="428" y="79"/>
      <point x="455" y="47" type="curve" smooth="yes"/>
      <point x="488" y="7"/>
      <point x="537" y="-12"/>
    </contour>
  </outline>
</glyph>
<glyph name="ddhamlym" format="2">
  <advance width="1334"/>
  <unicode hex="0D22"/>
  <outline>
    <contour>
      <point x="596" y="-12" type="curve" smooth="yes"/>
      <point x="675" y="-12"/>
      <point x="732" y="19"/>
      <point x="769" y="82" type="curve"/>
      <point x="811" y="264" type="line"/>
      <point x="811" y="554" type="line"/>
      <point x="725" y="554" type="line"/>
      <point x="725" y="246" type="line" smooth="yes"/>
      <point x="725" y="163"/>
      <point x="715" y="126"/>
      <point x="692" y="97" type="curve" smooth="yes"/>
      <point x="673" y="74"/>
      <point x="645" y="60"/>
      <point x="608" y="60" type="curve" smooth="yes"/>
      <point x="568" y="60"/>
      <point x="542" y="73"/>
      <point x="524" y="94" type="curve" smooth="yes"/>
      <point x="500" y="123"/>
      <point x="491" y="166"/>
      <point x="491" y="257" type="curve" smooth="yes"/>
      <point x="491" y="308" type="line" smooth="yes"/>
      <point x="491" y="407"/>
      <point x="477" y="459"/>
      <point x="439" y="503" type="curve" smooth="yes"/>
      <point x="404" y="543"/>
      <point x="354" y="566"/>
      <point x="278" y="566" type="curve" smooth="yes"/>
      <point x="131" y="566"/>
      <point x="39" y="464"/>
      <point x="39" y="293" type="curve" smooth="yes"/>
      <point x="39" y="157"/>
      <point x="92" y="69"/>
      <point x="194" y="-12" type="curve"/>
      <point x="247" y="51" type="line"/>
      <point x="177" y="100"/>
      <point x="127" y="176"/>
      <point x="127" y="290" type="curve" smooth="yes"/>
      <point x="127" y="413"/>
      <point x="185" y="494"/>
      <point x="274" y="494" type="curve" smooth="yes"/>
      <point x="332" y="494"/>
      <point x="359" y="476"/>
      <point x="377" y="448" type="curve" smooth="yes"/>
      <point x="399" y="414"/>
      <point x="404" y="358"/>
      <point x="404" y="286" type="curve" smooth="yes"/>
      <point x="404" y="252" type="line" smooth="yes"/>
      <point x="404" y="119"/>
      <point x="428" y="79"/>
      <point x="455" y="47" type="curve" smooth="yes"/>
      <point x="488" y="7"/>
      <point x="537" y="-12"/>
    </contour>
    <contour>
      <point x="1098" y="566" type="curve" smooth="yes"/>
      <point x="988" y="566"/>
      <point x="924" y="495"/>
      <point x="924" y="393" type="curve" smooth="yes"/>
      <point x="924" y="285"/>
      <point x="990" y="226"/>
      <point x="1088" y="226" type="curve" smooth="yes"/>
      <point x="1154" y="226"/>
      <point x="1215" y="258"/>
      <point x="1254" y="306" type="curve"/>
      <point x="1239" y="368" type="line"/>
      <point x="1200" y="325"/>
      <point x="1157" y="296"/>
      <point x="1101" y="296" type="curve" smooth="yes"/>
      <point x="1045" y="296"/>
      <point x="1007" y="328"/>
      <point x="1007" y="398" type="curve" smooth="yes"/>
      <point x="1007" y="463"/>
      <point x="1042" y="496"/>
      <point x="1092" y="496" type="curve" smooth="yes"/>
      <point x="1159" y="496"/>
      <point x="1211" y="447"/>
      <point x="1211" y="327" type="curve" smooth="yes"/>
      <point x="1211" y="315" type="line" smooth="yes"/>
      <point x="1211" y="171"/>
      <point x="1121" y="60"/>
      <point x="977" y="60" type="curve" smooth="yes"/>
      <point x="916" y="60"/>
      <point x="883" y="73"/>
      <point x="855" y="98" type="curve" smooth="yes"/>
      <point x="825" y="126"/>
      <point x="811" y="165"/>
      <point x="811" y="250" type="curve" smooth="yes"/>
      <point x="811" y="534" type="line"/>
      <point x="735" y="534" type="line"/>
      <point x="735" y="304" type="line"/>
      <point x="759" y="84" type="line"/>
      <point x="810" y="23"/>
      <point x="866" y="-12"/>
      <point x="975" y="-12" type="curve" smooth="yes"/>
      <point x="1152" y="-12"/>
      <point x="1292" y="104"/>
      <point x="1292" y="313" type="curve" smooth="yes"/>
      <point x="1292" y="494"/>
      <point x="1199" y="566"/>
    </contour>
  </outline>
</glyph>
<glyph name="nnamlym" format="2">
  <advance width="1368"/>
  <unicode hex="0D23"/>
  <outline>
    <contour>
      <point x="358" y="566" type="curve" smooth="yes"/>
      <point x="182" y="566"/>
      <point x="42" y="452"/>
      <point x="42" y="241" type="curve" smooth="yes"/>
      <point x="42" y="63"/>
      <point x="135" y="-12"/>
      <point x="240" y="-12" type="curve" smooth="yes"/>
      <point x="343" y="-12"/>
      <point x="410" y="54"/>
      <point x="410" y="165" type="curve" smooth="yes"/>
      <point x="410" y="269"/>
      <point x="344" y="328"/>
      <point x="248" y="328" type="curve" smooth="yes"/>
      <point x="183" y="328"/>
      <point x="119" y="296"/>
      <point x="80" y="248" type="curve"/>
      <point x="95" y="186" type="line"/>
      <point x="134" y="229"/>
      <point x="181" y="258"/>
      <point x="233" y="258" type="curve" smooth="yes"/>
      <point x="289" y="258"/>
      <point x="327" y="223"/>
      <point x="327" y="157" type="curve" smooth="yes"/>
      <point x="327" y="93"/>
      <point x="292" y="58"/>
      <point x="242" y="58" type="curve" smooth="yes"/>
      <point x="170" y="58"/>
      <point x="123" y="115"/>
      <point x="123" y="228" type="curve" smooth="yes"/>
      <point x="123" y="239" type="line" smooth="yes"/>
      <point x="123" y="385"/>
      <point x="213" y="494"/>
      <point x="357" y="494" type="curve" smooth="yes"/>
      <point x="412" y="494"/>
      <point x="450" y="481"/>
      <point x="478" y="456" type="curve" smooth="yes"/>
      <point x="508" y="428"/>
      <point x="523" y="385"/>
      <point x="523" y="299" type="curve" smooth="yes"/>
      <point x="523" y="0" type="line"/>
      <point x="609" y="0" type="line"/>
      <point x="609" y="307" type="line" smooth="yes"/>
      <point x="609" y="390"/>
      <point x="620" y="428"/>
      <point x="646" y="456" type="curve" smooth="yes"/>
      <point x="667" y="479"/>
      <point x="698" y="494"/>
      <point x="739" y="494" type="curve" smooth="yes"/>
      <point x="784" y="494"/>
      <point x="814" y="481"/>
      <point x="834" y="459" type="curve" smooth="yes"/>
      <point x="861" y="431"/>
      <point x="869" y="389"/>
      <point x="869" y="316" type="curve" smooth="yes"/>
      <point x="869" y="0" type="line"/>
      <point x="955" y="0" type="line"/>
      <point x="955" y="288" type="line" smooth="yes"/>
      <point x="955" y="371"/>
      <point x="960" y="406"/>
      <point x="977" y="437" type="curve" smooth="yes"/>
      <point x="998" y="476"/>
      <point x="1035" y="494"/>
      <point x="1087" y="494" type="curve" smooth="yes"/>
      <point x="1180" y="494"/>
      <point x="1241" y="407"/>
      <point x="1241" y="292" type="curve" smooth="yes"/>
      <point x="1241" y="175"/>
      <point x="1191" y="103"/>
      <point x="1121" y="53" type="curve"/>
      <point x="1174" y="-9" type="line"/>
      <point x="1275" y="70"/>
      <point x="1329" y="160"/>
      <point x="1329" y="292" type="curve" smooth="yes"/>
      <point x="1329" y="445"/>
      <point x="1242" y="566"/>
      <point x="1088" y="566" type="curve" smooth="yes"/>
      <point x="1007" y="566"/>
      <point x="953" y="540"/>
      <point x="903" y="465" type="curve"/>
      <point x="915" y="472" type="line"/>
      <point x="882" y="530"/>
      <point x="829" y="566"/>
      <point x="740" y="566" type="curve" smooth="yes"/>
      <point x="666" y="566"/>
      <point x="604" y="534"/>
      <point x="562" y="472" type="curve"/>
      <point x="576" y="469" type="line"/>
      <point x="530" y="526"/>
      <point x="470" y="566"/>
    </contour>
  </outline>
</glyph>
<glyph name="thamlym" format="2">
  <advance width="896"/>
  <unicode hex="0D25"/>
  <outline>
    <contour>
      <point x="157" y="554" type="line"/>
      <point x="71" y="554" type="line"/>
      <point x="71" y="0" type="line"/>
      <point x="386" y="0" type="line"/>
      <point x="386" y="70" type="line"/>
      <point x="157" y="70" type="line"/>
    </contour>
    <component base="thapart"/>
  </outline>
</glyph>
<glyph name="damlym" format="2">
  <advance width="641"/>
  <unicode hex="0D26"/>
  <outline>
    <contour>
      <point x="373" y="566" type="curve" smooth="yes"/>
      <point x="159" y="566"/>
      <point x="52" y="425"/>
      <point x="52" y="219" type="curve" smooth="yes"/>
      <point x="52" y="149"/>
      <point x="63" y="61"/>
      <point x="83" y="-4" type="curve"/>
      <point x="165" y="9" type="line"/>
      <point x="147" y="73"/>
      <point x="140" y="148"/>
      <point x="140" y="217" type="curve" smooth="yes"/>
      <point x="140" y="375"/>
      <point x="209" y="494"/>
      <point x="371" y="494" type="curve" smooth="yes"/>
      <point x="455" y="494"/>
      <point x="504" y="463"/>
      <point x="504" y="403" type="curve" smooth="yes"/>
      <point x="504" y="375"/>
      <point x="496" y="355"/>
      <point x="480" y="341" type="curve" smooth="yes"/>
      <point x="457" y="318"/>
      <point x="417" y="310"/>
      <point x="367" y="310" type="curve" smooth="yes"/>
      <point x="322" y="310" type="line"/>
      <point x="322" y="240" type="line"/>
      <point x="368" y="240" type="line" smooth="yes"/>
      <point x="438" y="240"/>
      <point x="463" y="228"/>
      <point x="485" y="210" type="curve" smooth="yes"/>
      <point x="506" y="192"/>
      <point x="515" y="169"/>
      <point x="515" y="144" type="curve" smooth="yes"/>
      <point x="515" y="83"/>
      <point x="475" y="59"/>
      <point x="406" y="59" type="curve" smooth="yes"/>
      <point x="378" y="59"/>
      <point x="352" y="63"/>
      <point x="323" y="69" type="curve"/>
      <point x="305" y="0" type="line"/>
      <point x="331" y="-6"/>
      <point x="365" y="-11"/>
      <point x="413" y="-11" type="curve" smooth="yes"/>
      <point x="531" y="-11"/>
      <point x="602" y="46"/>
      <point x="602" y="143" type="curve" smooth="yes"/>
      <point x="602" y="207"/>
      <point x="561" y="258"/>
      <point x="485" y="280" type="curve"/>
      <point x="489" y="274" type="line"/>
      <point x="561" y="303"/>
      <point x="591" y="347"/>
      <point x="591" y="411" type="curve" smooth="yes"/>
      <point x="591" y="498"/>
      <point x="516" y="566"/>
    </contour>
  </outline>
</glyph>
<glyph name="dhamlym" format="2">
  <advance width="911"/>
  <unicode hex="0D27"/>
  <outline>
    <contour>
      <point x="623" y="-12" type="curve" smooth="yes"/>
      <point x="776" y="-12"/>
      <point x="872" y="101"/>
      <point x="872" y="262" type="curve" smooth="yes"/>
      <point x="872" y="408"/>
      <point x="808" y="493"/>
      <point x="722" y="562" type="curve"/>
      <point x="664" y="499" type="line"/>
      <point x="730" y="454"/>
      <point x="784" y="383"/>
      <point x="784" y="262" type="curve" smooth="yes"/>
      <point x="784" y="146"/>
      <point x="719" y="60"/>
      <point x="627" y="60" type="curve" smooth="yes"/>
      <point x="578" y="60"/>
      <point x="544" y="79"/>
      <point x="521" y="118" type="curve" smooth="yes"/>
      <point x="503" y="148"/>
      <point x="499" y="187"/>
      <point x="499" y="263" type="curve" smooth="yes"/>
      <point x="499" y="554" type="line"/>
      <point x="413" y="554" type="line"/>
      <point x="413" y="263" type="line" smooth="yes"/>
      <point x="413" y="184"/>
      <point x="409" y="148"/>
      <point x="392" y="118" type="curve" smooth="yes"/>
      <point x="371" y="80"/>
      <point x="337" y="60"/>
      <point x="282" y="60" type="curve" smooth="yes"/>
      <point x="188" y="60"/>
      <point x="127" y="147"/>
      <point x="127" y="262" type="curve" smooth="yes"/>
      <point x="127" y="379"/>
      <point x="178" y="451"/>
      <point x="248" y="501" type="curve"/>
      <point x="194" y="562" type="line"/>
      <point x="94" y="484"/>
      <point x="39" y="394"/>
      <point x="39" y="262" type="curve" smooth="yes"/>
      <point x="39" y="109"/>
      <point x="127" y="-12"/>
      <point x="281" y="-12" type="curve" smooth="yes"/>
      <point x="367" y="-12"/>
      <point x="421" y="19"/>
      <point x="462" y="88" type="curve"/>
      <point x="449" y="89" type="line"/>
      <point x="482" y="32"/>
      <point x="531" y="-12"/>
    </contour>
  </outline>
</glyph>
<glyph name="nnnamlym" format="2">
  <advance width="1021"/>
  <unicode hex="0D29"/>
  <outline>
    <contour>
      <point x="358" y="566" type="curve" smooth="yes"/>
      <point x="182" y="566"/>
      <point x="42" y="452"/>
      <point x="42" y="241" type="curve" smooth="yes"/>
      <point x="42" y="63"/>
      <point x="135" y="-12"/>
      <point x="240" y="-12" type="curve" smooth="yes"/>
      <point x="343" y="-12"/>
      <point x="410" y="54"/>
      <point x="410" y="165" type="curve" smooth="yes"/>
      <point x="410" y="269"/>
      <point x="344" y="328"/>
      <point x="248" y="328" type="curve" smooth="yes"/>
      <point x="183" y="328"/>
      <point x="119" y="296"/>
      <point x="80" y="248" type="curve"/>
      <point x="95" y="186" type="line"/>
      <point x="134" y="229"/>
      <point x="181" y="258"/>
      <point x="233" y="258" type="curve" smooth="yes"/>
      <point x="289" y="258"/>
      <point x="327" y="223"/>
      <point x="327" y="157" type="curve" smooth="yes"/>
      <point x="327" y="93"/>
      <point x="292" y="58"/>
      <point x="242" y="58" type="curve" smooth="yes"/>
      <point x="170" y="58"/>
      <point x="123" y="115"/>
      <point x="123" y="228" type="curve" smooth="yes"/>
      <point x="123" y="239" type="line" smooth="yes"/>
      <point x="123" y="385"/>
      <point x="213" y="494"/>
      <point x="357" y="494" type="curve" smooth="yes"/>
      <point x="417" y="494"/>
      <point x="450" y="481"/>
      <point x="478" y="456" type="curve" smooth="yes"/>
      <point x="508" y="428"/>
      <point x="522" y="385"/>
      <point x="522" y="305" type="curve" smooth="yes"/>
      <point x="522" y="0" type="line"/>
      <point x="608" y="0" type="line"/>
      <point x="608" y="285" type="line" smooth="yes"/>
      <point x="608" y="371"/>
      <point x="614" y="406"/>
      <point x="630" y="436" type="curve" smooth="yes"/>
      <point x="652" y="475"/>
      <point x="685" y="494"/>
      <point x="740" y="494" type="curve" smooth="yes"/>
      <point x="833" y="494"/>
      <point x="894" y="407"/>
      <point x="894" y="292" type="curve" smooth="yes"/>
      <point x="894" y="175"/>
      <point x="844" y="103"/>
      <point x="774" y="53" type="curve"/>
      <point x="828" y="-8" type="line"/>
      <point x="928" y="70"/>
      <point x="982" y="160"/>
      <point x="982" y="292" type="curve" smooth="yes"/>
      <point x="982" y="445"/>
      <point x="895" y="566"/>
      <point x="741" y="566" type="curve" smooth="yes"/>
      <point x="660" y="566"/>
      <point x="606" y="539"/>
      <point x="566" y="477" type="curve"/>
      <point x="576" y="469" type="line"/>
      <point x="530" y="526"/>
      <point x="470" y="566"/>
    </contour>
  </outline>
</glyph>
<glyph name="phamlym" format="2">
  <advance width="1129"/>
  <unicode hex="0D2B"/>
  <outline>
    <contour>
      <point x="229" y="346" type="curve" smooth="yes"/>
      <point x="110" y="346"/>
      <point x="32" y="271"/>
      <point x="32" y="166" type="curve" smooth="yes"/>
      <point x="32" y="90"/>
      <point x="72" y="33"/>
      <point x="129" y="-7" type="curve"/>
      <point x="175" y="51" type="line"/>
      <point x="133" y="80"/>
      <point x="116" y="119"/>
      <point x="116" y="164" type="curve" smooth="yes"/>
      <point x="116" y="225"/>
      <point x="158" y="276"/>
      <point x="229" y="276" type="curve" smooth="yes"/>
      <point x="304" y="276"/>
      <point x="343" y="230"/>
      <point x="343" y="158" type="curve" smooth="yes"/>
      <point x="343" y="109"/>
      <point x="326" y="78"/>
      <point x="299" y="52" type="curve"/>
      <point x="328" y="0" type="line"/>
      <point x="634" y="0" type="line"/>
      <point x="634" y="70" type="line"/>
      <point x="357" y="70" type="line"/>
      <point x="382" y="57" type="line"/>
      <point x="407" y="75"/>
      <point x="427" y="119"/>
      <point x="427" y="173" type="curve" smooth="yes"/>
      <point x="427" y="258"/>
      <point x="364" y="346"/>
    </contour>
    <component base="thapart" xOffset="233"/>
  </outline>
</glyph>
<glyph name="bhamlym" format="2">
  <advance width="654"/>
  <unicode hex="0D2D"/>
  <outline>
    <contour>
      <point x="394" y="566" type="curve" smooth="yes"/>
      <point x="163" y="566"/>
      <point x="52" y="425"/>
      <point x="52" y="219" type="curve" smooth="yes"/>
      <point x="52" y="149"/>
      <point x="63" y="61"/>
      <point x="83" y="-4" type="curve"/>
      <point x="165" y="9" type="line"/>
      <point x="147" y="73"/>
      <point x="140" y="148"/>
      <point x="140" y="217" type="curve" smooth="yes"/>
      <point x="140" y="375"/>
      <point x="213" y="494"/>
      <point x="393" y="494" type="curve" smooth="yes"/>
      <point x="481" y="494"/>
      <point x="535" y="472"/>
      <point x="535" y="423" type="curve" smooth="yes"/>
      <point x="535" y="389"/>
      <point x="519" y="381"/>
      <point x="482" y="381" type="curve" smooth="yes"/>
      <point x="441" y="381" type="line" smooth="yes"/>
      <point x="369" y="381"/>
      <point x="327" y="369"/>
      <point x="299" y="346" type="curve" smooth="yes"/>
      <point x="274" y="327"/>
      <point x="264" y="298"/>
      <point x="264" y="268" type="curve" smooth="yes"/>
      <point x="264" y="240"/>
      <point x="271" y="220"/>
      <point x="285" y="203" type="curve" smooth="yes"/>
      <point x="309" y="173"/>
      <point x="353" y="159"/>
      <point x="439" y="159" type="curve" smooth="yes"/>
      <point x="454" y="159" type="line" smooth="yes"/>
      <point x="505" y="159"/>
      <point x="537" y="151"/>
      <point x="537" y="111" type="curve" smooth="yes"/>
      <point x="537" y="82"/>
      <point x="513" y="59"/>
      <point x="441" y="59" type="curve" smooth="yes"/>
      <point x="385" y="59"/>
      <point x="334" y="70"/>
      <point x="283" y="93" type="curve"/>
      <point x="252" y="25" type="line"/>
      <point x="296" y="5"/>
      <point x="374" y="-12"/>
      <point x="443" y="-12" type="curve" smooth="yes"/>
      <point x="562" y="-12"/>
      <point x="620" y="40"/>
      <point x="620" y="113" type="curve" smooth="yes"/>
      <point x="620" y="149"/>
      <point x="609" y="176"/>
      <point x="587" y="195" type="curve" smooth="yes"/>
      <point x="561" y="218"/>
      <point x="520" y="229"/>
      <point x="456" y="229" type="curve" smooth="yes"/>
      <point x="444" y="229" type="line" smooth="yes"/>
      <point x="384" y="229"/>
      <point x="346" y="234"/>
      <point x="346" y="270" type="curve" smooth="yes"/>
      <point x="346" y="283"/>
      <point x="350" y="294"/>
      <point x="364" y="301" type="curve" smooth="yes"/>
      <point x="377" y="308"/>
      <point x="397" y="311"/>
      <point x="448" y="311" type="curve" smooth="yes"/>
      <point x="477" y="311" type="line"/>
      <point x="548" y="311"/>
      <point x="576" y="325"/>
      <point x="596" y="350" type="curve" smooth="yes"/>
      <point x="612" y="369"/>
      <point x="619" y="394"/>
      <point x="619" y="425" type="curve" smooth="yes"/>
      <point x="619" y="517"/>
      <point x="526" y="566"/>
    </contour>
  </outline>
</glyph>
<glyph name="mamlym" format="2">
  <advance width="723"/>
  <unicode hex="0D2E"/>
  <outline>
    <contour>
      <point x="354" y="566" type="curve" smooth="yes"/>
      <point x="255" y="566"/>
      <point x="187" y="539"/>
      <point x="138" y="493" type="curve" smooth="yes"/>
      <point x="85" y="443"/>
      <point x="60" y="372"/>
      <point x="60" y="268" type="curve" smooth="yes"/>
      <point x="60" y="0" type="line"/>
      <point x="663" y="0" type="line"/>
      <point x="663" y="266" type="line" smooth="yes"/>
      <point x="663" y="376"/>
      <point x="638" y="443"/>
      <point x="583" y="494" type="curve" smooth="yes"/>
      <point x="533" y="540"/>
      <point x="459" y="566"/>
    </contour>
    <contour>
      <point x="307" y="495" type="curve" smooth="yes"/>
      <point x="362" y="495"/>
      <point x="386" y="457"/>
      <point x="386" y="402" type="curve" smooth="yes"/>
      <point x="386" y="292"/>
      <point x="287" y="169"/>
      <point x="151" y="68" type="curve"/>
      <point x="146" y="68" type="line"/>
      <point x="146" y="249" type="line" smooth="yes"/>
      <point x="146" y="329"/>
      <point x="159" y="380"/>
      <point x="181" y="418" type="curve" smooth="yes"/>
      <point x="208" y="464"/>
      <point x="251" y="495"/>
    </contour>
    <contour>
      <point x="472" y="393" type="curve" smooth="yes"/>
      <point x="472" y="442"/>
      <point x="455" y="471"/>
      <point x="430" y="501" type="curve"/>
      <point x="428" y="494" type="line"/>
      <point x="536" y="465"/>
      <point x="577" y="397"/>
      <point x="577" y="249" type="curve" smooth="yes"/>
      <point x="577" y="70" type="line"/>
      <point x="360" y="70" type="line" smooth="yes"/>
      <point x="322" y="70"/>
      <point x="286" y="68"/>
      <point x="247" y="65" type="curve"/>
      <point x="249" y="45" type="line"/>
      <point x="387" y="165"/>
      <point x="472" y="275"/>
    </contour>
  </outline>
</glyph>
<glyph name="yamlym" format="2">
  <advance width="1035"/>
  <unicode hex="0D2F"/>
  <outline>
    <contour>
      <point x="661" y="-12" type="curve" smooth="yes"/>
      <point x="875" y="-12"/>
      <point x="993" y="124"/>
      <point x="993" y="314" type="curve" smooth="yes"/>
      <point x="993" y="406"/>
      <point x="963" y="494"/>
      <point x="902" y="566" type="curve"/>
      <point x="833" y="519" type="line"/>
      <point x="880" y="463"/>
      <point x="906" y="390"/>
      <point x="906" y="312" type="curve" smooth="yes"/>
      <point x="906" y="169"/>
      <point x="826" y="56"/>
      <point x="661" y="56" type="curve" smooth="yes"/>
      <point x="626" y="56"/>
      <point x="593" y="62"/>
      <point x="570" y="69" type="curve" smooth="yes"/>
      <point x="556" y="74"/>
      <point x="547" y="72"/>
      <point x="534" y="78" type="curve"/>
      <point x="451" y="121"/>
      <point x="399" y="225"/>
      <point x="399" y="332" type="curve" smooth="yes"/>
      <point x="399" y="438"/>
      <point x="449" y="496"/>
      <point x="525" y="496" type="curve" smooth="yes"/>
      <point x="589" y="496"/>
      <point x="647" y="452"/>
      <point x="647" y="332" type="curve" smooth="yes"/>
      <point x="647" y="206"/>
      <point x="583" y="117"/>
      <point x="514" y="82" type="curve"/>
      <point x="500" y="76"/>
      <point x="484" y="71"/>
      <point x="469" y="66" type="curve" smooth="yes"/>
      <point x="441" y="59"/>
      <point x="411" y="56"/>
      <point x="383" y="56" type="curve" smooth="yes"/>
      <point x="213" y="56"/>
      <point x="126" y="189"/>
      <point x="126" y="333" type="curve" smooth="yes"/>
      <point x="126" y="441"/>
      <point x="181" y="496"/>
      <point x="257" y="496" type="curve" smooth="yes"/>
      <point x="312" y="496"/>
      <point x="344" y="466"/>
      <point x="362" y="431" type="curve"/>
      <point x="421" y="490" type="line"/>
      <point x="385" y="536"/>
      <point x="333" y="566"/>
      <point x="256" y="566" type="curve" smooth="yes"/>
      <point x="123" y="566"/>
      <point x="39" y="474"/>
      <point x="39" y="335" type="curve" smooth="yes"/>
      <point x="39" y="135"/>
      <point x="163" y="-12"/>
      <point x="376" y="-12" type="curve" smooth="yes"/>
      <point x="442" y="-12"/>
      <point x="504" y="1"/>
      <point x="560" y="33" type="curve"/>
      <point x="573" y="40"/>
      <point x="582" y="45"/>
      <point x="593" y="53" type="curve" smooth="yes"/>
      <point x="680" y="111"/>
      <point x="734" y="212"/>
      <point x="734" y="332" type="curve" smooth="yes"/>
      <point x="734" y="475"/>
      <point x="657" y="566"/>
      <point x="525" y="566" type="curve" smooth="yes"/>
      <point x="457" y="566"/>
      <point x="396" y="537"/>
      <point x="356" y="484" type="curve"/>
      <point x="349" y="473" type="line"/>
      <point x="326" y="437"/>
      <point x="312" y="391"/>
      <point x="312" y="338" type="curve" smooth="yes"/>
      <point x="312" y="225"/>
      <point x="353" y="121"/>
      <point x="463" y="43" type="curve" smooth="yes"/>
      <point x="470" y="39"/>
      <point x="485" y="33"/>
      <point x="493" y="29" type="curve" smooth="yes"/>
      <point x="549" y="-2"/>
      <point x="608" y="-12"/>
    </contour>
  </outline>
</glyph>
<glyph name="ramlym" format="2">
  <advance width="736"/>
  <unicode hex="0D30"/>
  <outline>
    <contour>
      <point x="364" y="566" type="curve" smooth="yes"/>
      <point x="137" y="566"/>
      <point x="39" y="427"/>
      <point x="39" y="277" type="curve" smooth="yes"/>
      <point x="39" y="135"/>
      <point x="114" y="40"/>
      <point x="200" y="-9" type="curve"/>
      <point x="250" y="54" type="line"/>
      <point x="175" y="100"/>
      <point x="128" y="169"/>
      <point x="128" y="273" type="curve" smooth="yes"/>
      <point x="128" y="414"/>
      <point x="219" y="494"/>
      <point x="364" y="494" type="curve" smooth="yes"/>
      <point x="505" y="494"/>
      <point x="585" y="420"/>
      <point x="604" y="335" type="curve"/>
      <point x="607" y="330"/>
      <point x="605" y="317"/>
      <point x="607" y="310" type="curve" smooth="yes"/>
      <point x="612" y="283"/>
      <point x="614" y="251"/>
      <point x="614" y="248" type="curve" smooth="yes"/>
      <point x="614" y="112"/>
      <point x="566" y="58"/>
      <point x="485" y="58" type="curve" smooth="yes"/>
      <point x="407" y="58"/>
      <point x="375" y="114"/>
      <point x="375" y="198" type="curve" smooth="yes"/>
      <point x="375" y="279"/>
      <point x="412" y="334"/>
      <point x="496" y="334" type="curve" smooth="yes"/>
      <point x="576" y="334"/>
      <point x="628" y="270"/>
      <point x="643" y="209" type="curve"/>
      <point x="668" y="206" type="line"/>
      <point x="663" y="305"/>
      <point x="590" y="404"/>
      <point x="479" y="404" type="curve" smooth="yes"/>
      <point x="364" y="404"/>
      <point x="291" y="322"/>
      <point x="291" y="196" type="curve" smooth="yes"/>
      <point x="291" y="86"/>
      <point x="355" y="-12"/>
      <point x="485" y="-12" type="curve" smooth="yes"/>
      <point x="605" y="-12"/>
      <point x="697" y="63"/>
      <point x="697" y="242" type="curve" smooth="yes"/>
      <point x="697" y="429"/>
      <point x="586" y="566"/>
    </contour>
  </outline>
</glyph>
<glyph name="rramlym" format="2">
  <advance width="674"/>
  <unicode hex="0D31"/>
  <outline>
    <contour>
      <point x="341" y="566" type="curve" smooth="yes"/>
      <point x="146" y="566"/>
      <point x="39" y="441"/>
      <point x="39" y="277" type="curve" smooth="yes"/>
      <point x="39" y="135"/>
      <point x="114" y="40"/>
      <point x="200" y="-8" type="curve"/>
      <point x="250" y="54" type="line"/>
      <point x="175" y="100"/>
      <point x="128" y="169"/>
      <point x="128" y="273" type="curve" smooth="yes"/>
      <point x="128" y="397"/>
      <point x="205" y="494"/>
      <point x="338" y="494" type="curve" smooth="yes"/>
      <point x="472" y="494"/>
      <point x="546" y="402"/>
      <point x="546" y="271" type="curve" smooth="yes"/>
      <point x="546" y="164"/>
      <point x="490" y="93"/>
      <point x="425" y="54" type="curve"/>
      <point x="474" y="-9" type="line"/>
      <point x="567" y="50"/>
      <point x="635" y="141"/>
      <point x="635" y="281" type="curve" smooth="yes"/>
      <point x="635" y="439"/>
      <point x="539" y="566"/>
    </contour>
  </outline>
</glyph>
<glyph name="lamlym" format="2">
  <advance width="859"/>
  <unicode hex="0D32"/>
  <outline>
    <contour>
      <point x="788" y="554" type="line"/>
      <point x="702" y="554" type="line"/>
      <point x="702" y="70" type="line"/>
      <point x="149" y="70" type="line"/>
      <point x="149" y="222" type="line"/>
      <point x="544" y="222" type="line"/>
      <point x="544" y="322" type="line" smooth="yes"/>
      <point x="544" y="403"/>
      <point x="525" y="465"/>
      <point x="483" y="507" type="curve" smooth="yes"/>
      <point x="444" y="545"/>
      <point x="385" y="566"/>
      <point x="305" y="566" type="curve" smooth="yes"/>
      <point x="227" y="566"/>
      <point x="168" y="545"/>
      <point x="126" y="504" type="curve" smooth="yes"/>
      <point x="86" y="465"/>
      <point x="63" y="411"/>
      <point x="63" y="313" type="curve" smooth="yes"/>
      <point x="63" y="0" type="line"/>
      <point x="788" y="0" type="line"/>
    </contour>
    <contour>
      <point x="304" y="496" type="curve" smooth="yes"/>
      <point x="411" y="496"/>
      <point x="458" y="446"/>
      <point x="458" y="320" type="curve" smooth="yes"/>
      <point x="458" y="292" type="line"/>
      <point x="149" y="292" type="line"/>
      <point x="149" y="321" type="line" smooth="yes"/>
      <point x="149" y="443"/>
      <point x="196" y="496"/>
    </contour>
  </outline>
</glyph>
<glyph name="llamlym" format="2">
  <advance width="724"/>
  <unicode hex="0D33"/>
  <outline>
    <contour>
      <point x="398" y="496" type="curve" smooth="yes"/>
      <point x="535" y="496"/>
      <point x="586" y="457"/>
      <point x="586" y="396" type="curve" smooth="yes"/>
      <point x="586" y="368"/>
      <point x="578" y="349"/>
      <point x="554" y="331" type="curve" smooth="yes"/>
      <point x="531" y="314"/>
      <point x="501" y="310"/>
      <point x="454" y="310" type="curve" smooth="yes"/>
      <point x="447" y="310" type="line"/>
      <point x="447" y="279" type="line"/>
      <point x="541" y="263" type="line"/>
      <point x="634" y="285"/>
      <point x="673" y="334"/>
      <point x="673" y="402" type="curve" smooth="yes"/>
      <point x="673" y="510"/>
      <point x="588" y="566"/>
      <point x="399" y="566" type="curve" smooth="yes"/>
      <point x="169" y="566"/>
      <point x="40" y="458"/>
      <point x="40" y="313" type="curve" smooth="yes"/>
      <point x="40" y="186"/>
      <point x="107" y="115"/>
      <point x="210" y="115" type="curve" smooth="yes"/>
      <point x="326" y="115"/>
      <point x="378" y="189"/>
      <point x="378" y="270" type="curve" smooth="yes"/>
      <point x="378" y="347"/>
      <point x="333" y="416"/>
      <point x="229" y="416" type="curve" smooth="yes"/>
      <point x="153" y="416"/>
      <point x="97" y="368"/>
      <point x="66" y="329" type="curve"/>
      <point x="89" y="271" type="line"/>
      <point x="115" y="307"/>
      <point x="153" y="350"/>
      <point x="214" y="350" type="curve" smooth="yes"/>
      <point x="272" y="350"/>
      <point x="295" y="314"/>
      <point x="295" y="270" type="curve" smooth="yes"/>
      <point x="295" y="223"/>
      <point x="269" y="183"/>
      <point x="209" y="183" type="curve" smooth="yes"/>
      <point x="146" y="183"/>
      <point x="117" y="229"/>
      <point x="117" y="312" type="curve" smooth="yes"/>
      <point x="117" y="323"/>
      <point x="119" y="336"/>
      <point x="123" y="351" type="curve" smooth="yes"/>
      <point x="124" y="355"/>
      <point x="120" y="364"/>
      <point x="122" y="369" type="curve" smooth="yes"/>
      <point x="152" y="437"/>
      <point x="244" y="496"/>
    </contour>
    <contour>
      <point x="685" y="144" type="curve" smooth="yes"/>
      <point x="685" y="213"/>
      <point x="644" y="268"/>
      <point x="552" y="285" type="curve"/>
      <point x="447" y="293" type="line"/>
      <point x="447" y="240" type="line"/>
      <point x="466" y="240" type="line" smooth="yes"/>
      <point x="518" y="240"/>
      <point x="545" y="231"/>
      <point x="565" y="218" type="curve" smooth="yes"/>
      <point x="587" y="202"/>
      <point x="598" y="180"/>
      <point x="598" y="154" type="curve" smooth="yes"/>
      <point x="598" y="124"/>
      <point x="590" y="106"/>
      <point x="574" y="93" type="curve" smooth="yes"/>
      <point x="554" y="76"/>
      <point x="520" y="70"/>
      <point x="465" y="70" type="curve" smooth="yes"/>
      <point x="238" y="70" type="line" smooth="yes"/>
      <point x="168" y="70"/>
      <point x="131" y="59"/>
      <point x="103" y="40" type="curve" smooth="yes"/>
      <point x="65" y="16"/>
      <point x="50" y="-22"/>
      <point x="50" y="-68" type="curve" smooth="yes"/>
      <point x="50" y="-112"/>
      <point x="69" y="-147"/>
      <point x="106" y="-170" type="curve" smooth="yes"/>
      <point x="139" y="-190"/>
      <point x="186" y="-201"/>
      <point x="255" y="-201" type="curve" smooth="yes"/>
      <point x="667" y="-201" type="line"/>
      <point x="667" y="-129" type="line"/>
      <point x="259" y="-129" type="line" smooth="yes"/>
      <point x="203" y="-129"/>
      <point x="176" y="-122"/>
      <point x="159" y="-110" type="curve" smooth="yes"/>
      <point x="142" y="-99"/>
      <point x="136" y="-82"/>
      <point x="136" y="-62" type="curve" smooth="yes"/>
      <point x="136" y="-41"/>
      <point x="145" y="-23"/>
      <point x="166" y="-13" type="curve"/>
      <point x="182" y="-4"/>
      <point x="206" y="0"/>
      <point x="261" y="0" type="curve" smooth="yes"/>
      <point x="473" y="0" type="line" smooth="yes"/>
      <point x="568" y="0"/>
      <point x="609" y="14"/>
      <point x="641" y="42" type="curve" smooth="yes"/>
      <point x="669" y="66"/>
      <point x="685" y="102"/>
    </contour>
  </outline>
</glyph>
<glyph name="lllamlym" format="2">
  <advance width="654"/>
  <unicode hex="0D34"/>
  <outline>
    <contour>
      <point x="263" y="404" type="curve" smooth="yes"/>
      <point x="263" y="282"/>
      <point x="352" y="228"/>
      <point x="352" y="126" type="curve" smooth="yes"/>
      <point x="352" y="89"/>
      <point x="338" y="59"/>
      <point x="271" y="59" type="curve" smooth="yes"/>
      <point x="223" y="59"/>
      <point x="179" y="73"/>
      <point x="143" y="94" type="curve"/>
      <point x="112" y="27" type="line"/>
      <point x="166" y="-2"/>
      <point x="223" y="-12"/>
      <point x="272" y="-12" type="curve" smooth="yes"/>
      <point x="407" y="-12"/>
      <point x="435" y="65"/>
      <point x="435" y="123" type="curve" smooth="yes"/>
      <point x="435" y="229"/>
      <point x="347" y="292"/>
      <point x="347" y="403" type="curve" smooth="yes"/>
      <point x="347" y="456"/>
      <point x="375" y="497"/>
      <point x="439" y="497" type="curve" smooth="yes"/>
      <point x="509" y="497"/>
      <point x="531" y="449"/>
      <point x="531" y="397" type="curve" smooth="yes"/>
      <point x="531" y="299"/>
      <point x="466" y="219"/>
      <point x="351" y="219" type="curve" smooth="yes"/>
      <point x="332" y="219" type="line" smooth="yes"/>
      <point x="208" y="219"/>
      <point x="123" y="276"/>
      <point x="123" y="404" type="curve" smooth="yes"/>
      <point x="123" y="443"/>
      <point x="129" y="478"/>
      <point x="158" y="529" type="curve"/>
      <point x="91" y="566" type="line"/>
      <point x="51" y="507"/>
      <point x="37" y="452"/>
      <point x="37" y="401" type="curve" smooth="yes"/>
      <point x="37" y="258"/>
      <point x="130" y="150"/>
      <point x="330" y="150" type="curve" smooth="yes"/>
      <point x="351" y="150" type="line" smooth="yes"/>
      <point x="514" y="150"/>
      <point x="617" y="258"/>
      <point x="617" y="392" type="curve" smooth="yes"/>
      <point x="617" y="476"/>
      <point x="568" y="566"/>
      <point x="441" y="566" type="curve" smooth="yes"/>
      <point x="324" y="566"/>
      <point x="263" y="495"/>
    </contour>
  </outline>
</glyph>
<glyph name="vamlym" format="2">
  <advance width="958"/>
  <unicode hex="0D35"/>
  <outline>
    <contour>
      <point x="341" y="566" type="curve" smooth="yes"/>
      <point x="146" y="566"/>
      <point x="39" y="441"/>
      <point x="39" y="277" type="curve" smooth="yes"/>
      <point x="39" y="135"/>
      <point x="114" y="40"/>
      <point x="200" y="-9" type="curve"/>
      <point x="250" y="54" type="line"/>
      <point x="175" y="100"/>
      <point x="128" y="169"/>
      <point x="128" y="273" type="curve" smooth="yes"/>
      <point x="128" y="397"/>
      <point x="205" y="494"/>
      <point x="337" y="494" type="curve" smooth="yes"/>
      <point x="472" y="494"/>
      <point x="546" y="402"/>
      <point x="546" y="271" type="curve" smooth="yes"/>
      <point x="546" y="164"/>
      <point x="491" y="99"/>
      <point x="433" y="59" type="curve"/>
      <point x="467" y="0" type="line"/>
      <point x="887" y="0" type="line"/>
      <point x="887" y="554" type="line"/>
      <point x="801" y="554" type="line"/>
      <point x="801" y="70" type="line"/>
      <point x="517" y="70" type="line"/>
      <point x="541" y="53" type="line"/>
      <point x="592" y="108"/>
      <point x="635" y="175"/>
      <point x="635" y="281" type="curve" smooth="yes"/>
      <point x="635" y="439"/>
      <point x="539" y="566"/>
    </contour>
  </outline>
</glyph>
<glyph name="shamlym" format="2">
  <advance width="1040"/>
  <unicode hex="0D36"/>
  <outline>
    <contour>
      <point x="684" y="566" type="curve" smooth="yes"/>
      <point x="602" y="566"/>
      <point x="540" y="548"/>
      <point x="488" y="506" type="curve" smooth="yes"/>
      <point x="433" y="461"/>
      <point x="404" y="396"/>
      <point x="404" y="280" type="curve" smooth="yes"/>
      <point x="404" y="265" type="line" smooth="yes"/>
      <point x="404" y="206"/>
      <point x="400" y="140"/>
      <point x="377" y="106" type="curve" smooth="yes"/>
      <point x="358" y="78"/>
      <point x="330" y="60"/>
      <point x="274" y="60" type="curve" smooth="yes"/>
      <point x="185" y="60"/>
      <point x="127" y="141"/>
      <point x="127" y="265" type="curve" smooth="yes"/>
      <point x="127" y="379"/>
      <point x="177" y="455"/>
      <point x="248" y="504" type="curve"/>
      <point x="194" y="566" type="line"/>
      <point x="93" y="487"/>
      <point x="39" y="398"/>
      <point x="39" y="263" type="curve" smooth="yes"/>
      <point x="39" y="90"/>
      <point x="131" y="-12"/>
      <point x="278" y="-12" type="curve" smooth="yes"/>
      <point x="354" y="-12"/>
      <point x="404" y="11"/>
      <point x="439" y="51" type="curve" smooth="yes"/>
      <point x="477" y="94"/>
      <point x="492" y="148"/>
      <point x="492" y="246" type="curve" smooth="yes"/>
      <point x="492" y="263" type="line" smooth="yes"/>
      <point x="492" y="355"/>
      <point x="510" y="421"/>
      <point x="559" y="459" type="curve" smooth="yes"/>
      <point x="588" y="481"/>
      <point x="632" y="494"/>
      <point x="689" y="494" type="curve" smooth="yes"/>
      <point x="801" y="494"/>
      <point x="888" y="427"/>
      <point x="911" y="334" type="curve"/>
      <point x="913" y="330"/>
      <point x="910" y="317"/>
      <point x="911" y="310" type="curve" smooth="yes"/>
      <point x="916" y="283"/>
      <point x="918" y="251"/>
      <point x="918" y="248" type="curve" smooth="yes"/>
      <point x="918" y="112"/>
      <point x="870" y="58"/>
      <point x="789" y="58" type="curve" smooth="yes"/>
      <point x="711" y="58"/>
      <point x="679" y="114"/>
      <point x="679" y="198" type="curve" smooth="yes"/>
      <point x="679" y="279"/>
      <point x="716" y="334"/>
      <point x="800" y="334" type="curve" smooth="yes"/>
      <point x="880" y="334"/>
      <point x="932" y="270"/>
      <point x="947" y="209" type="curve"/>
      <point x="973" y="206" type="line"/>
      <point x="967" y="305"/>
      <point x="894" y="404"/>
      <point x="783" y="404" type="curve" smooth="yes"/>
      <point x="668" y="404"/>
      <point x="595" y="322"/>
      <point x="595" y="196" type="curve" smooth="yes"/>
      <point x="595" y="86"/>
      <point x="659" y="-12"/>
      <point x="789" y="-12" type="curve" smooth="yes"/>
      <point x="909" y="-12"/>
      <point x="1001" y="63"/>
      <point x="1001" y="242" type="curve" smooth="yes"/>
      <point x="1001" y="438"/>
      <point x="883" y="566"/>
    </contour>
  </outline>
</glyph>
<glyph name="ssamlym" format="2">
  <advance width="1149"/>
  <unicode hex="0D37"/>
  <outline>
    <contour>
      <point x="229" y="346" type="curve" smooth="yes"/>
      <point x="110" y="346"/>
      <point x="32" y="271"/>
      <point x="32" y="166" type="curve" smooth="yes"/>
      <point x="32" y="90"/>
      <point x="73" y="34"/>
      <point x="129" y="-7" type="curve"/>
      <point x="175" y="51" type="line"/>
      <point x="133" y="81"/>
      <point x="116" y="119"/>
      <point x="116" y="164" type="curve" smooth="yes"/>
      <point x="116" y="225"/>
      <point x="158" y="276"/>
      <point x="229" y="276" type="curve" smooth="yes"/>
      <point x="304" y="276"/>
      <point x="343" y="230"/>
      <point x="343" y="158" type="curve" smooth="yes"/>
      <point x="343" y="109"/>
      <point x="326" y="78"/>
      <point x="299" y="52" type="curve"/>
      <point x="328" y="0" type="line"/>
      <point x="692" y="0" type="line"/>
      <point x="677" y="70" type="line"/>
      <point x="357" y="70" type="line"/>
      <point x="382" y="57" type="line"/>
      <point x="407" y="75"/>
      <point x="427" y="119"/>
      <point x="427" y="173" type="curve" smooth="yes"/>
      <point x="427" y="258"/>
      <point x="364" y="346"/>
    </contour>
    <contour>
      <point x="658" y="0" type="line"/>
      <point x="1078" y="0" type="line"/>
      <point x="1078" y="554" type="line"/>
      <point x="994" y="554" type="line"/>
      <point x="934" y="435"/>
      <point x="848" y="304"/>
      <point x="683" y="304" type="curve" smooth="yes"/>
      <point x="658" y="304" type="line" smooth="yes"/>
      <point x="552" y="304"/>
      <point x="519" y="357"/>
      <point x="519" y="418" type="curve" smooth="yes"/>
      <point x="519" y="470"/>
      <point x="545" y="496"/>
      <point x="586" y="496" type="curve" smooth="yes"/>
      <point x="612" y="496"/>
      <point x="627" y="486"/>
      <point x="638" y="473" type="curve" smooth="yes"/>
      <point x="654" y="454"/>
      <point x="658" y="421"/>
      <point x="658" y="381" type="curve" smooth="yes"/>
    </contour>
    <contour>
      <point x="590" y="566" type="curve" smooth="yes"/>
      <point x="487" y="566"/>
      <point x="433" y="492"/>
      <point x="433" y="417" type="curve" smooth="yes"/>
      <point x="433" y="317"/>
      <point x="502" y="235"/>
      <point x="665" y="235" type="curve" smooth="yes"/>
      <point x="696" y="235" type="line" smooth="yes"/>
      <point x="825" y="235"/>
      <point x="945" y="313"/>
      <point x="999" y="443" type="curve"/>
      <point x="997" y="445" type="line"/>
      <point x="993" y="422"/>
      <point x="992" y="363"/>
      <point x="992" y="329" type="curve" smooth="yes"/>
      <point x="992" y="70" type="line"/>
      <point x="744" y="70" type="line"/>
      <point x="744" y="386" type="line" smooth="yes"/>
      <point x="744" y="467"/>
      <point x="727" y="509"/>
      <point x="693" y="536" type="curve" smooth="yes"/>
      <point x="667" y="556"/>
      <point x="634" y="566"/>
    </contour>
  </outline>
</glyph>
<glyph name="samlym" format="2">
  <advance width="1223"/>
  <unicode hex="0D38"/>
  <outline>
    <contour>
      <point x="627" y="566" type="curve" smooth="yes"/>
      <point x="548" y="566"/>
      <point x="491" y="536"/>
      <point x="454" y="473" type="curve"/>
      <point x="459" y="472" type="line"/>
      <point x="422" y="529"/>
      <point x="375" y="566"/>
      <point x="288" y="566" type="curve" smooth="yes"/>
      <point x="128" y="566"/>
      <point x="39" y="444"/>
      <point x="39" y="292" type="curve" smooth="yes"/>
      <point x="39" y="146"/>
      <point x="103" y="62"/>
      <point x="189" y="-8" type="curve"/>
      <point x="247" y="55" type="line"/>
      <point x="181" y="100"/>
      <point x="127" y="171"/>
      <point x="127" y="292" type="curve" smooth="yes"/>
      <point x="127" y="408"/>
      <point x="192" y="494"/>
      <point x="284" y="494" type="curve" smooth="yes"/>
      <point x="332" y="494"/>
      <point x="367" y="475"/>
      <point x="390" y="436" type="curve" smooth="yes"/>
      <point x="408" y="406"/>
      <point x="412" y="367"/>
      <point x="412" y="292" type="curve" smooth="yes"/>
      <point x="412" y="0" type="line"/>
      <point x="498" y="0" type="line"/>
      <point x="498" y="309" type="line" smooth="yes"/>
      <point x="498" y="391"/>
      <point x="508" y="429"/>
      <point x="531" y="457" type="curve" smooth="yes"/>
      <point x="550" y="480"/>
      <point x="578" y="494"/>
      <point x="615" y="494" type="curve" smooth="yes"/>
      <point x="655" y="494"/>
      <point x="681" y="482"/>
      <point x="699" y="460" type="curve" smooth="yes"/>
      <point x="723" y="432"/>
      <point x="732" y="388"/>
      <point x="732" y="295" type="curve" smooth="yes"/>
      <point x="732" y="246" type="line" smooth="yes"/>
      <point x="732" y="147"/>
      <point x="746" y="95"/>
      <point x="784" y="51" type="curve" smooth="yes"/>
      <point x="819" y="11"/>
      <point x="869" y="-12"/>
      <point x="945" y="-12" type="curve" smooth="yes"/>
      <point x="1092" y="-12"/>
      <point x="1184" y="90"/>
      <point x="1184" y="263" type="curve" smooth="yes"/>
      <point x="1184" y="398"/>
      <point x="1130" y="487"/>
      <point x="1029" y="566" type="curve"/>
      <point x="976" y="504" type="line"/>
      <point x="1046" y="455"/>
      <point x="1096" y="379"/>
      <point x="1096" y="266" type="curve" smooth="yes"/>
      <point x="1096" y="141"/>
      <point x="1038" y="60"/>
      <point x="949" y="60" type="curve" smooth="yes"/>
      <point x="891" y="60"/>
      <point x="864" y="78"/>
      <point x="846" y="106" type="curve" smooth="yes"/>
      <point x="824" y="140"/>
      <point x="819" y="196"/>
      <point x="819" y="269" type="curve" smooth="yes"/>
      <point x="819" y="303" type="line" smooth="yes"/>
      <point x="819" y="435"/>
      <point x="795" y="475"/>
      <point x="768" y="507" type="curve" smooth="yes"/>
      <point x="735" y="547"/>
      <point x="686" y="566"/>
    </contour>
  </outline>
</glyph>
<glyph name="hamlym" format="2">
  <advance width="1190"/>
  <unicode hex="0D39"/>
  <outline>
    <contour>
      <point x="229" y="346" type="curve" smooth="yes"/>
      <point x="110" y="346"/>
      <point x="32" y="271"/>
      <point x="32" y="166" type="curve" smooth="yes"/>
      <point x="32" y="90"/>
      <point x="73" y="34"/>
      <point x="129" y="-7" type="curve"/>
      <point x="175" y="51" type="line"/>
      <point x="133" y="81"/>
      <point x="116" y="119"/>
      <point x="116" y="164" type="curve" smooth="yes"/>
      <point x="116" y="225"/>
      <point x="158" y="276"/>
      <point x="229" y="276" type="curve" smooth="yes"/>
      <point x="304" y="276"/>
      <point x="343" y="230"/>
      <point x="343" y="158" type="curve" smooth="yes"/>
      <point x="343" y="109"/>
      <point x="326" y="78"/>
      <point x="299" y="52" type="curve"/>
      <point x="328" y="0" type="line"/>
      <point x="691" y="0" type="line"/>
      <point x="676" y="70" type="line"/>
      <point x="357" y="70" type="line"/>
      <point x="382" y="57" type="line"/>
      <point x="407" y="75"/>
      <point x="427" y="119"/>
      <point x="427" y="173" type="curve" smooth="yes"/>
      <point x="427" y="258"/>
      <point x="364" y="346"/>
    </contour>
    <contour>
      <point x="856" y="566" type="curve" smooth="yes"/>
      <point x="662" y="566"/>
      <point x="555" y="441"/>
      <point x="555" y="278" type="curve" smooth="yes"/>
      <point x="555" y="181"/>
      <point x="595" y="113"/>
      <point x="638" y="64" type="curve"/>
      <point x="686" y="0" type="line"/>
      <point x="719" y="0" type="line"/>
      <point x="757" y="59" type="line"/>
      <point x="686" y="107"/>
      <point x="644" y="171"/>
      <point x="644" y="273" type="curve" smooth="yes"/>
      <point x="644" y="397"/>
      <point x="721" y="494"/>
      <point x="854" y="494" type="curve" smooth="yes"/>
      <point x="987" y="494"/>
      <point x="1062" y="402"/>
      <point x="1062" y="271" type="curve" smooth="yes"/>
      <point x="1062" y="164"/>
      <point x="1006" y="93"/>
      <point x="940" y="54" type="curve"/>
      <point x="990" y="-9" type="line"/>
      <point x="1083" y="50"/>
      <point x="1151" y="141"/>
      <point x="1151" y="281" type="curve" smooth="yes"/>
      <point x="1151" y="439"/>
      <point x="1055" y="566"/>
    </contour>
  </outline>
</glyph>
<glyph name="tttamlym" format="2">
  <advance width="773"/>
  <unicode hex="0D3A"/>
  <outline>
    <contour>
      <point x="756" y="70" type="line"/>
      <point x="118" y="70" type="line"/>
      <point x="294" y="534" type="line"/>
      <point x="214" y="559" type="line"/>
      <point x="21" y="49" type="line"/>
      <point x="65" y="0" type="line"/>
      <point x="388" y="0" type="line"/>
      <point x="388" y="-202" type="line"/>
      <point x="476" y="-202" type="line"/>
      <point x="476" y="0" type="line"/>
      <point x="756" y="0" type="line"/>
    </contour>
  </outline>
</glyph>
<glyph name="avagrahamlym" format="2">
  <advance width="466"/>
  <unicode hex="0D3D"/>
  <outline>
    <contour>
      <point x="378" y="792" type="curve" smooth="yes"/>
      <point x="314" y="792"/>
      <point x="264" y="767"/>
      <point x="236" y="733" type="curve" smooth="yes"/>
      <point x="198" y="687"/>
      <point x="188" y="635"/>
      <point x="188" y="529" type="curve" smooth="yes"/>
      <point x="188" y="0" type="line" smooth="yes"/>
      <point x="188" y="-75"/>
      <point x="181" y="-110"/>
      <point x="163" y="-137" type="curve" smooth="yes"/>
      <point x="147" y="-161"/>
      <point x="123" y="-174"/>
      <point x="89" y="-174" type="curve" smooth="yes"/>
      <point x="36" y="-174"/>
      <point x="15" y="-133"/>
      <point x="0" y="-81" type="curve"/>
      <point x="-87" y="-97" type="line"/>
      <point x="-66" y="-180"/>
      <point x="-12" y="-244"/>
      <point x="87" y="-244" type="curve" smooth="yes"/>
      <point x="153" y="-244"/>
      <point x="198" y="-224"/>
      <point x="227" y="-188" type="curve" smooth="yes"/>
      <point x="265" y="-142"/>
      <point x="277" y="-77"/>
      <point x="277" y="5" type="curve"/>
      <point x="277" y="535" type="line" smooth="yes"/>
      <point x="277" y="619"/>
      <point x="285" y="658"/>
      <point x="303" y="685" type="curve" smooth="yes"/>
      <point x="319" y="709"/>
      <point x="343" y="722"/>
      <point x="377" y="722" type="curve" smooth="yes"/>
      <point x="430" y="722"/>
      <point x="451" y="681"/>
      <point x="466" y="629" type="curve"/>
      <point x="553" y="646" type="line"/>
      <point x="532" y="729"/>
      <point x="478" y="792"/>
    </contour>
  </outline>
</glyph>
<glyph name="aavowelsignmlym" format="2">
  <advance width="504"/>
  <unicode hex="0D3E"/>
  <outline>
    <contour>
      <point x="463" y="279" type="curve" smooth="yes"/>
      <point x="463" y="428"/>
      <point x="406" y="566"/>
      <point x="241" y="566" type="curve" smooth="yes"/>
      <point x="104" y="566"/>
      <point x="45" y="471"/>
      <point x="21" y="387" type="curve"/>
      <point x="107" y="370" type="line"/>
      <point x="120" y="424"/>
      <point x="157" y="496"/>
      <point x="235" y="496" type="curve" smooth="yes"/>
      <point x="333" y="496"/>
      <point x="375" y="408"/>
      <point x="375" y="278" type="curve" smooth="yes"/>
      <point x="375" y="148"/>
      <point x="335" y="58"/>
      <point x="230" y="58" type="curve" smooth="yes"/>
      <point x="147" y="58"/>
      <point x="118" y="131"/>
      <point x="104" y="186" type="curve"/>
      <point x="17" y="169" type="line"/>
      <point x="35" y="88"/>
      <point x="95" y="-12"/>
      <point x="231" y="-12" type="curve" smooth="yes"/>
      <point x="407" y="-12"/>
      <point x="463" y="125"/>
    </contour>
  </outline>
</glyph>
<glyph name="ivowelsignmlym" format="2">
  <advance width="228"/>
  <unicode hex="0D3F"/>
  <outline>
    <contour>
      <point x="-34" y="843" type="curve" smooth="yes"/>
      <point x="-128" y="843"/>
      <point x="-211" y="787"/>
      <point x="-211" y="674" type="curve" smooth="yes"/>
      <point x="-211" y="659"/>
      <point x="-208" y="642"/>
      <point x="-205" y="626" type="curve"/>
      <point x="-121" y="641" type="line"/>
      <point x="-123" y="653"/>
      <point x="-125" y="666"/>
      <point x="-125" y="678" type="curve" smooth="yes"/>
      <point x="-125" y="747"/>
      <point x="-76" y="773"/>
      <point x="-32" y="773" type="curve" smooth="yes"/>
      <point x="2" y="773"/>
      <point x="25" y="760"/>
      <point x="41" y="739" type="curve" smooth="yes"/>
      <point x="64" y="706"/>
      <point x="71" y="645"/>
      <point x="71" y="542" type="curve" smooth="yes"/>
      <point x="71" y="0" type="line"/>
      <point x="157" y="0" type="line"/>
      <point x="157" y="567" type="line" smooth="yes"/>
      <point x="157" y="714"/>
      <point x="138" y="768"/>
      <point x="83" y="810" type="curve" smooth="yes"/>
      <point x="53" y="833"/>
      <point x="16" y="843"/>
    </contour>
  </outline>
</glyph>
<glyph name="iivowelsignmlym" format="2">
  <advance width="228"/>
  <unicode hex="0D40"/>
  <outline>
    <contour>
      <point x="-109" y="843" type="curve" smooth="yes"/>
      <point x="-221" y="843"/>
      <point x="-287" y="786"/>
      <point x="-287" y="708" type="curve" smooth="yes"/>
      <point x="-287" y="624"/>
      <point x="-221" y="578"/>
      <point x="-149" y="578" type="curve"/>
      <point x="-43" y="578"/>
      <point x="-7" y="638"/>
      <point x="-7" y="706" type="curve" smooth="yes"/>
      <point x="-7" y="732"/>
      <point x="-13" y="756"/>
      <point x="-24" y="770" type="curve"/>
      <point x="-116" y="790" type="line"/>
      <point x="-91" y="772"/>
      <point x="-77" y="742"/>
      <point x="-77" y="711" type="curve" smooth="yes"/>
      <point x="-77" y="678"/>
      <point x="-95" y="645"/>
      <point x="-145" y="645" type="curve" smooth="yes"/>
      <point x="-190" y="645"/>
      <point x="-209" y="674"/>
      <point x="-209" y="706" type="curve" smooth="yes"/>
      <point x="-209" y="754"/>
      <point x="-166" y="779"/>
      <point x="-117" y="779" type="curve" smooth="yes"/>
      <point x="-32" y="779"/>
      <point x="21" y="762"/>
      <point x="50" y="696" type="curve" smooth="yes"/>
      <point x="67" y="657"/>
      <point x="71" y="604"/>
      <point x="71" y="525" type="curve" smooth="yes"/>
      <point x="71" y="0" type="line"/>
      <point x="157" y="0" type="line"/>
      <point x="157" y="542" type="line" smooth="yes"/>
      <point x="157" y="678"/>
      <point x="135" y="756"/>
      <point x="59" y="803" type="curve" smooth="yes"/>
      <point x="7" y="835"/>
      <point x="-53" y="843"/>
    </contour>
  </outline>
</glyph>
<glyph name="uvowelsignmlym" format="2">
  <advance width="332"/>
  <unicode hex="0D41"/>
  <outline>
    <contour>
      <point x="155" y="-227" type="curve" smooth="yes"/>
      <point x="261" y="-227"/>
      <point x="335" y="-159"/>
      <point x="335" y="-53" type="curve" smooth="yes"/>
      <point x="335" y="54"/>
      <point x="261" y="120"/>
      <point x="154" y="120" type="curve" smooth="yes"/>
      <point x="49" y="120"/>
      <point x="-26" y="50"/>
      <point x="-26" y="-53" type="curve" smooth="yes"/>
      <point x="-26" y="-156"/>
      <point x="43" y="-227"/>
    </contour>
    <contour>
      <point x="155" y="-161" type="curve" smooth="yes"/>
      <point x="99" y="-161"/>
      <point x="56" y="-124"/>
      <point x="56" y="-54" type="curve" smooth="yes"/>
      <point x="56" y="18"/>
      <point x="98" y="54"/>
      <point x="154" y="54" type="curve" smooth="yes"/>
      <point x="211" y="54"/>
      <point x="253" y="18"/>
      <point x="253" y="-53" type="curve" smooth="yes"/>
      <point x="253" y="-125"/>
      <point x="209" y="-161"/>
    </contour>
    <contour>
      <point x="104" y="566" type="curve" smooth="yes"/>
      <point x="71" y="566"/>
      <point x="38" y="561"/>
      <point x="17" y="555" type="curve"/>
      <point x="34" y="486" type="line"/>
      <point x="48" y="490"/>
      <point x="72" y="494"/>
      <point x="94" y="494" type="curve" smooth="yes"/>
      <point x="157" y="494"/>
      <point x="174" y="451"/>
      <point x="174" y="395" type="curve" smooth="yes"/>
      <point x="174" y="308"/>
      <point x="152" y="214"/>
      <point x="119" y="99" type="curve"/>
      <point x="199" y="84" type="line"/>
      <point x="236" y="201"/>
      <point x="262" y="319"/>
      <point x="262" y="400" type="curve" smooth="yes"/>
      <point x="262" y="490"/>
      <point x="223" y="566"/>
    </contour>
  </outline>
</glyph>
<glyph name="uuvowelsignmlym" format="2">
  <advance width="332"/>
  <unicode hex="0D42"/>
  <outline>
    <contour>
      <point x="154" y="-227" type="curve" smooth="yes"/>
      <point x="260" y="-227"/>
      <point x="335" y="-159"/>
      <point x="335" y="-53" type="curve" smooth="yes"/>
      <point x="335" y="54"/>
      <point x="260" y="120"/>
      <point x="154" y="120" type="curve" smooth="yes"/>
      <point x="48" y="120"/>
      <point x="-26" y="50"/>
      <point x="-26" y="-53" type="curve" smooth="yes"/>
      <point x="-26" y="-156"/>
      <point x="42" y="-227"/>
    </contour>
    <contour>
      <point x="153" y="57" type="curve" smooth="yes"/>
      <point x="217" y="57"/>
      <point x="268" y="20"/>
      <point x="268" y="-53" type="curve" smooth="yes"/>
      <point x="268" y="-127"/>
      <point x="216" y="-164"/>
      <point x="154" y="-164" type="curve" smooth="yes"/>
      <point x="89" y="-164"/>
      <point x="40" y="-127"/>
      <point x="40" y="-54" type="curve" smooth="yes"/>
      <point x="40" y="20"/>
      <point x="90" y="57"/>
    </contour>
    <contour>
      <point x="154" y="-98" type="curve" smooth="yes"/>
      <point x="239" y="-98"/>
      <point x="269" y="-40"/>
      <point x="269" y="18" type="curve" smooth="yes"/>
      <point x="269" y="47"/>
      <point x="256" y="65"/>
      <point x="228" y="97" type="curve"/>
      <point x="185" y="63" type="line"/>
      <point x="208" y="52"/>
      <point x="217" y="34"/>
      <point x="217" y="21" type="curve" smooth="yes"/>
      <point x="217" y="-11"/>
      <point x="192" y="-30"/>
      <point x="155" y="-30" type="curve" smooth="yes"/>
      <point x="113" y="-30"/>
      <point x="90" y="-11"/>
      <point x="90" y="21" type="curve" smooth="yes"/>
      <point x="90" y="37"/>
      <point x="100" y="58"/>
      <point x="124" y="68" type="curve"/>
      <point x="81" y="97" type="line"/>
      <point x="55" y="66"/>
      <point x="41" y="42"/>
      <point x="41" y="19" type="curve" smooth="yes"/>
      <point x="41" y="-51"/>
      <point x="78" y="-98"/>
    </contour>
    <contour>
      <point x="104" y="566" type="curve" smooth="yes"/>
      <point x="71" y="566"/>
      <point x="38" y="561"/>
      <point x="17" y="555" type="curve"/>
      <point x="34" y="486" type="line"/>
      <point x="48" y="490"/>
      <point x="72" y="494"/>
      <point x="94" y="494" type="curve" smooth="yes"/>
      <point x="157" y="494"/>
      <point x="174" y="451"/>
      <point x="174" y="395" type="curve" smooth="yes"/>
      <point x="174" y="308"/>
      <point x="152" y="214"/>
      <point x="119" y="99" type="curve"/>
      <point x="199" y="84" type="line"/>
      <point x="236" y="201"/>
      <point x="262" y="319"/>
      <point x="262" y="400" type="curve" smooth="yes"/>
      <point x="262" y="490"/>
      <point x="223" y="566"/>
    </contour>
  </outline>
</glyph>
<glyph name="rvocalicvowelsignmlym" format="2">
  <advance width="243"/>
  <unicode hex="0D43"/>
  <outline>
    <contour>
      <point x="31" y="-316" type="curve" smooth="yes"/>
      <point x="138" y="-316"/>
      <point x="237" y="-259"/>
      <point x="237" y="-122" type="curve" smooth="yes"/>
      <point x="237" y="-41"/>
      <point x="212" y="27"/>
      <point x="180" y="106" type="curve" smooth="yes"/>
      <point x="156" y="167"/>
      <point x="133" y="228"/>
      <point x="133" y="305" type="curve" smooth="yes"/>
      <point x="133" y="389"/>
      <point x="155" y="459"/>
      <point x="210" y="554" type="curve"/>
      <point x="119" y="554" type="line"/>
      <point x="77" y="480"/>
      <point x="45" y="387"/>
      <point x="45" y="300" type="curve" smooth="yes"/>
      <point x="45" y="219"/>
      <point x="69" y="153"/>
      <point x="96" y="88" type="curve" smooth="yes"/>
      <point x="122" y="25"/>
      <point x="154" y="-51"/>
      <point x="154" y="-124" type="curve" smooth="yes"/>
      <point x="154" y="-210"/>
      <point x="103" y="-246"/>
      <point x="32" y="-246" type="curve" smooth="yes"/>
      <point x="-25" y="-246"/>
      <point x="-61" y="-221"/>
      <point x="-61" y="-173" type="curve" smooth="yes"/>
      <point x="-61" y="-123"/>
      <point x="-25" y="-99"/>
      <point x="27" y="-99" type="curve" smooth="yes"/>
      <point x="80" y="-99"/>
      <point x="127" y="-118"/>
      <point x="175" y="-164" type="curve"/>
      <point x="198" y="-104" type="line"/>
      <point x="140" y="-50"/>
      <point x="84" y="-29"/>
      <point x="21" y="-29" type="curve" smooth="yes"/>
      <point x="-76" y="-29"/>
      <point x="-144" y="-83"/>
      <point x="-144" y="-169" type="curve" smooth="yes"/>
      <point x="-144" y="-264"/>
      <point x="-65" y="-316"/>
    </contour>
  </outline>
</glyph>
<glyph name="rrvocalicvowelsignmlym" format="2">
  <advance width="243"/>
  <unicode hex="0D44"/>
  <outline>
    <contour>
      <point x="-19" y="-316" type="curve" smooth="yes"/>
      <point x="123" y="-316"/>
      <point x="237" y="-259"/>
      <point x="237" y="-122" type="curve" smooth="yes"/>
      <point x="237" y="-45"/>
      <point x="212" y="29"/>
      <point x="180" y="107" type="curve" smooth="yes"/>
      <point x="155" y="168"/>
      <point x="133" y="228"/>
      <point x="133" y="305" type="curve" smooth="yes"/>
      <point x="133" y="389"/>
      <point x="155" y="459"/>
      <point x="210" y="554" type="curve"/>
      <point x="119" y="554" type="line"/>
      <point x="77" y="480"/>
      <point x="45" y="387"/>
      <point x="45" y="300" type="curve" smooth="yes"/>
      <point x="45" y="220"/>
      <point x="68" y="152"/>
      <point x="95" y="87" type="curve" smooth="yes"/>
      <point x="121" y="24"/>
      <point x="151" y="-54"/>
      <point x="151" y="-125" type="curve" smooth="yes"/>
      <point x="151" y="-211"/>
      <point x="81" y="-246"/>
      <point x="-18" y="-246" type="curve" smooth="yes"/>
      <point x="-125" y="-246"/>
      <point x="-186" y="-222"/>
      <point x="-186" y="-156" type="curve" smooth="yes"/>
      <point x="-186" y="-122"/>
      <point x="-168" y="-102"/>
      <point x="-139" y="-102" type="curve" smooth="yes"/>
      <point x="-103" y="-102"/>
      <point x="-96" y="-125"/>
      <point x="-96" y="-166" type="curve" smooth="yes"/>
      <point x="-96" y="-176" type="line"/>
      <point x="-27" y="-176" type="line"/>
      <point x="-27" y="-165" type="line" smooth="yes"/>
      <point x="-27" y="-128"/>
      <point x="-21" y="-102"/>
      <point x="17" y="-102" type="curve" smooth="yes"/>
      <point x="49" y="-102"/>
      <point x="59" y="-121"/>
      <point x="59" y="-166" type="curve" smooth="yes"/>
      <point x="59" y="-176" type="line"/>
      <point x="127" y="-176" type="line"/>
      <point x="127" y="-151" type="line" smooth="yes"/>
      <point x="127" y="-110"/>
      <point x="114" y="-37"/>
      <point x="24" y="-37" type="curve" smooth="yes"/>
      <point x="-19" y="-37"/>
      <point x="-45" y="-54"/>
      <point x="-64" y="-86" type="curve"/>
      <point x="-58" y="-87" type="line"/>
      <point x="-73" y="-56"/>
      <point x="-101" y="-37"/>
      <point x="-146" y="-37" type="curve" smooth="yes"/>
      <point x="-217" y="-37"/>
      <point x="-264" y="-85"/>
      <point x="-264" y="-153" type="curve" smooth="yes"/>
      <point x="-264" y="-267"/>
      <point x="-169" y="-316"/>
    </contour>
  </outline>
</glyph>
<glyph name="evowelsignmlym" format="2">
  <advance width="715"/>
  <unicode hex="0D46"/>
  <outline>
    <contour>
      <point x="237" y="-12" type="curve" smooth="yes"/>
      <point x="341" y="-12"/>
      <point x="408" y="54"/>
      <point x="408" y="165" type="curve" smooth="yes"/>
      <point x="408" y="269"/>
      <point x="342" y="328"/>
      <point x="245" y="328" type="curve" smooth="yes"/>
      <point x="180" y="328"/>
      <point x="117" y="296"/>
      <point x="77" y="248" type="curve"/>
      <point x="93" y="187" type="line"/>
      <point x="131" y="229"/>
      <point x="179" y="258"/>
      <point x="231" y="258" type="curve" smooth="yes"/>
      <point x="286" y="258"/>
      <point x="325" y="222"/>
      <point x="325" y="158" type="curve" smooth="yes"/>
      <point x="325" y="94"/>
      <point x="290" y="58"/>
      <point x="240" y="58" type="curve" smooth="yes"/>
      <point x="168" y="58"/>
      <point x="120" y="113"/>
      <point x="120" y="228" type="curve" smooth="yes"/>
      <point x="120" y="382"/>
      <point x="226" y="494"/>
      <point x="370" y="494" type="curve" smooth="yes"/>
      <point x="510" y="494"/>
      <point x="587" y="407"/>
      <point x="587" y="271" type="curve" smooth="yes"/>
      <point x="587" y="164"/>
      <point x="531" y="93"/>
      <point x="466" y="54" type="curve"/>
      <point x="515" y="-9" type="line"/>
      <point x="608" y="50"/>
      <point x="676" y="141"/>
      <point x="676" y="281" type="curve" smooth="yes"/>
      <point x="676" y="439"/>
      <point x="582" y="566"/>
      <point x="374" y="566" type="curve" smooth="yes"/>
      <point x="185" y="566"/>
      <point x="39" y="440"/>
      <point x="39" y="232" type="curve" smooth="yes"/>
      <point x="39" y="65"/>
      <point x="132" y="-12"/>
    </contour>
  </outline>
</glyph>
<glyph name="eevowelsignmlym" format="2">
  <advance width="595"/>
  <unicode hex="0D47"/>
  <outline>
    <contour>
      <point x="364" y="-12" type="curve" smooth="yes"/>
      <point x="492" y="-12"/>
      <point x="553" y="46"/>
      <point x="553" y="125" type="curve" smooth="yes"/>
      <point x="553" y="211"/>
      <point x="487" y="255"/>
      <point x="412" y="255" type="curve" smooth="yes"/>
      <point x="309" y="255"/>
      <point x="271" y="193"/>
      <point x="271" y="126" type="curve" smooth="yes"/>
      <point x="271" y="97"/>
      <point x="280" y="73"/>
      <point x="289" y="58" type="curve"/>
      <point x="381" y="39" type="line"/>
      <point x="356" y="58"/>
      <point x="342" y="89"/>
      <point x="342" y="121" type="curve" smooth="yes"/>
      <point x="342" y="151"/>
      <point x="360" y="190"/>
      <point x="411" y="190" type="curve" smooth="yes"/>
      <point x="456" y="190"/>
      <point x="475" y="160"/>
      <point x="475" y="127" type="curve" smooth="yes"/>
      <point x="475" y="75"/>
      <point x="431" y="51"/>
      <point x="380" y="51" type="curve" smooth="yes"/>
      <point x="365" y="51"/>
      <point x="348" y="52"/>
      <point x="332" y="54" type="curve"/>
      <point x="208" y="62"/>
      <point x="128" y="153"/>
      <point x="128" y="280" type="curve" smooth="yes"/>
      <point x="128" y="410"/>
      <point x="204" y="490"/>
      <point x="335" y="501" type="curve"/>
      <point x="353" y="503"/>
      <point x="370" y="503"/>
      <point x="389" y="503" type="curve" smooth="yes"/>
      <point x="437" y="503"/>
      <point x="480" y="480"/>
      <point x="480" y="429" type="curve" smooth="yes"/>
      <point x="480" y="396"/>
      <point x="461" y="365"/>
      <point x="417" y="365" type="curve" smooth="yes"/>
      <point x="366" y="365"/>
      <point x="348" y="404"/>
      <point x="348" y="434" type="curve" smooth="yes"/>
      <point x="348" y="465"/>
      <point x="362" y="498"/>
      <point x="387" y="517" type="curve"/>
      <point x="294" y="498" type="line"/>
      <point x="286" y="482"/>
      <point x="277" y="459"/>
      <point x="277" y="432" type="curve" smooth="yes"/>
      <point x="277" y="363"/>
      <point x="314" y="300"/>
      <point x="421" y="300" type="curve" smooth="yes"/>
      <point x="493" y="300"/>
      <point x="558" y="345"/>
      <point x="558" y="431" type="curve" smooth="yes"/>
      <point x="558" y="509"/>
      <point x="498" y="566"/>
      <point x="366" y="566" type="curve" smooth="yes"/>
      <point x="199" y="566"/>
      <point x="39" y="479"/>
      <point x="39" y="281" type="curve" smooth="yes"/>
      <point x="39" y="76"/>
      <point x="194" y="-12"/>
    </contour>
  </outline>
</glyph>
<glyph name="viramamlym" format="2">
  <unicode hex="0D4D"/>
  <outline>
    <contour>
      <point x="-111" y="591" type="curve" smooth="yes"/>
      <point x="5" y="591"/>
      <point x="70" y="656"/>
      <point x="70" y="752" type="curve" smooth="yes"/>
      <point x="70" y="776"/>
      <point x="65" y="802"/>
      <point x="60" y="818" type="curve"/>
      <point x="-14" y="804" type="line"/>
      <point x="-10" y="790"/>
      <point x="-8" y="771"/>
      <point x="-8" y="755" type="curve" smooth="yes"/>
      <point x="-8" y="684"/>
      <point x="-52" y="659"/>
      <point x="-111" y="659" type="curve" smooth="yes"/>
      <point x="-168" y="659"/>
      <point x="-214" y="684"/>
      <point x="-214" y="755" type="curve" smooth="yes"/>
      <point x="-214" y="771"/>
      <point x="-212" y="790"/>
      <point x="-208" y="804" type="curve"/>
      <point x="-282" y="818" type="line"/>
      <point x="-287" y="802"/>
      <point x="-292" y="776"/>
      <point x="-292" y="752" type="curve" smooth="yes"/>
      <point x="-292" y="656"/>
      <point x="-227" y="591"/>
    </contour>
  </outline>
</glyph>
<glyph name="rephmlym" format="2">
  <unicode hex="0D4E"/>
  <outline>
    <contour>
      <point x="-236" y="809" type="line"/>
      <point x="-339" y="809" type="line"/>
      <point x="-329" y="627" type="line"/>
      <point x="-245" y="627" type="line"/>
    </contour>
  </outline>
</glyph>
<glyph name="uni0D4F" format="2">
  <advance width="1244"/>
  <unicode hex="0D4F"/>
  <outline>
    <contour>
      <point x="582" y="566" type="curve" smooth="yes"/>
      <point x="406" y="566"/>
      <point x="266" y="452"/>
      <point x="266" y="241" type="curve" smooth="yes"/>
      <point x="266" y="63"/>
      <point x="359" y="-12"/>
      <point x="464" y="-12" type="curve"/>
      <point x="567" y="-12"/>
      <point x="634" y="54"/>
      <point x="634" y="165" type="curve" smooth="yes"/>
      <point x="634" y="269"/>
      <point x="568" y="328"/>
      <point x="472" y="328" type="curve" smooth="yes"/>
      <point x="407" y="328"/>
      <point x="343" y="296"/>
      <point x="304" y="248" type="curve"/>
      <point x="319" y="186" type="line"/>
      <point x="358" y="229"/>
      <point x="405" y="258"/>
      <point x="457" y="258" type="curve" smooth="yes"/>
      <point x="513" y="258"/>
      <point x="551" y="223"/>
      <point x="551" y="157" type="curve" smooth="yes"/>
      <point x="551" y="93"/>
      <point x="516" y="58"/>
      <point x="466" y="58" type="curve" smooth="yes"/>
      <point x="394" y="58"/>
      <point x="347" y="115"/>
      <point x="347" y="228" type="curve" smooth="yes"/>
      <point x="347" y="239" type="line" smooth="yes"/>
      <point x="347" y="385"/>
      <point x="437" y="494"/>
      <point x="581" y="494" type="curve" smooth="yes"/>
      <point x="641" y="494"/>
      <point x="674" y="481"/>
      <point x="702" y="456" type="curve" smooth="yes"/>
      <point x="732" y="428"/>
      <point x="746" y="385"/>
      <point x="746" y="305" type="curve" smooth="yes"/>
      <point x="746" y="0" type="line"/>
      <point x="832" y="0" type="line"/>
      <point x="832" y="285" type="line" smooth="yes"/>
      <point x="832" y="371"/>
      <point x="838" y="406"/>
      <point x="854" y="436" type="curve" smooth="yes"/>
      <point x="876" y="475"/>
      <point x="909" y="494"/>
      <point x="964" y="494" type="curve" smooth="yes"/>
      <point x="1057" y="494"/>
      <point x="1113" y="402"/>
      <point x="1113" y="236" type="curve" smooth="yes"/>
      <point x="1113" y="-13"/>
      <point x="983" y="-153"/>
      <point x="625" y="-153" type="curve" smooth="yes"/>
      <point x="196" y="-153"/>
      <point x="133" y="43"/>
      <point x="133" y="238" type="curve" smooth="yes"/>
      <point x="133" y="319"/>
      <point x="151" y="412"/>
      <point x="196" y="500" type="curve"/>
      <point x="118" y="532" type="line"/>
      <point x="72" y="433"/>
      <point x="47" y="336"/>
      <point x="47" y="234" type="curve" smooth="yes"/>
      <point x="47" y="-17"/>
      <point x="162" y="-230"/>
      <point x="624" y="-230" type="curve" smooth="yes"/>
      <point x="1027" y="-230"/>
      <point x="1200" y="-75"/>
      <point x="1200" y="231" type="curve" smooth="yes"/>
      <point x="1200" y="442"/>
      <point x="1119" y="566"/>
      <point x="965" y="566" type="curve" smooth="yes"/>
      <point x="884" y="566"/>
      <point x="830" y="539"/>
      <point x="790" y="477" type="curve"/>
      <point x="800" y="469" type="line"/>
      <point x="754" y="526"/>
      <point x="694" y="566"/>
    </contour>
  </outline>
</glyph>
<glyph name="machillumlym" format="2">
  <advance width="646"/>
  <unicode hex="0D54"/>
  <outline>
    <contour>
      <point x="179" y="792" type="curve" smooth="yes"/>
      <point x="136" y="792"/>
      <point x="94" y="784"/>
      <point x="72" y="778" type="curve"/>
      <point x="91" y="709" type="line"/>
      <point x="108" y="715"/>
      <point x="136" y="720"/>
      <point x="166" y="720" type="curve" smooth="yes"/>
      <point x="190" y="720"/>
      <point x="207" y="715"/>
      <point x="219" y="705" type="curve" smooth="yes"/>
      <point x="237" y="691"/>
      <point x="244" y="671"/>
      <point x="244" y="628" type="curve" smooth="yes"/>
      <point x="244" y="502" type="line" smooth="yes"/>
      <point x="244" y="396"/>
      <point x="269" y="324"/>
      <point x="370" y="220" type="curve"/>
      <point x="387" y="202" type="line"/>
      <point x="426" y="161"/>
      <point x="475" y="115"/>
      <point x="537" y="62" type="curve"/>
      <point x="573" y="65" type="line"/>
      <point x="545" y="70"/>
      <point x="505" y="70"/>
      <point x="473" y="70" type="curve" smooth="yes"/>
      <point x="360" y="70" type="line" smooth="yes"/>
      <point x="322" y="70"/>
      <point x="286" y="68"/>
      <point x="247" y="65" type="curve"/>
      <point x="249" y="45" type="line"/>
      <point x="327" y="105"/>
      <point x="388" y="159"/>
      <point x="433" y="213" type="curve"/>
      <point x="451" y="232" type="line"/>
      <point x="490" y="284"/>
      <point x="509" y="341"/>
      <point x="509" y="392" type="curve" smooth="yes"/>
      <point x="509" y="481"/>
      <point x="449" y="566"/>
      <point x="330" y="566" type="curve" smooth="yes"/>
      <point x="251" y="566"/>
      <point x="187" y="539"/>
      <point x="138" y="493" type="curve" smooth="yes"/>
      <point x="85" y="443"/>
      <point x="60" y="372"/>
      <point x="60" y="268" type="curve" smooth="yes"/>
      <point x="60" y="0" type="line"/>
      <point x="602" y="0" type="line"/>
      <point x="637" y="69" type="line"/>
      <point x="548" y="147"/>
      <point x="486" y="204"/>
      <point x="441" y="253" type="curve"/>
      <point x="416" y="278" type="line"/>
      <point x="341" y="355"/>
      <point x="328" y="416"/>
      <point x="328" y="516" type="curve" smooth="yes"/>
      <point x="328" y="639" type="line" smooth="yes"/>
      <point x="328" y="697"/>
      <point x="319" y="732"/>
      <point x="285" y="760" type="curve" smooth="yes"/>
      <point x="262" y="779"/>
      <point x="227" y="792"/>
    </contour>
    <contour>
      <point x="146" y="68" type="line"/>
      <point x="146" y="249" type="line" smooth="yes"/>
      <point x="146" y="326"/>
      <point x="159" y="380"/>
      <point x="181" y="418" type="curve" smooth="yes"/>
      <point x="208" y="464"/>
      <point x="246" y="496"/>
      <point x="311" y="496" type="curve" smooth="yes"/>
      <point x="382" y="496"/>
      <point x="421" y="451"/>
      <point x="421" y="388" type="curve" smooth="yes"/>
      <point x="421" y="354"/>
      <point x="414" y="319"/>
      <point x="394" y="285" type="curve"/>
      <point x="378" y="268" type="line"/>
      <point x="334" y="205"/>
      <point x="259" y="143"/>
      <point x="151" y="68" type="curve"/>
    </contour>
  </outline>
</glyph>
<glyph name="yachillumlym" format="2">
  <advance width="1033"/>
  <unicode hex="0D55"/>
  <outline>
    <contour>
      <point x="680" y="-12" type="curve" smooth="yes"/>
      <point x="880" y="-12"/>
      <point x="991" y="93"/>
      <point x="991" y="266" type="curve" smooth="yes"/>
      <point x="991" y="356"/>
      <point x="951" y="433"/>
      <point x="892" y="507" type="curve" smooth="yes"/>
      <point x="843" y="568"/>
      <point x="809" y="609"/>
      <point x="809" y="651" type="curve" smooth="yes"/>
      <point x="809" y="687"/>
      <point x="830" y="720"/>
      <point x="886" y="720" type="curve" smooth="yes"/>
      <point x="917" y="720"/>
      <point x="944" y="715"/>
      <point x="961" y="709" type="curve"/>
      <point x="981" y="778" type="line"/>
      <point x="958" y="784"/>
      <point x="917" y="792"/>
      <point x="873" y="792" type="curve" smooth="yes"/>
      <point x="753" y="792"/>
      <point x="722" y="714"/>
      <point x="722" y="663" type="curve" smooth="yes"/>
      <point x="722" y="591"/>
      <point x="753" y="547"/>
      <point x="815" y="468" type="curve" smooth="yes"/>
      <point x="859" y="411"/>
      <point x="904" y="353"/>
      <point x="904" y="257" type="curve" smooth="yes"/>
      <point x="904" y="154"/>
      <point x="843" y="56"/>
      <point x="678" y="56" type="curve" smooth="yes"/>
      <point x="626" y="56"/>
      <point x="596" y="62"/>
      <point x="573" y="69" type="curve" smooth="yes"/>
      <point x="559" y="74"/>
      <point x="550" y="72"/>
      <point x="537" y="78" type="curve" smooth="yes"/>
      <point x="454" y="121"/>
      <point x="399" y="221"/>
      <point x="399" y="332" type="curve" smooth="yes"/>
      <point x="399" y="438"/>
      <point x="449" y="496"/>
      <point x="525" y="496" type="curve" smooth="yes"/>
      <point x="589" y="496"/>
      <point x="647" y="452"/>
      <point x="647" y="332" type="curve" smooth="yes"/>
      <point x="647" y="206"/>
      <point x="583" y="117"/>
      <point x="514" y="82" type="curve"/>
      <point x="500" y="76"/>
      <point x="486" y="71"/>
      <point x="471" y="66" type="curve"/>
      <point x="443" y="59"/>
      <point x="411" y="56"/>
      <point x="383" y="56" type="curve" smooth="yes"/>
      <point x="213" y="56"/>
      <point x="126" y="189"/>
      <point x="126" y="333" type="curve" smooth="yes"/>
      <point x="126" y="441"/>
      <point x="181" y="496"/>
      <point x="257" y="496" type="curve" smooth="yes"/>
      <point x="312" y="496"/>
      <point x="344" y="466"/>
      <point x="362" y="431" type="curve"/>
      <point x="421" y="490" type="line"/>
      <point x="385" y="536"/>
      <point x="333" y="566"/>
      <point x="256" y="566" type="curve" smooth="yes"/>
      <point x="123" y="566"/>
      <point x="39" y="474"/>
      <point x="39" y="335" type="curve" smooth="yes"/>
      <point x="39" y="135"/>
      <point x="163" y="-12"/>
      <point x="376" y="-12" type="curve" smooth="yes"/>
      <point x="442" y="-12"/>
      <point x="504" y="1"/>
      <point x="560" y="33" type="curve" smooth="yes"/>
      <point x="573" y="40"/>
      <point x="582" y="45"/>
      <point x="593" y="53" type="curve" smooth="yes"/>
      <point x="680" y="111"/>
      <point x="734" y="212"/>
      <point x="734" y="332" type="curve" smooth="yes"/>
      <point x="734" y="475"/>
      <point x="657" y="566"/>
      <point x="525" y="566" type="curve" smooth="yes"/>
      <point x="457" y="566"/>
      <point x="396" y="537"/>
      <point x="356" y="484" type="curve"/>
      <point x="349" y="473" type="line" smooth="yes"/>
      <point x="326" y="437"/>
      <point x="312" y="391"/>
      <point x="312" y="338" type="curve" smooth="yes"/>
      <point x="312" y="221"/>
      <point x="356" y="121"/>
      <point x="466" y="43" type="curve"/>
      <point x="473" y="39"/>
      <point x="488" y="33"/>
      <point x="496" y="29" type="curve" smooth="yes"/>
      <point x="552" y="-2"/>
      <point x="608" y="-12"/>
    </contour>
  </outline>
</glyph>
<glyph name="lllachillumlym" format="2">
  <advance width="725"/>
  <unicode hex="0D56"/>
  <outline>
    <contour>
      <point x="210" y="156" type="curve" smooth="yes"/>
      <point x="210" y="259"/>
      <point x="254" y="330"/>
      <point x="298" y="404" type="curve" smooth="yes"/>
      <point x="378" y="539"/>
      <point x="399" y="581"/>
      <point x="399" y="658" type="curve" smooth="yes"/>
      <point x="399" y="714"/>
      <point x="368" y="792"/>
      <point x="246" y="792" type="curve" smooth="yes"/>
      <point x="205" y="792"/>
      <point x="164" y="784"/>
      <point x="142" y="778" type="curve"/>
      <point x="161" y="709" type="line"/>
      <point x="178" y="715"/>
      <point x="205" y="720"/>
      <point x="233" y="720" type="curve" smooth="yes"/>
      <point x="291" y="720"/>
      <point x="312" y="687"/>
      <point x="312" y="643" type="curve" smooth="yes"/>
      <point x="312" y="592"/>
      <point x="290" y="540"/>
      <point x="232" y="441" type="curve" smooth="yes"/>
      <point x="180" y="352"/>
      <point x="129" y="265"/>
      <point x="129" y="168" type="curve" smooth="yes"/>
      <point x="129" y="43"/>
      <point x="205" y="-12"/>
      <point x="322" y="-12" type="curve" smooth="yes"/>
      <point x="475" y="-12"/>
      <point x="506" y="65"/>
      <point x="506" y="123" type="curve" smooth="yes"/>
      <point x="506" y="227"/>
      <point x="418" y="296"/>
      <point x="418" y="403" type="curve" smooth="yes"/>
      <point x="418" y="456"/>
      <point x="446" y="497"/>
      <point x="510" y="497" type="curve" smooth="yes"/>
      <point x="580" y="497"/>
      <point x="602" y="449"/>
      <point x="602" y="397" type="curve" smooth="yes"/>
      <point x="602" y="299"/>
      <point x="534" y="219"/>
      <point x="389" y="219" type="curve" smooth="yes"/>
      <point x="362" y="219" type="line" smooth="yes"/>
      <point x="300" y="219"/>
      <point x="241" y="230"/>
      <point x="202" y="255" type="curve"/>
      <point x="173" y="273" type="line"/>
      <point x="139" y="303"/>
      <point x="123" y="341"/>
      <point x="123" y="401" type="curve" smooth="yes"/>
      <point x="123" y="443"/>
      <point x="130" y="480"/>
      <point x="158" y="529" type="curve"/>
      <point x="91" y="566" type="line"/>
      <point x="51" y="507"/>
      <point x="37" y="452"/>
      <point x="37" y="401" type="curve" smooth="yes"/>
      <point x="37" y="311"/>
      <point x="77" y="236"/>
      <point x="159" y="192" type="curve"/>
      <point x="189" y="182" type="line"/>
      <point x="237" y="161"/>
      <point x="288" y="150"/>
      <point x="362" y="150" type="curve" smooth="yes"/>
      <point x="386" y="150" type="line" smooth="yes"/>
      <point x="581" y="150"/>
      <point x="688" y="258"/>
      <point x="688" y="392" type="curve" smooth="yes"/>
      <point x="688" y="476"/>
      <point x="639" y="566"/>
      <point x="512" y="566" type="curve" smooth="yes"/>
      <point x="385" y="566"/>
      <point x="337" y="483"/>
      <point x="337" y="404" type="curve" smooth="yes"/>
      <point x="337" y="282"/>
      <point x="423" y="228"/>
      <point x="423" y="126" type="curve" smooth="yes"/>
      <point x="423" y="89"/>
      <point x="406" y="59"/>
      <point x="324" y="59" type="curve" smooth="yes"/>
      <point x="242" y="59"/>
      <point x="210" y="99"/>
    </contour>
  </outline>
</glyph>
<glyph name="aulengthmarkmlym" format="2">
  <advance width="759"/>
  <unicode hex="0D57"/>
  <outline>
    <contour>
      <point x="515" y="566" type="curve" smooth="yes"/>
      <point x="448" y="566"/>
      <point x="399" y="541"/>
      <point x="361" y="481" type="curve"/>
      <point x="374" y="480" type="line"/>
      <point x="342" y="534"/>
      <point x="296" y="566"/>
      <point x="226" y="566" type="curve" smooth="yes"/>
      <point x="97" y="566"/>
      <point x="36" y="480"/>
      <point x="36" y="378" type="curve" smooth="yes"/>
      <point x="36" y="341"/>
      <point x="43" y="291"/>
      <point x="56" y="254" type="curve"/>
      <point x="137" y="271" type="line"/>
      <point x="128" y="299"/>
      <point x="122" y="328"/>
      <point x="122" y="372" type="curve" smooth="yes"/>
      <point x="122" y="442"/>
      <point x="157" y="494"/>
      <point x="228" y="494" type="curve" smooth="yes"/>
      <point x="262" y="494"/>
      <point x="290" y="481"/>
      <point x="308" y="451" type="curve" smooth="yes"/>
      <point x="322" y="428"/>
      <point x="327" y="388"/>
      <point x="327" y="333" type="curve" smooth="yes"/>
      <point x="327" y="258" type="line"/>
      <point x="413" y="258" type="line"/>
      <point x="413" y="340" type="line" smooth="yes"/>
      <point x="413" y="399"/>
      <point x="415" y="427"/>
      <point x="428" y="450" type="curve" smooth="yes"/>
      <point x="444" y="478"/>
      <point x="472" y="494"/>
      <point x="513" y="494" type="curve" smooth="yes"/>
      <point x="585" y="494"/>
      <point x="632" y="437"/>
      <point x="632" y="305" type="curve" smooth="yes"/>
      <point x="632" y="166"/>
      <point x="588" y="60"/>
      <point x="442" y="60" type="curve" smooth="yes"/>
      <point x="366" y="60"/>
      <point x="317" y="79"/>
      <point x="267" y="108" type="curve"/>
      <point x="224" y="40" type="line"/>
      <point x="291" y="6"/>
      <point x="351" y="-12"/>
      <point x="447" y="-12" type="curve" smooth="yes"/>
      <point x="623" y="-12"/>
      <point x="720" y="103"/>
      <point x="720" y="305" type="curve" smooth="yes"/>
      <point x="720" y="461"/>
      <point x="644" y="566"/>
    </contour>
  </outline>
</glyph>
<glyph name="uni0D58" format="2">
  <advance width="1223"/>
  <unicode hex="0D58"/>
  <outline>
    <contour>
      <point x="606" y="-12" type="curve" smooth="yes"/>
      <point x="692" y="-12"/>
      <point x="745" y="24"/>
      <point x="775" y="82" type="curve"/>
      <point x="815" y="262" type="line"/>
      <point x="815" y="554" type="line"/>
      <point x="729" y="554" type="line"/>
      <point x="729" y="237" type="line" smooth="yes"/>
      <point x="729" y="164"/>
      <point x="720" y="122"/>
      <point x="695" y="94" type="curve" smooth="yes"/>
      <point x="676" y="72"/>
      <point x="647" y="60"/>
      <point x="606" y="60" type="curve" smooth="yes"/>
      <point x="572" y="60"/>
      <point x="538" y="74"/>
      <point x="519" y="97" type="curve" smooth="yes"/>
      <point x="494" y="125"/>
      <point x="483" y="163"/>
      <point x="483" y="246" type="curve" smooth="yes"/>
      <point x="483" y="554" type="line"/>
      <point x="397" y="554" type="line"/>
      <point x="397" y="262" type="line" smooth="yes"/>
      <point x="397" y="192"/>
      <point x="393" y="146"/>
      <point x="375" y="114" type="curve" smooth="yes"/>
      <point x="354" y="77"/>
      <point x="324" y="60"/>
      <point x="276" y="60" type="curve" smooth="yes"/>
      <point x="192" y="60"/>
      <point x="127" y="138"/>
      <point x="127" y="262" type="curve" smooth="yes"/>
      <point x="127" y="383"/>
      <point x="181" y="453"/>
      <point x="247" y="499" type="curve"/>
      <point x="189" y="563" type="line"/>
      <point x="103" y="493"/>
      <point x="39" y="408"/>
      <point x="39" y="262" type="curve" smooth="yes"/>
      <point x="39" y="93"/>
      <point x="135" y="-12"/>
      <point x="278" y="-12" type="curve" smooth="yes"/>
      <point x="362" y="-12"/>
      <point x="408" y="24"/>
      <point x="443" y="81" type="curve"/>
      <point x="436" y="81" type="line"/>
      <point x="475" y="21"/>
      <point x="535" y="-12"/>
    </contour>
    <contour>
      <point x="941" y="-12" type="curve" smooth="yes"/>
      <point x="1090" y="-12"/>
      <point x="1179" y="88"/>
      <point x="1179" y="322" type="curve" smooth="yes"/>
      <point x="1179" y="624"/>
      <point x="1012" y="843"/>
      <point x="624" y="843" type="curve" smooth="yes"/>
      <point x="526" y="843"/>
      <point x="443" y="834"/>
      <point x="367" y="814" type="curve"/>
      <point x="380" y="741" type="line"/>
      <point x="447" y="760"/>
      <point x="525" y="770"/>
      <point x="623" y="770" type="curve" smooth="yes"/>
      <point x="966" y="770"/>
      <point x="1092" y="570"/>
      <point x="1092" y="320" type="curve" smooth="yes"/>
      <point x="1092" y="135"/>
      <point x="1029" y="60"/>
      <point x="940" y="60" type="curve" smooth="yes"/>
      <point x="891" y="60"/>
      <point x="856" y="79"/>
      <point x="835" y="117" type="curve" smooth="yes"/>
      <point x="819" y="147"/>
      <point x="815" y="183"/>
      <point x="815" y="262" type="curve" smooth="yes"/>
      <point x="815" y="544" type="line"/>
      <point x="739" y="544" type="line"/>
      <point x="739" y="237" type="line"/>
      <point x="768" y="82" type="line"/>
      <point x="813" y="13"/>
      <point x="865" y="-12"/>
    </contour>
  </outline>
</glyph>
